<svg xmlns="http://www.w3.org/2000/svg"
shape-rendering="geometricPrecision"
width="4000" height="4000" viewBox="0 0 1024 1024">
  <metadata>null</metadata>

<path d="
M 76.989 410.623
C 77.077 410.077 77.037 410.417 77.052 409.598
C 85.703 409.665 94.352 409.596 103.006 409.613
C 107.021 409.621 111.988 408.91 115.875 410.004
C 116.273 413.379 115.879 416.97 115.789 420.353
C 112.548 420.598 109.238 420.507 105.986 420.641
C 104.967 420.683 103.293 420.356 102.448 420.889
C 102.154 434.094 102.394 447.293 102.254 460.501
C 102.218 463.835 102.157 467.168 102.172 470.502
C 102.177 471.522 102.49 473.341 101.78 474.166
C 98.076 474.891 93.853 474.457 90.104 474.279
C 89.508 473.539 89.815 471.615 89.801 470.68
C 89.755 467.402 89.799 464.124 89.808 460.845
C 89.833 451.398 89.859 441.948 89.802 432.501
C 89.786 429.835 89.685 427.168 89.692 424.502
C 89.694 423.5 90.063 421.786 89.698 420.877
C 85.411 420.665 81.082 420.971 76.849 420.083
C 76.804 416.948 76.966 413.767 76.989 410.623 Z"
opacity="1" fill="rgb(225,128,55)" fill-rule="evenodd" />
<path d="
M 121.528 409.163
C 125.089 408.811 129.514 408.762 133.049 409.289
C 133.561 411.925 133.434 414.614 133.505 417.295
C 133.62 421.614 133.782 425.853 133.547 430.136
C 134.253 430.326 134.587 429.553 135.036 429.071
C 136.245 427.772 137.496 426.406 138.986 425.419
C 141.701 423.621 145.896 424.871 148.664 426.01
C 152.801 427.712 155.267 431.804 156.014 436.044
C 156.675 439.791 156.462 443.709 156.449 447.499
C 156.431 452.499 156.487 457.501 156.41 462.5
C 156.371 465.001 156.174 467.502 156.248 470.006
C 156.285 471.278 156.753 473.048 156.374 474.252
C 153.569 474.458 150.753 474.493 147.946 474.443
C 146.836 474.424 145.308 474.656 144.313 474.125
C 143.372 465.175 144.474 455.985 143.957 446.995
C 143.77 443.75 144.583 439.005 141.844 436.631
C 139.302 434.428 134.366 436.152 134.087 439.61
C 133.625 445.357 133.789 451.231 133.735 456.999
C 133.684 462.567 133.4 468.283 133.811 473.836
C 130.125 474.747 125.824 474.438 122.122 473.876
C 121.468 469.518 122.135 464.888 122.043 460.486
C 121.811 449.485 121.783 438.514 121.763 427.506
C 121.751 421.443 122.162 415.198 121.528 409.163 Z"
opacity="1" fill="rgb(224,127,53)" fill-rule="evenodd" />
<path d="
M 162.984 442.107
C 163.425 439.262 163.445 436.497 165.01 433.949
C 167.127 430.503 171.745 426.364 175.56 424.925
C 181.291 422.761 189.831 424.933 194.019 429.303
C 199.668 435.198 198.841 444.996 198.29 452.48
C 196.569 453.818 193.136 453.388 191.112 453.372
C 185.915 453.333 180.582 453.156 175.434 453.9
C 174.229 455.205 175.647 456.55 175.827 457.979
C 175.994 459.306 175.692 460.723 176.51 461.893
C 177.761 463.681 182.872 464.907 184.729 463.659
C 185.935 462.848 186.848 460.976 187.466 459.707
C 190.638 460.528 194.567 459.982 197.426 461.754
C 198.706 465.748 195.237 470.134 192.108 472.068
C 185.22 476.325 177.518 475.911 170.617 471.746
C 160.66 465.736 163.249 451.838 162.984 442.107 Z
M 176.433 439.069
C 176.033 441.165 176.396 443.1 176.802 445.148
C 177.413 445.605 178.455 445.451 179.187 445.46
C 181.433 445.486 184.022 445.682 186.224 445.241
C 185.969 442.983 186.69 440.303 185.516 438.208
C 183.271 434.204 178.128 435.284 176.433 439.069 Z"
opacity="1" fill="rgb(223,126,55)" fill-rule="evenodd" />
<path d="
M 224.384 431.102
C 226.055 415.515 246.506 409.732 256.59 421.25
C 262.63 428.149 261.303 437.612 261.278 446.048
C 261.265 450.561 261.719 455.268 261.107 459.75
C 260.707 462.678 259.74 465.683 258.004 468.104
C 250.911 478.002 235.559 477.671 228.161 468.486
C 223.211 462.34 224.117 453.798 224.147 446.431
C 224.168 441.367 223.844 436.141 224.384 431.102 Z
M 236.522 451.122
C 236.38 454.483 235.753 459.841 238.209 462.502
C 239.249 463.63 241.113 464.922 242.652 465.154
C 245.781 465.625 248.404 462.308 248.703 459.503
C 249.093 455.842 248.828 452.038 248.809 448.361
C 248.785 443.677 248.99 438.992 248.904 434.309
C 248.849 431.347 248.857 427.275 245.892 425.588
C 242.422 423.613 238.476 426.298 237.231 429.57
C 236.368 431.837 236.725 434.639 236.725 437.023
C 236.725 441.721 236.72 446.432 236.522 451.122 Z"
opacity="1" fill="rgb(223,130,58)" fill-rule="evenodd" />
<path d="
M 268.365 424.961
C 271.113 424.706 273.743 424.498 276.508 424.571
C 277.486 424.596 278.641 424.394 279.515 424.85
C 279.549 426.422 279.596 427.937 279.468 429.516
C 283.614 428.132 285.63 423.907 290.524 423.886
C 297.202 423.856 301.559 429.062 302.051 435.369
C 303.07 448.435 301.077 461.837 302.787 474.84
C 298.757 474.84 294.729 474.761 290.706 474.6
C 289.599 465.188 290.597 455.498 290.433 446.043
C 290.378 442.847 291.171 437.548 288.316 435.323
C 284.838 432.613 280.53 436.123 280.262 439.789
C 279.954 443.988 280.233 448.287 280.188 452.498
C 280.11 459.918 279.935 467.392 280.216 474.807
C 276.855 475.697 272.42 474.756 268.935 474.875
C 268.328 474.168 268.394 472.35 268.324 471.406
C 268.095 468.271 268.198 465.138 268.269 462
C 268.467 453.342 268.261 444.659 268.318 435.997
C 268.341 432.587 267.576 428.256 268.365 424.961 Z"
opacity="1" fill="rgb(224,127,54)" fill-rule="evenodd" />
<path d="
M 310.979 448.117
C 311.361 445.314 311.073 442.329 311.135 439.5
C 311.283 432.671 311.283 425.833 311.238 419.003
C 311.216 415.773 310.661 412.049 311.275 408.879
C 315.277 408.739 319.279 408.662 323.284 408.933
C 323.828 412.769 323.517 416.866 323.673 420.747
C 324.133 432.174 323.845 443.469 323.439 454.886
C 323.289 459.087 323.299 463.297 323.343 467.5
C 323.366 469.649 323.758 472.102 323.247 474.207
C 319.49 474.88 314.992 474.086 311.16 474.105
C 311.592 465.458 310.482 456.771 310.979 448.117 Z"
opacity="1" fill="rgb(224,128,55)" fill-rule="evenodd" />
<path d="
M 323.479 552.108
C 323.709 550.562 323.79 549.114 324.468 547.675
C 326.829 542.661 332.771 539.455 337.841 537.93
C 339.608 537.399 341.422 537.025 343.265 536.911
C 343.763 536.88 345.229 537.059 345.571 536.688
C 346.066 534.92 346.612 532.1 345.634 530.404
C 343.765 527.166 339.209 528.549 337.388 531.014
C 337.01 531.979 337.677 532.958 337.4 533.831
C 333.408 533.73 329.42 533.539 325.438 533.406
C 324.849 532.747 325.27 530.98 325.361 530.141
C 325.763 526.434 327.605 522.963 330.603 520.72
C 336.812 516.072 347.714 516.987 353.466 521.825
C 357.554 525.264 358.052 529.625 358.274 534.684
C 358.428 538.189 358.717 541.753 358.547 545.261
C 358.369 548.914 357.74 552.794 357.931 556.435
C 358.117 559.955 359.816 563.427 360.391 566.911
C 356.087 567.27 351.73 566.641 347.466 566.971
C 347.048 565.087 347.289 563.145 346.97 561.254
C 342.745 568.198 333.304 570.122 327.286 564.036
C 324.017 560.73 323.208 556.588 323.479 552.108 Z
M 336.347 550.558
C 335.984 552.448 336.028 554.823 337.276 556.408
C 338.957 558.543 342.779 558.293 344.528 556.406
C 346.597 554.175 345.954 551.739 345.927 549.001
C 345.914 547.67 346.154 546.363 346.175 545.031
C 342.027 545.525 337.871 546.159 336.347 550.558 Z"
opacity="1" fill="rgb(224,128,55)" fill-rule="evenodd" />
<path d="
M 328.632 425.311
C 332.702 425.348 336.89 424.993 340.941 425.543
C 341.173 428.318 342.426 430.543 343.067 433.189
C 343.326 434.259 342.859 435.265 343.119 436.345
C 344.501 442.087 346.434 447.728 347.463 453.55
C 348.762 449.952 349.129 445.6 349.9 441.834
C 351.027 436.324 352.777 430.862 353.357 425.256
C 356.404 425.172 359.461 425.233 362.509 425.302
C 363.475 425.324 365.444 424.94 366.27 425.444
C 363.311 438.485 359.29 451.3 355.991 464.265
C 354.863 468.7 353.458 473.047 352.316 477.469
C 351.618 480.175 351.11 483.277 349.514 485.625
C 345.677 491.273 339.053 492.418 332.764 491.165
C 333.093 488.189 333.017 484.927 332.907 481.941
C 334.743 481.717 337.479 482.198 339.117 481.246
C 341.304 479.976 342.479 475.839 342.412 473.466
C 342.368 471.912 341.479 470.601 340.807 469.258
C 339.911 467.468 339.267 465.493 338.826 463.546
C 336.812 454.645 333.839 446.146 331.363 437.384
C 330.235 433.395 329.559 429.337 328.632 425.311 Z"
opacity="1" fill="rgb(224,127,56)" fill-rule="evenodd" />
<path d="
M 366.99 552.616
C 367.359 549.976 367.158 547.168 367.208 544.503
C 367.311 539 367.324 533.498 367.371 527.995
C 367.396 525.11 366.703 521.361 367.599 518.618
C 369.914 517.386 373.366 517.938 375.882 517.99
C 376.541 518.004 378.29 517.649 378.75 518.015
C 378.565 519.44 378.331 520.763 378.398 522.213
C 380.551 522.733 383.066 519.037 384.831 518.2
C 387.741 516.819 391.711 517.503 394.626 518.571
C 399.58 520.385 400.83 526.182 401.33 530.832
C 401.817 535.363 401.582 539.95 401.579 544.501
C 401.573 551.995 401.558 559.467 401.374 566.953
C 397.459 567.43 393.432 566.794 389.5 567.328
C 389.109 566.889 389.26 565.425 389.236 564.799
C 389.159 562.771 388.912 560.76 388.831 558.728
C 388.563 551.997 388.947 545.229 388.925 538.493
C 388.917 536.138 389.588 532.137 388.316 530.059
C 385.692 525.774 380.149 528.576 379.684 532.762
C 379.223 536.911 379.804 541.318 379.729 545.499
C 379.601 552.721 379.039 560.144 379.333 567.343
C 375.334 567.185 370.993 566.78 367.019 567.306
C 366.473 566.696 366.894 564.363 366.894 563.492
C 366.892 559.878 366.758 556.224 366.99 552.616 Z"
opacity="1" fill="rgb(224,125,52)" fill-rule="evenodd" />
<path d="
M 390.902 409.303
C 394.632 408.494 398.941 409.052 402.719 409.299
C 403.291 410.539 402.804 413.005 402.85 414.418
C 402.999 419.048 403.106 423.685 403.091 428.318
C 403.041 443.627 402.92 458.971 403.02 474.263
C 402.085 474.626 400.511 474.338 399.5 474.33
C 396.666 474.307 393.819 474.258 390.988 474.374
C 390.286 473.648 390.683 471.215 390.668 470.2
C 390.61 466.135 390.71 462.068 390.747 458.003
C 390.893 441.779 390.392 425.518 390.902 409.303 Z"
opacity="1" fill="rgb(222,127,54)" fill-rule="evenodd" />
<path d="
M 408.455 542.114
C 409.511 534.27 407.818 526.051 414.84 520.344
C 416.101 519.319 417.487 518.484 419.073 518.066
C 420.545 517.678 422.201 517.562 423.715 517.72
C 425.788 517.935 427.449 519.081 429.039 520.345
C 429.59 520.783 430.996 522.463 431.704 522.456
C 432.099 517.973 431.906 513.39 431.954 508.889
C 431.98 506.452 432.333 503.856 431.923 501.449
C 435.399 500.989 440.293 501.012 443.751 501.664
C 443.437 505.882 443.819 510.261 443.827 514.498
C 443.846 524.166 443.915 533.832 443.946 543.5
C 443.963 549.003 443.75 554.499 443.729 560.001
C 443.72 562.306 443.324 565.053 443.717 567.31
C 439.905 567.601 436.051 567.154 432.243 567.276
C 432.656 565.568 433.858 563.57 433.51 561.758
C 432.406 562.145 431.293 564.036 430.366 564.829
C 428.392 566.517 426.026 567.736 423.443 568.105
C 417.25 568.991 411.384 563.906 409.413 558.273
C 407.758 553.544 408.129 547.053 408.455 542.114 Z
M 420.484 535.106
C 420.162 539.044 420.536 543.104 420.674 547.046
C 420.757 549.4 420.547 552.215 421.506 554.425
C 423.465 558.938 430.524 558.372 431.353 553.371
C 432.18 548.375 431.66 543.014 431.592 537.969
C 431.566 536.059 432.033 532.92 431.332 531.152
C 430.305 528.563 425.942 527.333 423.682 528.818
C 421.548 530.221 420.682 532.673 420.484 535.106 Z"
opacity="1" fill="rgb(225,127,53)" fill-rule="evenodd" />
<path d="
M 411.834 411.545
C 412.312 409.771 414.588 406.395 416.474 405.943
C 421.899 404.641 427.14 409.923 425.562 415.313
C 424.402 419.275 419.208 421.111 415.6 419.203
C 413.99 418.35 412.98 416.76 412.37 415.097
C 411.984 414.047 411.531 412.671 411.834 411.545 Z"
opacity="1" fill="rgb(225,133,61)" fill-rule="evenodd" />
<path d="
M 412.472 437.113
C 412.884 434.475 412.583 431.696 412.738 429.033
C 412.793 428.085 412.727 426.618 413.406 425.89
C 417.285 425.675 421.397 425.583 425.264 426.017
C 425.67 427.374 425.385 429.077 425.385 430.494
C 425.386 433.718 425.39 436.944 425.45 440.168
C 425.605 448.457 425.528 456.703 425.33 464.994
C 425.26 467.97 425.658 471.175 425.308 474.119
C 421.313 474.296 417.065 474.211 413.083 473.878
C 412.459 468.593 412.907 463.052 412.811 457.728
C 412.688 450.877 411.996 443.965 412.472 437.113 Z"
opacity="1" fill="rgb(223,128,57)" fill-rule="evenodd" />
<path d="
M 434.474 464.111
C 435.112 460.237 434.751 455.93 434.771 452.006
C 434.814 443.151 434.529 434.236 434.83 425.389
C 438.378 425.139 442.112 424.92 445.662 425.237
C 445.715 426.531 445.805 427.858 445.911 429.155
C 446.562 429.332 447.427 429.207 448.012 428.884
C 449.043 428.018 449.604 426.802 450.857 426.154
C 457.612 422.661 465.715 425.8 468.147 432.973
C 469.353 436.529 469.126 440.389 469.119 444.09
C 469.106 450.084 468.967 456.072 468.868 462.067
C 468.822 464.875 468.837 467.693 468.92 470.501
C 468.956 471.711 469.293 473.212 468.863 474.368
C 464.747 474.531 460.589 474.13 456.495 474.355
C 456.215 473.491 456.535 472.432 456.58 471.535
C 456.672 469.725 456.636 467.908 456.629 466.097
C 456.606 459.874 456.461 453.637 456.33 447.411
C 456.268 444.464 456.936 439.88 455.107 437.389
C 453.095 434.649 447.232 435.171 446.778 438.965
C 445.959 445.805 446.612 453.131 446.824 460.001
C 446.971 464.768 446.623 469.577 446.826 474.328
C 442.779 474.242 438.723 474.27 434.678 474.178
C 434.622 470.831 434.249 467.459 434.474 464.111 Z"
opacity="1" fill="rgb(225,126,53)" fill-rule="evenodd" />
<path d="
M 471.939 506.096
C 472.269 503.349 474.267 499.916 477.116 499.17
C 481.734 497.961 486.43 502.778 485.734 507.263
C 484.572 514.762 470.96 514.243 471.939 506.096 Z"
opacity="1" fill="rgb(221,126,55)" fill-rule="evenodd" />
<path d="
M 472.511 519.115
C 472.527 518.938 472.543 518.762 472.559 518.585
C 473.665 517.958 475.237 518.199 476.504 518.203
C 479.157 518.212 482.023 517.943 484.648 518.264
C 484.261 528.774 484.741 539.463 484.739 549.999
C 484.738 553.833 484.729 557.667 484.729 561.501
C 484.729 563.298 484.459 565.451 484.8 567.207
C 480.804 567.393 476.723 566.709 472.733 567.146
C 472.805 563.9 472.459 560.618 472.432 557.362
C 472.351 547.608 472.363 537.881 472.548 528.134
C 472.605 525.149 472.243 522.075 472.511 519.115 Z"
opacity="1" fill="rgb(223,127,53)" fill-rule="evenodd" />
<path d="
M 475.981 441.618
C 476.317 438.867 476.094 436.378 477.619 433.907
C 479.879 430.245 483.509 426.844 487.599 425.36
C 493.771 423.12 502.839 425.003 507.138 430.122
C 512.982 437.081 509.568 445.218 510.769 453.189
C 503.306 453.739 495.771 453.36 488.306 453.899
C 487.933 454.54 488.172 455.561 488.277 456.283
C 488.561 458.238 489.126 461.165 490.29 462.769
C 492.447 463.373 495.088 464.24 497.349 463.865
C 498.546 462.594 499.287 461.044 500.228 459.595
C 503.659 460.249 507.227 461.025 510.718 461.232
C 510.824 469.183 501.993 475.387 494.491 475.558
C 490.196 475.656 484.794 473.54 481.547 470.796
C 474.608 464.933 475.675 456.642 476.023 448.491
C 476.121 446.2 475.896 443.91 475.981 441.618 Z
M 488.941 439.085
C 488.805 440.643 488.361 443.805 489.577 444.936
C 492.546 444.908 495.695 445.331 498.657 444.931
C 498.963 444.611 498.793 443.382 498.792 442.949
C 498.785 440.467 498.079 438.017 496.387 436.168
C 493.744 434.696 489.828 436.353 488.941 439.085 Z"
opacity="1" fill="rgb(226,126,54)" fill-rule="evenodd" />
<path d="
M 493.821 507.756
C 496.389 507.612 498.941 507.687 501.51 507.78
C 502.36 507.811 503.64 507.588 504.368 508.022
C 508.048 516.372 511.115 525.095 514.214 533.679
C 515.568 537.428 516.582 541.352 518.155 545.016
C 518.66 545.105 518.391 542.444 518.42 542.093
C 518.682 538.91 518.561 535.693 518.622 532.494
C 518.773 524.535 519.301 516.287 518.606 508.353
C 519.194 507.729 520.575 507.938 521.415 507.937
C 523.973 507.935 526.726 507.859 529.259 508.202
C 528.688 517.526 529.346 527.147 529.418 536.497
C 529.498 546.903 529.033 557.509 529.712 567.89
C 526.735 568.389 522.208 567.982 519.251 567.342
C 516.102 558.572 513.56 549.499 510.222 540.804
C 509.396 538.653 508.521 536.53 507.628 534.407
C 507.072 533.085 506.843 531.693 505.813 530.637
C 505.377 536.478 505.524 542.448 505.384 548.311
C 505.235 554.56 504.719 561.151 505.32 567.375
C 501.736 567.45 498.147 567.412 494.563 567.385
C 493.749 566.822 494.239 564.489 494.247 563.501
C 494.274 560.015 494.177 556.517 494.06 553.033
C 493.555 537.952 494.174 522.841 493.821 507.756 Z"
opacity="1" fill="rgb(223,126,57)" fill-rule="evenodd" />
<path d="
M 536.486 550.115
C 536.586 549.594 536.516 549.893 536.725 549.226
C 540.162 549.251 543.719 549.16 547.141 549.468
C 547.472 550.036 546.976 551.32 547.01 551.991
C 547.12 554.109 547.775 556.247 549.545 557.568
C 552.424 559.717 558.177 559.7 559.713 555.784
C 560.56 553.626 559.926 549.975 559.194 547.843
C 557.923 544.145 552.325 542.322 549.276 540.482
C 544.639 537.685 538.636 533.525 537.045 528.007
C 536.332 525.536 536.567 522.528 537.076 520.041
C 537.435 518.288 537.977 516.531 538.961 515.016
C 543.12 508.616 551.43 505.229 558.843 507.581
C 564.774 509.464 568.9 513.756 570.423 519.768
C 570.917 521.719 571.365 523.505 570.688 525.46
C 569.813 525.863 568.621 525.638 567.68 525.608
C 565.249 525.531 562.785 525.437 560.362 525.219
C 560.2 522.152 559.893 518.57 556.929 516.857
C 551.458 513.694 546.729 520.056 547.839 525.108
C 549.01 530.442 555.43 532.484 559.603 534.912
C 567.718 539.632 573.71 548.564 570.01 558.195
C 566.936 566.192 557.113 570.273 549.078 567.948
C 545.944 567.041 543.205 565.105 540.921 562.823
C 539.341 561.244 537.536 559.278 536.824 557.115
C 536.145 555.051 536.21 552.251 536.486 550.115 Z"
opacity="1" fill="rgb(224,125,54)" fill-rule="evenodd" />
<path d="
M 537.727 409.253
C 540.321 409.154 542.909 409.224 545.505 409.236
C 554.461 409.275 566.764 408.422 571.487 418.025
C 572.264 419.604 572.683 421.26 572.926 422.998
C 573.22 425.103 573.317 427.284 573.01 429.393
C 572.635 431.966 571.96 434.914 570.246 436.953
C 569.268 438.117 566.606 439.442 566.23 440.882
C 568.643 441.997 571.014 443.779 572.23 446.2
C 573.328 448.386 573.395 451.12 573.476 453.516
C 573.66 458.905 573.387 464.409 570.212 469.021
C 566.756 474.041 559.47 477.29 553.926 473.481
C 552.194 472.291 551.022 470.72 549.765 469.08
C 549.51 470.803 549.53 472.542 549.119 474.248
C 545.861 475.293 541.217 474.666 537.821 474.701
C 538.031 465.646 537.583 456.56 537.627 447.501
C 537.689 434.776 538.144 421.969 537.727 409.253 Z
M 549.485 420.117
C 549.045 425.332 549.202 431.049 549.647 436.261
C 552.806 436.026 556.993 437.416 559.697 435.141
C 563.498 431.944 563.192 422.284 558.892 419.61
C 556.603 418.186 552.417 418.785 549.865 418.878
C 549.581 419.272 549.587 419.652 549.485 420.117 Z
M 549.773 444.841
C 549.818 448.05 549.692 451.284 549.708 454.501
C 549.718 456.467 549.529 458.579 549.864 460.522
C 550.483 464.114 556.307 465.101 558.861 463.332
C 562.446 460.848 562.452 453.127 561.5 449.39
C 561.099 447.813 560.829 445.992 559.233 445.133
C 556.826 443.837 552.412 444.697 549.773 444.841 Z"
opacity="1" fill="rgb(224,128,57)" fill-rule="evenodd" />
<path d="
M 575.922 552.097
C 576.341 550.114 576.621 548.14 577.65 546.347
C 581.343 539.911 591.171 536.995 598.13 537.417
C 598.622 536.965 598.318 534.604 598.297 533.935
C 598.177 530.088 596.567 526.636 591.968 527.474
C 589.925 527.846 589.414 529.857 588.956 531.588
C 588.851 531.981 588.831 533.113 588.498 533.304
C 584.848 533.793 581.237 533.215 577.596 533.257
C 578.056 529.185 578.633 525.096 581.636 522.035
C 587.868 515.683 600.904 516.189 606.792 522.836
C 610.049 526.512 609.887 531.372 609.863 535.996
C 609.825 543.079 609.84 550.156 609.924 557.239
C 609.943 558.866 609.727 560.73 610.098 562.323
C 610.57 564.353 611.782 565.569 610.852 567.742
C 607.123 567.925 603.344 567.455 599.612 567.633
C 599.383 566.682 599.111 561.865 598.476 562.286
C 595.405 569.205 585.047 569.577 579.925 565.113
C 576.423 562.06 575.37 556.521 575.922 552.097 Z
M 587.871 551.573
C 587.649 552.892 587.521 554.306 588.188 555.525
C 589.945 558.736 594.531 559.121 596.937 556.454
C 599.407 553.716 598.311 548.841 598.374 545.44
C 597.803 544.841 595.899 545.298 595.135 545.389
C 591.307 545.842 588.968 547.914 587.871 551.573 Z"
opacity="1" fill="rgb(225,129,57)" fill-rule="evenodd" />
<path d="
M 579.422 438.089
C 581.259 431.484 587.487 425.262 594.529 424.484
C 597.601 424.144 600.369 424.874 603.263 425.792
C 605.906 426.631 608.347 427.54 610.279 429.632
C 614.775 434.501 614.477 439.411 614.401 445.547
C 614.371 447.963 614.657 450.392 614.605 452.795
C 607.001 454.084 598.857 453.415 591.165 453.654
C 590.901 454.577 591.212 455.565 591.393 456.5
C 591.825 458.716 592.219 461.261 593.284 463.271
C 594.765 464.325 599.037 464.258 600.744 463.726
C 602.037 462.805 602.773 461.194 603.37 459.763
C 606.518 459.944 611.813 460.009 614.448 461.862
C 614.677 464.862 611.962 468.701 609.834 470.566
C 603.179 476.399 593.558 476.816 586.289 471.817
C 578.639 466.555 579.424 457.608 579.278 449.452
C 579.211 445.687 578.792 441.827 579.422 438.089 Z
M 592.422 438.554
C 591.85 440.651 592.23 443.019 592.23 445.169
C 592.835 445.667 594.237 445.331 595.007 445.333
C 597.419 445.34 599.815 445.272 602.223 445.181
C 602.333 442.891 602.649 439.603 601.278 437.621
C 598.983 434.304 594.147 435.429 592.422 438.554 Z"
opacity="1" fill="rgb(226,126,54)" fill-rule="evenodd" />
<path d="
M 617.852 425.791
C 619.14 425.805 621.4 426.149 622.582 425.682
C 623.355 421.928 623.512 417.152 623.349 413.327
C 627.259 413.503 631.235 412.955 635.149 413.307
C 635.24 417.267 635.214 421.272 635.15 425.24
C 637.174 426.024 639.726 424.696 641.734 425.583
C 642.844 428.136 642.038 431.746 641.243 434.31
C 639.498 434.76 637.698 434.188 635.849 434.852
C 635.166 441.778 635.486 448.839 635.031 455.79
C 634.826 458.912 634.353 462.174 637.221 464.263
C 638.467 464.423 639.733 463.787 641.034 463.917
C 642.015 466.681 641.565 470.826 641.255 473.73
C 640.558 474.712 637.991 474.789 636.884 474.842
C 632.39 475.057 627.201 473.485 624.812 469.359
C 622.861 465.987 623.262 461.25 623.248 457.505
C 623.22 449.817 623.653 442.127 623.345 434.455
C 623.157 434.017 622.268 434.177 621.829 434.183
C 620.57 434.2 619.314 434.332 618.056 434.231
C 617.79 431.39 617.806 428.644 617.852 425.791 Z"
opacity="1" fill="rgb(227,128,52)" fill-rule="evenodd" />
<path d="
M 618.467 540.118
C 619.471 533.023 618.368 525.399 618.609 518.236
C 622.458 518.019 626.322 517.828 630.18 517.868
C 630.314 519.425 630.156 521.029 630.093 522.589
C 630.544 523.067 631.212 522.012 631.577 521.667
C 632.782 520.527 634.101 519.632 635.542 518.814
C 638.687 517.027 643.113 517.092 646.304 518.78
C 652.299 521.952 652.729 527.66 652.821 533.709
C 652.934 541.137 652.825 548.566 652.791 555.995
C 652.774 559.652 653.356 564 652.688 567.587
C 648.656 567.674 644.615 567.742 640.585 567.912
C 640.115 563.227 640.548 558.38 640.607 553.672
C 640.67 548.584 640.399 543.524 640.376 538.441
C 640.363 535.369 641.309 529.964 637.965 528.235
C 634.854 526.626 630.501 528.933 630.232 532.425
C 629.331 544.093 630.829 555.935 630.199 567.614
C 626.614 567.758 622.253 568.315 618.731 567.66
C 618.8 558.513 618.091 549.249 618.467 540.118 Z"
opacity="1" fill="rgb(225,130,58)" fill-rule="evenodd" />
<path d="
M 644.072 425.392
C 647.353 424.793 650.915 425.062 654.239 425.131
C 654.242 427.077 654.894 428.85 655.151 430.75
C 655.811 435.652 656.767 440.595 657.259 445.519
C 657.472 447.658 657.488 449.842 657.505 451.99
C 657.511 452.793 657.314 454.124 657.681 454.858
C 657.827 455.149 657.812 454.221 657.86 453.9
C 657.979 453.094 658.021 452.282 658.093 451.471
C 658.293 449.226 658.924 447.01 659.398 444.812
C 660.801 438.304 662.544 431.879 663.912 425.36
C 665.606 425.379 667.31 425.387 669.004 425.357
C 669.568 425.347 670.39 425.143 670.83 425.484
C 673.315 433.885 673.953 442.703 676.345 451.102
C 676.606 452.062 676.799 449.176 676.885 448.644
C 677.198 446.712 677.553 444.768 677.955 442.85
C 679.199 436.923 680.2 430.908 680.817 424.904
C 684.377 424.94 688.699 424.555 692.155 425.454
C 692.513 426.266 691.553 428.295 691.328 429.174
C 690.49 432.444 689.706 435.751 688.967 439.044
C 687.278 446.567 686.424 454.172 685.191 461.769
C 684.516 465.924 682.919 470.127 682.711 474.335
C 679.861 474.91 675.674 474.48 672.79 474.09
C 671.932 472.158 671.834 469.705 671.408 467.634
C 670.443 462.93 669.557 458.16 668.418 453.498
C 668.022 451.876 667.794 450.262 667.644 448.6
C 667.618 448.316 667.484 447.001 667.24 446.916
C 667.028 446.842 667.053 447.326 666.989 447.541
C 666.73 448.407 666.738 449.447 666.632 450.344
C 666.354 452.692 666.001 455.022 665.666 457.361
C 665.107 461.273 663.776 464.924 662.711 468.706
C 662.232 470.407 661.462 472.439 661.75 474.231
C 658.955 474.454 655.875 474.487 653.072 474.443
C 651.949 470.86 650.644 467.192 650.017 463.477
C 649.121 458.175 648.78 452.749 647.896 447.426
C 646.738 440.457 644.699 433.53 644.183 426.472
C 643.909 425.902 644.005 426.251 644.072 425.392 Z"
opacity="1" fill="rgb(226,125,51)" fill-rule="evenodd" />
<path d="
M 659.966 532.596
C 660.893 528.667 662.438 525.001 665.489 522.193
C 672.47 515.767 684.201 516.151 690.561 523.34
C 695.734 529.189 695.551 539.109 694.806 546.457
C 694.627 546.761 693.799 546.657 693.477 546.672
C 691.982 546.741 690.499 546.751 689.002 546.75
C 683.288 546.746 677.502 546.508 671.807 546.913
C 670.937 549.955 672.349 555.28 674.679 557.449
C 678.28 559.184 682.438 556.878 683.447 553.369
C 686.754 553.418 692.604 553.067 694.807 556.025
C 692.277 569.909 672.858 572.122 664.014 563.13
C 659.025 558.058 659.73 551.478 659.744 544.923
C 659.754 540.83 659.496 536.67 659.966 532.596 Z
M 671.871 533.051
C 671.672 534.672 671.791 536.393 671.894 538.018
C 674.461 537.801 677.12 537.952 679.709 537.917
C 680.604 537.905 681.941 538.152 682.782 537.814
C 682.537 535.442 683.271 532.593 682.103 530.369
C 680.986 528.24 677.109 527.367 675.069 528.631
C 673.75 529.449 672.502 531.662 671.871 533.051 Z"
opacity="1" fill="rgb(222,128,58)" fill-rule="evenodd" />
<path d="
M 694.391 439.59
C 695.332 435.554 696.433 431.716 699.62 428.805
C 706.784 422.261 719.228 423.329 725.614 430.646
C 731.031 436.853 729.026 445.946 729.788 453.388
C 724.489 454.189 718.849 453.739 713.499 453.787
C 711.316 453.807 708.289 453.315 706.377 454.445
C 706.872 456.682 706.232 460.045 707.36 461.993
C 707.789 462.732 708.659 463.224 709.382 463.63
C 713.544 465.97 717.276 463.463 719.679 459.866
C 720.74 459.764 722.189 460.539 723.232 460.83
C 725.178 461.373 727.196 461.551 729.201 461.732
C 729.384 463.123 727.756 466.17 727.048 467.463
C 722.104 476.499 710.143 477.153 702.192 472.203
C 700.785 471.327 699.392 470.353 698.279 469.114
C 693.442 463.735 694.372 456.055 694.546 449.405
C 694.633 446.092 693.904 442.911 694.391 439.59 Z
M 706.946 441.098
C 706.808 442.527 706.772 443.965 706.632 445.392
C 707.157 445.855 708.341 445.555 709 445.558
C 711.458 445.569 714.83 446.06 717.189 445.386
C 717.166 443.128 717.525 439.942 716.204 438.008
C 715.617 437.149 714.832 436.205 713.902 435.698
C 710.28 433.725 707.538 438.232 706.946 441.098 Z"
opacity="1" fill="rgb(226,128,56)" fill-rule="evenodd" />
<path d="
M 702.379 560.553
C 704.832 552.534 717.362 556.478 714.799 564.297
C 712.3 571.92 700.023 568.251 702.379 560.553 Z"
opacity="1" fill="rgb(221,125,57)" fill-rule="evenodd" />
<path d="
M 735.469 441.604
C 735.751 440.11 735.714 438.584 736.111 437.107
C 737.023 433.713 739.262 430.781 741.834 428.456
C 748.202 422.699 761.499 423.147 766.99 430.147
C 772.094 436.653 769.863 445.882 770.445 453.471
C 762.856 453.618 755.242 453.367 747.646 453.754
C 747.004 457.367 747.422 465.788 753.278 464.629
C 756.249 464.041 758.156 460.747 760.985 460.393
C 762.348 460.222 763.378 461.215 764.649 461.51
C 766.484 461.937 768.371 461.387 770.203 461.689
C 769.635 470.948 758.838 476.165 750.564 475.05
C 746.91 474.558 743.309 472.785 740.541 470.377
C 735.067 465.616 735.214 459.292 735.235 452.582
C 735.247 448.933 735.175 445.244 735.469 441.604 Z
M 747.439 442.603
C 747.379 443.698 747.46 444.54 748.229 445.36
C 749.039 445.92 749.929 445.836 750.877 445.832
C 753.186 445.822 755.974 446.117 758.232 445.703
C 758.159 443.686 758.868 439.946 757.741 438.174
C 757.344 437.552 756.696 437.019 756.085 436.619
C 751.309 433.49 748.395 438.303 747.439 442.603 Z"
opacity="1" fill="rgb(227,126,54)" fill-rule="evenodd" />
<path d="
M 777.469 445.616
C 778.377 439.228 778.303 431.715 777.762 425.289
C 780.841 425.269 783.922 425.306 787.003 425.271
C 787.739 425.263 789.381 424.914 789.885 425.445
C 789.863 426.871 789.59 428.162 789.341 429.557
C 789.269 430.137 791.33 428.41 791.732 428.073
C 793.151 426.882 794.586 425.366 796.371 424.748
C 801.163 423.088 806.669 426.082 809.632 429.736
C 812.589 433.384 811.925 438.743 811.956 443.123
C 812.014 451.328 812.455 459.54 812 467.754
C 811.886 469.817 812.191 471.897 811.899 473.945
C 807.993 474.173 804.018 474.058 800.101 474.154
C 800.077 463.718 800.044 453.304 799.825 442.87
C 799.748 439.206 799.253 435.631 794.767 435.855
C 794.007 435.893 793.271 436.076 792.593 436.426
C 789.125 438.216 790.018 443.028 789.948 446.398
C 789.753 455.66 790.28 465.066 789.681 474.302
C 786.07 475.261 781.407 474.096 777.689 474.136
C 777.963 464.644 776.868 455.111 777.469 445.616 Z"
opacity="1" fill="rgb(226,129,57)" fill-rule="evenodd" />
<path d="
M 834.656 425.351
C 837.636 425.226 840.606 425.191 843.592 425.189
C 844.535 425.188 846.249 424.806 847.004 425.288
C 850.485 434.619 852.209 444.889 853.846 454.681
C 853.88 454.963 854.12 452.406 854.195 451.765
C 854.453 449.576 854.928 447.412 855.36 445.251
C 856.257 440.762 857.336 436.313 858.305 431.84
C 858.717 429.938 858.789 427.29 859.711 425.591
C 863.84 425.372 868.004 425.528 872.126 425.251
C 872.087 426.827 871.224 428.695 870.883 430.266
C 870.177 433.518 869.711 436.804 868.953 440.045
C 866.485 450.598 863.83 461.263 860.608 471.612
C 858.841 477.29 857.226 484.713 852.624 488.825
C 848.449 492.555 844.794 491.468 839.748 491.581
C 839.846 488.472 839.696 485.366 839.642 482.258
C 841.002 481.83 842.48 482.155 843.78 481.699
C 846.073 479.935 848.817 476.729 848.679 473.632
C 848.604 471.947 847.271 470.42 846.721 468.867
C 845.692 465.964 845.152 462.81 844.376 459.828
C 842.453 452.442 840.4 445.115 838.329 437.767
C 837.164 433.633 836.238 429.352 834.656 425.351 Z"
opacity="1" fill="rgb(226,125,54)" fill-rule="evenodd" />
<path d="
M 873.969 444.107
C 874.238 439.123 875.239 433.916 878.662 430.091
C 885.475 422.477 899.411 423.194 906.292 430.369
C 908.221 432.38 910.326 435.742 910.773 438.54
C 911.191 441.159 910.872 443.943 910.939 446.588
C 911.045 450.81 911.147 454.99 910.856 459.207
C 910.625 462.548 909.636 466.3 907.457 468.919
C 901.318 476.298 888.198 477.472 880.841 471.486
C 874.101 466.002 874.47 457.926 874.449 450.063
C 874.443 448.043 873.86 446.13 873.969 444.107 Z
M 887.461 441.593
C 886.788 445.455 887.378 449.595 887.345 453.498
C 887.326 455.768 886.943 458.371 887.923 460.502
C 890.119 465.277 896.928 464.806 898.198 459.68
C 899.219 455.562 897.646 450.816 897.975 446.604
C 898.171 444.101 898.759 440.449 897.564 438.134
C 896.2 435.495 891.932 434.797 889.709 436.729
C 888.3 437.953 887.769 439.822 887.461 441.593 Z"
opacity="1" fill="rgb(227,126,55)" fill-rule="evenodd" />
<path d="
M 917.485 438.117
C 918.093 434.102 917.004 429.79 917.715 425.843
C 921.684 425.685 925.694 425.618 929.667 425.725
C 929.383 431.381 930.059 437.147 930.151 442.813
C 930.239 448.333 929.688 454.026 930.225 459.522
C 930.675 464.125 936.706 465.592 939.169 461.651
C 939.584 460.347 939.375 458.846 939.421 457.493
C 939.512 454.796 939.599 452.114 939.599 449.412
C 939.599 441.614 940.132 433.569 939.556 425.799
C 940.197 425.17 941.479 425.306 942.355 425.292
C 944.737 425.256 947.131 425.294 949.512 425.354
C 950.132 425.369 951.881 425.051 952.266 425.534
C 952.694 436.979 952.244 448.541 952.263 459.999
C 952.271 464.494 951.832 469.264 952.332 473.728
C 949.551 473.925 946.756 474.04 943.971 474.182
C 943.106 474.227 941.474 474.665 940.723 474.302
C 940.797 472.804 940.774 471.058 940.48 469.584
C 938.721 471.106 936.944 472.402 934.834 473.438
C 933.575 474.056 932.303 474.699 930.898 474.9
C 925.039 475.738 920.689 471.2 918.665 466.261
C 916.916 461.993 917.389 457.787 917.414 453.298
C 917.441 448.254 917.147 443.152 917.485 438.117 Z"
opacity="1" fill="rgb(225,127,57)" fill-rule="evenodd" />

</svg>