<svg xmlns="http://www.w3.org/2000/svg"
shape-rendering="geometricPrecision"
width="4000" height="4000" viewBox="0 0 1024 1024">
  <metadata>null</metadata>

<path d="
M 264.892 242.091
C 265.985 237.442 269.303 232.513 274.482 231.878
C 278.317 231.408 282.129 232.279 285.882 232.965
C 289.868 233.693 293.881 234.293 297.879 234.955
C 305.265 236.176 312.667 237.47 320.089 238.446
C 324.61 239.041 329.751 239.426 334.01 241.116
C 338.717 242.984 340.912 247.042 342.251 251.66
C 351.767 284.485 362.24 317.038 372.185 349.74
C 378.251 369.687 383.563 389.916 390.122 409.706
C 394.415 422.661 398.179 435.908 401.969 449.02
C 403 452.588 404.052 456.147 405.186 459.682
C 405.487 460.62 405.614 462.448 406.472 462.967
C 423.456 460.982 440.517 459.479 457.526 457.714
C 495.569 453.766 533.595 449.608 571.638 445.687
C 607.077 442.034 642.446 437.602 677.916 434.364
C 678.511 433.946 678.677 432.824 678.908 432.164
C 679.427 430.679 679.922 429.189 680.456 427.709
C 682.686 421.518 684.62 415.214 686.912 409.047
C 695.818 385.085 703.545 360.681 712.098 336.59
C 714.047 331.101 715.915 325.579 717.756 320.053
C 719.57 314.608 721.624 308.809 727.954 307.391
C 736.278 305.526 744.73 311.989 743.007 320.891
C 742.209 325.014 740.421 329.138 738.949 333.06
C 736.082 340.699 733.557 348.482 730.837 356.176
C 722.914 378.592 715.502 401.192 707.464 423.565
C 704.665 431.355 702.667 439.461 699.611 447.157
C 698.006 451.199 696.904 454.951 692.709 457.03
C 690.502 458.124 688.027 458.188 685.635 458.487
C 681.014 459.065 676.382 459.467 671.757 459.987
C 656.516 461.7 641.248 463.236 626.012 464.921
C 572.565 470.83 519.121 476.898 465.569 481.715
C 447.862 483.308 430.218 485.487 412.512 487.063
C 406.525 487.596 399.558 487.208 397.204 494.011
C 396.814 495.137 396.72 496.28 396.75 497.464
C 396.855 501.617 399.61 505.452 403.685 506.611
C 405.712 507.187 407.977 507.053 410.064 507.05
C 426.213 507.031 442.364 507.007 458.516 507.024
C 517.846 507.083 577.177 507.079 636.507 507.079
C 645.497 507.079 654.487 507.109 663.477 507.131
C 667.961 507.142 673.146 506.449 677.513 507.606
C 684.547 509.469 688.211 518.017 685.407 524.507
C 681.569 533.389 671.198 531.997 663.237 532.025
C 641.995 532.101 620.754 531.989 599.503 532.02
C 551.672 532.09 503.837 531.798 456.006 532.079
C 443.677 532.151 431.339 532.149 419.009 532.134
C 409.314 532.122 399.993 532.557 391.155 527.923
C 376.338 520.155 368.415 501.615 373.506 485.597
C 374.619 482.096 376.326 478.585 378.472 475.595
C 379.639 473.97 381.865 472.212 382.589 470.384
C 382.566 469.031 381.726 467.362 381.359 466.044
C 380.285 462.188 378.93 458.4 377.918 454.527
C 373.856 438.973 368.594 423.655 364.025 408.237
C 349.71 359.933 334.128 311.979 320.283 263.546
C 319.757 262.967 317.864 263.158 317.076 263.059
C 314.058 262.678 311.076 262.038 308.064 261.62
C 300.497 260.572 293 259.052 285.444 257.958
C 280.904 257.3 275.436 256.982 271.269 254.948
C 266.388 252.565 264.207 247.318 264.892 242.091 Z"
opacity="1" fill="rgb(225,116,39)" fill-rule="evenodd" />
<path d="
M 400.946 569.597
C 403.373 547.818 428.134 535.101 447.57 544.018
C 461.22 550.279 467.769 564.623 466.245 579.142
C 464.125 599.338 441.23 611.852 422.698 605.145
C 407.931 599.8 399.221 585.072 400.946 569.597 Z
M 420.378 571.066
C 419.286 575.691 420.681 581.659 424.555 584.663
C 432.007 590.443 444.191 587.401 446.537 577.822
C 448.092 571.474 445.582 564.416 439.39 561.579
C 431.528 557.977 422.317 562.861 420.378 571.066 Z"
opacity="1" fill="rgb(225,116,40)" fill-rule="evenodd" />
<path d="
M 603.971 571.105
C 604.272 566.78 605.262 562.711 607.303 558.867
C 615.248 543.904 634.182 536.565 649.91 543.555
C 653.912 545.333 657.602 548.017 660.63 551.171
C 663.504 554.163 665.791 557.72 667.381 561.556
C 669.364 566.339 669.913 571.835 669.553 576.979
C 669.28 580.876 668.241 584.36 666.756 587.948
C 660.809 602.317 642.847 610.073 628.13 605.708
C 618.297 602.791 609.97 595.514 606.106 585.967
C 604.227 581.321 603.624 576.083 603.971 571.105 Z
M 623.44 571.078
C 623.059 572.704 623.142 574.634 623.404 576.272
C 625.632 590.209 646.783 591.317 650.004 577.393
C 650.43 575.549 650.446 573.577 650.135 571.716
C 649.815 569.804 649.147 567.935 648.076 566.316
C 641.575 556.495 626.061 559.909 623.44 571.078 Z"
opacity="1" fill="rgb(224,116,41)" fill-rule="evenodd" />

</svg>