<svg xmlns="http://www.w3.org/2000/svg"
shape-rendering="geometricPrecision"
width="4000" height="4000" viewBox="0 0 1024 1024">
  <metadata>null</metadata>

<path d="
M 244.962 493.108
C 247.921 443.28 270.8 395.407 307.603 361.66
C 327.557 343.363 351.692 329.809 377.327 321.317
C 429.981 303.875 489.183 311.913 536.018 341.218
C 555.335 353.304 571.931 368.821 585.936 386.726
C 596.19 399.837 604.622 414.027 610.919 429.444
C 613.395 435.505 616.066 441.715 617.489 448.132
C 619.809 458.593 609.001 468 599.157 462.865
C 597.819 462.167 596.485 461.276 595.483 460.135
C 592.746 457.017 591.675 452.865 590.419 449.015
C 589.092 444.946 587.405 440.911 585.665 437.004
C 579.091 422.244 570.701 407.772 559.87 395.696
C 545.836 380.049 529.581 366.563 510.91 356.746
C 479.624 340.296 442.499 334.579 407.727 340.802
C 388.947 344.164 370.877 350.497 354.368 360.109
C 336.433 370.552 320.681 383.812 307.57 399.92
C 282.097 431.215 268.528 472.686 270.974 513.004
C 273.021 546.746 284.732 579.591 305.542 606.357
C 318.372 622.86 334.187 637.1 352.253 647.677
C 388.377 668.828 431.91 675.585 472.711 666.111
C 488.067 662.545 502.482 656.674 516.229 648.996
C 542.256 634.459 563.705 612.452 578.476 586.644
C 582.884 578.944 586.67 570.689 589.664 562.336
C 591.261 557.88 592.281 552.09 595.59 548.551
C 602.834 540.802 615.839 545.659 617.604 555.672
C 618.44 560.417 615.953 566.024 614.44 570.43
C 610.606 581.594 605.489 592.305 599.466 602.447
C 571.967 648.755 525.6 682.27 472.751 693.014
C 453.382 696.952 432.708 698.131 413.076 695.466
C 393.036 692.746 372.946 687.614 354.741 678.619
C 335.368 669.047 317.71 656.9 302.234 641.784
C 262.811 603.278 241.699 548.045 244.962 493.108 Z"
opacity="1" fill="rgb(230,113,35)" fill-rule="evenodd" />
<path d="
M 512.367 501.579
C 513.548 497.005 516.991 493.297 521.582 491.951
C 524.044 491.229 526.965 491.457 529.509 491.435
C 534.175 491.396 538.842 491.421 543.508 491.421
C 565.841 491.423 588.174 491.414 610.506 491.398
C 618.006 491.392 625.506 491.376 633.005 491.383
C 636.313 491.385 639.804 491.038 643.091 491.345
C 643.375 473.772 643.26 456.14 643.081 438.563
C 643.006 431.12 641.966 422.22 649.829 418.102
C 656.823 414.438 662.477 418.373 668.212 422.255
C 672.785 425.351 677.314 428.51 681.914 431.565
C 698.096 442.313 714.08 453.388 730.145 464.314
C 738.991 470.33 748.045 476.069 756.796 482.22
C 760.882 485.092 765.126 487.752 769.267 490.543
C 774.695 494.201 779.803 497.814 779.674 505.088
C 779.545 512.391 774.458 515.381 768.993 518.903
C 764.662 521.694 760.368 524.555 756.114 527.464
C 731.369 544.387 706.482 561.214 681.386 577.614
C 676.944 580.516 672.612 583.587 668.221 586.567
C 662.297 590.587 656.677 594.551 649.547 590.497
C 642.124 586.275 643.094 577.761 643.109 570.504
C 643.131 558.839 643.141 547.173 643.098 535.508
C 643.077 529.598 642.691 523.63 642.996 517.727
C 639.514 517.081 635.512 517.587 631.972 517.565
C 624.483 517.519 616.993 517.55 609.503 517.546
C 586.837 517.535 564.169 517.494 541.503 517.549
C 537.504 517.559 533.506 517.581 529.508 517.598
C 527.092 517.609 524.55 517.795 522.185 517.203
C 517.268 515.974 512.985 511.668 512.31 506.565
C 512.094 504.93 512.061 503.205 512.367 501.579 Z
M 668.927 454.769
C 669.251 461.643 668.936 468.617 668.923 475.502
C 668.899 487.669 668.958 499.836 668.955 512.003
C 668.952 520.191 668.852 528.387 668.971 536.574
C 669.058 542.525 669.428 548.589 668.961 554.529
C 671.021 553.584 673.038 551.822 674.912 550.526
C 678.008 548.386 681.174 546.319 684.327 544.264
C 695.641 536.889 706.824 529.228 717.922 521.53
C 723.425 517.713 728.898 513.833 734.459 510.101
C 737.041 508.368 740.397 506.796 742.465 504.445
C 741.941 503.185 739.31 502.03 738.191 501.269
C 734.522 498.774 730.868 496.257 727.182 493.785
C 713.37 484.523 699.677 475.08 685.86 465.82
C 681.627 462.984 677.406 460.135 673.195 457.266
C 672.33 456.676 669.835 454.333 668.927 454.769 Z"
opacity="1" fill="rgb(230,115,36)" fill-rule="evenodd" />

</svg>