<svg xmlns="http://www.w3.org/2000/svg"
shape-rendering="geometricPrecision"
width="4000" height="4000" viewBox="0 0 1024 1024">
  <metadata>null</metadata>

<path d="
M 295.481 431.106
C 296.695 423.939 296.769 416.686 298.445 409.543
C 303.848 386.515 313.137 364.852 327.844 346.15
C 361.064 303.905 415.794 281.991 469 288.483
C 497.872 292.006 525.826 304.528 548.186 322.993
C 567.644 339.061 583.285 360.263 592.66 383.711
C 608.652 423.709 607.062 469.702 588.655 508.547
C 583.992 518.388 578.459 527.958 571.677 536.499
C 569.628 539.08 567.665 541.85 565.297 544.148
C 565.429 544.819 566.196 545.252 566.646 545.753
C 567.722 546.954 568.885 548.079 570.016 549.23
C 574.413 553.704 578.415 558.666 583.063 562.882
C 585.039 560.965 587.22 559.269 589.27 557.414
C 594.598 552.595 600.496 547.112 608.281 550.528
C 613.392 552.77 616.544 557.707 620.314 561.573
C 627.276 568.712 634.04 576.042 640.784 583.386
C 659.659 603.939 678.572 624.466 697.654 644.825
C 702.857 650.376 708.083 655.908 713.285 661.466
C 718.335 666.862 723.286 671.749 726.22 678.685
C 732.501 693.536 727.593 711.11 716.16 721.872
C 712.29 725.515 708.087 728.812 703.206 730.987
C 691.617 736.152 677.918 735.172 667.089 728.699
C 661.708 725.482 657.448 720.3 653.284 715.705
C 648.493 710.417 643.584 705.184 638.651 700.026
C 620.417 680.962 602.367 661.607 584.628 642.086
C 577.305 634.027 569.672 626.217 562.129 618.365
C 558.291 614.37 552.991 610.116 550.932 604.857
C 547.72 596.656 554.613 590.858 559.869 585.916
C 561.44 584.438 562.878 582.8 564.485 581.367
C 564.471 580.826 563.784 580.461 563.416 580.091
C 562.366 579.035 561.327 577.973 560.306 576.889
C 557.197 573.59 554.05 570.334 551.039 566.948
C 549.679 565.418 547.872 562.871 545.954 562.067
C 496.869 601.973 424.967 605.992 370.658 574.49
C 350.161 562.601 332.689 545.512 319.86 525.648
C 311.174 512.2 304.531 497.656 300.487 482.156
C 296.192 465.693 294.108 448.114 295.481 431.106 Z
M 320.987 441.124
C 320.633 456.742 323.666 473.781 329.675 488.202
C 336.668 504.987 346.35 520.239 359.39 533.013
C 393.378 566.306 445.07 578.298 490.216 563.079
C 507.042 557.407 521.83 548.449 535.256 536.916
C 547.754 526.181 557.52 512.65 564.955 498.035
C 573.394 481.444 577.407 462.325 577.792 443.794
C 578.138 427.138 575.067 410.27 569.195 394.695
C 564.038 381.015 555.952 367.788 546.145 356.954
C 511.047 318.176 454.518 302.721 405.036 321.075
C 387.919 327.424 372.227 337.566 359.219 350.339
C 349.047 360.328 340.566 371.927 334.192 384.682
C 325.384 402.306 321.431 421.535 320.987 441.124 Z
M 582.008 600.027
C 581.883 600.181 581.757 600.335 581.632 600.489
C 581.586 601.271 582.462 601.793 583.016 602.352
C 584.583 603.936 586.143 605.528 587.709 607.113
C 593.779 613.26 599.761 619.522 605.619 625.871
C 625.969 647.928 646.212 670.076 666.689 692.013
C 673.177 698.964 680.15 710.592 691.247 707.212
C 692.802 706.738 694.298 705.955 695.649 705.055
C 697.265 703.979 698.679 702.499 699.693 700.847
C 700.47 699.58 701.092 698.281 701.481 696.843
C 703.645 688.84 698.484 683.866 693.422 678.582
C 690.406 675.434 687.452 672.206 684.499 668.997
C 657.254 639.393 629.908 609.848 602.376 580.52
C 595.133 586.36 588.726 593.594 582.008 600.027 Z"
opacity="1" fill="rgb(227,115,37)" fill-rule="evenodd" />

</svg>