<svg xmlns="http://www.w3.org/2000/svg"
shape-rendering="geometricPrecision"
width="4000" height="4000" viewBox="0 0 472 472">
  <metadata>null</metadata>

<path d="
M 21.89 236.457
C 27.981 233.395 34.253 230.677 40.401 227.731
C 43.35 226.318 46.416 224.119 49.525 223.171
C 58.578 234.532 68.489 245.34 77.947 256.372
C 81.331 260.319 84.665 264.324 87.968 268.341
C 89.622 270.352 91.121 272.816 93.117 274.491
C 90.597 274.825 87.59 274.347 85.001 274.337
C 79.009 274.315 73.016 274.392 67.024 274.419
C 59.681 274.451 52.339 274.572 44.997 274.596
C 41.653 274.607 38.098 274.96 34.778 274.582
C 33.63 270.265 31.625 266.089 30.2 261.847
C 27.395 253.492 24.68 245.074 21.511 236.85
C 21.637 236.719 21.764 236.588 21.89 236.457 Z"
opacity="1" fill="rgb(0,0,0)" fill-rule="evenodd" />
<path d="
M 24.286 309.283
C 27.845 309.176 31.565 308.828 35.114 309.165
C 35.43 324.084 35.09 339.063 35.093 353.995
C 35.094 358.859 35.044 363.723 35.04 368.588
C 35.039 370.644 35.438 373.447 34.907 375.4
C 32.437 375.35 29.968 375.321 27.497 375.341
C 26.52 375.349 25.02 375.653 24.188 375.157
C 23.811 368.145 24.217 361.028 24.22 354.004
C 24.227 339.097 24.27 324.189 24.286 309.283 Z"
opacity="1" fill="rgb(0,0,0)" fill-rule="evenodd" />
<path d="
M 28.947 201.589
C 35.739 178.272 42.761 155.001 50.04 131.831
C 52.019 125.532 54.081 119.262 56.06 112.964
C 56.852 110.443 57.301 106.38 58.934 104.319
C 66.104 108.013 72.466 113.455 79.142 117.946
C 91.822 126.475 104.472 135.206 116.83 144.193
C 120.308 146.722 123.869 149.136 127.347 151.669
C 128.906 152.804 130.394 154.398 132.087 155.303
C 140.601 151.405 148.627 146.06 156.938 141.705
C 175.16 132.154 193.011 121.838 211.159 112.136
C 218.535 108.193 225.836 103.231 233.641 100.2
C 234.688 100.386 235.691 101.445 236.613 101.99
C 238.641 103.189 240.623 104.471 242.63 105.704
C 243.482 106.227 244.717 106.755 245.371 107.515
C 238.373 111.647 230.679 114.914 223.475 118.721
C 210.267 125.702 197.164 132.931 184.024 140.044
C 175.435 144.693 166.87 149.393 158.341 154.149
C 153.447 156.877 148.429 160.429 143.246 162.482
C 143.757 163.975 147.155 165.373 148.453 166.229
C 153.095 169.286 157.75 172.335 162.351 175.457
C 176.493 185.054 190.461 194.886 204.506 204.622
C 208.809 207.606 213.175 210.498 217.461 213.507
C 219.195 214.724 221.503 217.297 223.52 217.824
C 226.423 217.596 229.821 215.471 232.568 214.448
C 238.686 212.17 244.844 209.999 250.984 207.779
C 274.226 199.374 296.961 189.582 320.375 181.625
C 325.791 179.785 331.154 177.73 336.542 175.804
C 338.763 175.011 341.82 173.28 344.139 173.213
C 367.562 185.221 390.987 197.299 414.567 209.014
C 422.868 213.138 431.097 217.415 439.39 221.557
C 443.218 223.469 447.096 225.924 451.172 227.254
C 451.518 227.959 450.661 229.39 450.438 230.097
C 449.692 232.451 449.13 234.869 448.362 237.216
C 445.688 245.395 443.091 253.699 440.84 262.005
C 440.238 264.227 439.553 266.43 438.932 268.65
C 438.736 269.353 438.6 270.99 438.033 271.445
C 434.934 271.812 431.626 271.578 428.5 271.628
C 421.499 271.741 414.497 271.706 407.495 271.747
C 387.861 271.862 368.227 272.214 348.594 272.415
C 338.837 272.515 328.78 271.968 319.064 272.815
C 318.656 272.487 318.512 271.393 318.366 270.851
C 317.945 269.29 317.553 267.719 317.116 266.162
C 315.548 260.575 314.264 254.757 312.203 249.331
C 312.688 248.73 313.331 249.16 314.033 249.185
C 315.701 249.245 317.388 249.456 319.052 249.643
C 326.219 250.447 333.405 251.061 340.575 251.825
C 369.78 254.935 399.008 258.593 428.302 260.742
C 429.762 259.036 430.074 255.18 430.736 253.021
C 432.691 246.64 435.27 240.118 436.593 233.582
C 434.626 232.274 432.337 231.391 430.232 230.33
C 425.708 228.05 421.181 225.775 416.684 223.441
C 402.73 216.199 388.686 209.134 374.648 202.057
C 367.27 198.338 359.94 194.515 352.568 190.781
C 349.617 189.285 346.214 186.571 342.994 185.854
C 337.976 186.81 333.103 189.304 328.296 190.98
C 317.532 194.732 306.988 199.07 296.293 203.005
C 285.547 206.959 274.776 211.232 263.866 214.707
C 258.115 216.539 251.701 218.37 246.347 221.157
C 246.517 221.794 248.185 221.475 248.675 221.449
C 250.803 221.332 253.227 221.877 255.363 222.086
C 265.002 223.026 274.651 223.905 284.272 225.024
C 313.023 228.367 341.862 230.955 370.626 234.246
C 379.099 235.216 387.592 236.011 396.052 237.102
C 399.324 237.523 403.751 237.264 406.792 238.529
C 406.391 241.056 405.554 243.519 404.897 245.987
C 404.622 247.021 404.559 248.483 403.942 249.361
C 362.01 244.628 319.963 240.599 278.012 235.947
C 265.218 234.529 252.379 233.115 239.568 231.908
C 235.554 231.529 231.533 231.175 227.514 230.862
C 225.78 230.727 223.55 231.076 221.899 230.602
C 219.464 229.902 216.977 227.656 214.913 226.228
C 210.347 223.069 205.781 219.905 201.217 216.743
C 166.707 192.838 131.842 169.493 97.584 145.232
C 89.491 139.501 81.412 133.703 73.13 128.248
C 71.134 126.933 69.186 125.538 67.281 124.097
C 66.864 123.782 65.693 122.718 65.258 123.078
C 63.623 129.997 61.222 136.753 59.061 143.524
C 55.683 154.115 52.407 164.744 49.351 175.434
C 48.136 179.686 46.921 183.951 45.567 188.163
C 45.295 189.011 43.967 192.312 44.346 192.927
C 47.808 192.971 51.454 193.933 54.9 194.4
C 63.235 195.53 71.55 196.799 79.885 197.918
C 104.056 201.163 128.332 204.496 152.402 208.411
C 156.109 209.015 159.861 209.624 163.588 210.087
C 165.014 210.265 167.091 210.054 168.379 210.695
C 169.371 211.189 170.178 212.234 170.989 212.972
C 173.09 214.882 175.168 216.822 177.218 218.786
C 178.664 220.172 180.165 221.522 181.526 222.991
C 181.854 223.344 182.85 224.153 182.856 224.64
C 167.518 221.713 151.852 220.022 136.366 217.821
C 114.831 214.76 93.331 211.488 71.792 208.487
C 61.271 207.021 50.723 205.71 40.231 204.038
C 37.562 203.613 34.901 203.147 32.229 202.738
C 31.264 202.59 29.549 202.641 28.771 202.043
C 28.83 201.891 28.888 201.74 28.947 201.589 Z"
opacity="1" fill="rgb(0,0,1)" fill-rule="evenodd" />
<path d="
M 46.311 309.242
C 50.302 308.597 54.475 309.191 58.501 308.86
C 60.44 312.918 61.411 317.627 62.577 321.956
C 64.029 327.351 65.56 332.722 66.99 338.124
C 67.933 341.684 68.182 346.402 69.956 349.631
C 70.205 348.261 69.923 346.845 69.899 345.467
C 69.843 342.315 69.842 339.145 69.857 335.992
C 69.901 327.112 70.224 318.131 69.828 309.261
C 72.937 308.663 76.445 308.977 79.611 308.921
C 80.241 310.333 79.657 312.945 79.657 314.493
C 79.66 318.994 79.67 323.494 79.67 327.995
C 79.67 343.758 79.958 359.577 79.667 375.331
C 75.729 375.081 71.737 375.524 67.788 375.339
C 66.16 371.998 65.551 367.725 64.59 364.132
C 62.708 357.098 60.575 350.112 58.916 343.02
C 58.302 340.394 57.336 337.741 56.864 335.109
C 56.724 334.33 56.698 332.247 55.91 331.909
C 55.431 341.207 55.896 350.681 55.866 360
C 55.856 363.332 55.808 366.664 55.775 369.996
C 55.758 371.657 55.49 373.639 55.82 375.263
C 52.737 375.316 49.645 375.197 46.566 375.374
C 45.829 374.717 46.306 372.03 46.325 371.004
C 46.402 367.003 46.363 363.003 46.349 359.002
C 46.29 342.416 46.288 325.828 46.311 309.242 Z"
opacity="1" fill="rgb(0,0,1)" fill-rule="evenodd" />
<path d="
M 59.088 217.69
C 95.733 222.369 132.341 227.484 168.953 232.47
C 178.561 233.778 188.207 234.813 197.814 236.126
C 204.146 236.992 210.797 238.601 217.186 238.721
C 217.195 240.251 216.336 242.099 215.925 243.571
C 215.178 246.245 214.644 248.987 213.938 251.675
C 212.513 257.103 211.295 262.593 209.938 268.038
C 209.487 269.846 209.291 271.814 208.545 273.532
C 207.248 274.36 203.555 273.692 201.997 273.695
C 196.33 273.705 190.663 273.716 184.996 273.752
C 166.327 273.871 147.669 274.146 128.999 274.228
C 123.832 274.251 118.666 274.267 113.499 274.279
C 111.714 274.284 108.875 274.853 107.276 274.048
C 98.472 264.866 90.89 254.428 82.459 244.899
C 77.923 239.773 73.619 234.438 69.068 229.328
C 65.727 225.577 61.834 221.895 59.088 217.69 Z"
opacity="1" fill="rgb(0,0,0)" fill-rule="evenodd" />
<path d="
M 60.418 182.576
C 62.348 173.721 65.694 164.963 68.295 156.278
C 69.305 152.909 70.275 149.529 71.363 146.183
C 71.844 144.703 72.097 143.168 72.964 141.849
C 74.443 141.959 75.978 143.942 77.169 144.803
C 81.083 147.632 85.137 150.25 89.129 152.964
C 104.625 163.499 120.123 174.119 135.399 184.969
C 139.837 188.121 144.375 191.152 148.893 194.187
C 149.885 194.853 153.153 196.142 153.506 197.279
C 149.53 197.21 145.394 195.609 141.419 195.104
C 129.572 193.599 117.787 191.653 105.947 190.106
C 97.295 188.976 88.64 187.552 79.969 186.6
C 75.786 186.141 71.646 185.396 67.473 184.875
C 65.072 184.576 62.523 184.409 60.206 183.717
C 60.363 182.939 60.292 183.32 60.418 182.576 Z
M 63.894 180.034
C 63.685 180.846 63.772 180.435 63.634 181.266
C 64.695 181.927 66.225 181.803 67.434 182.036
C 70.909 182.705 74.481 183.05 77.992 183.518
C 89.909 185.105 101.788 186.927 113.702 188.531
C 119.55 189.318 125.405 190.066 131.24 190.94
C 133.076 191.215 134.983 191.171 136.798 191.515
C 137.242 191.6 140.242 192.246 139.801 191.772
C 138.136 190.176 135.876 189.039 134.03 187.621
C 128.084 183.055 121.767 178.959 115.589 174.712
C 101.844 165.261 88.188 155.65 74.442 146.218
C 72.851 149.259 72.326 152.991 71.349 156.266
C 69 164.143 66.961 172.408 63.894 180.034 Z"
opacity="0.996" fill="rgb(13,9,7)" fill-rule="evenodd" />
<path d="
M 62.336 92.045
C 63.683 88.478 65.161 84.503 65.951 80.783
C 67.88 81.707 69.556 83.426 71.275 84.697
C 74.72 87.244 78.192 89.81 81.704 92.264
C 93.974 100.838 106.087 109.681 118.216 118.458
C 121.822 121.067 125.322 123.827 128.962 126.392
C 130.116 127.206 131.185 128.429 132.452 129.031
C 133.686 128.7 134.819 127.786 135.936 127.168
C 138.38 125.819 140.837 124.486 143.297 123.166
C 153.349 117.772 163.223 111.62 173.478 106.681
C 176.934 107.676 180.344 109.792 183.721 111.13
C 184.346 111.378 186.973 112.194 187.042 112.879
C 185.764 113.887 184.067 114.433 182.643 115.216
C 179.826 116.764 177.004 118.305 174.167 119.815
C 164.959 124.718 155.778 129.709 146.768 134.966
C 143.231 137.029 139.601 138.925 136.045 140.954
C 134.962 141.572 132.976 143.169 131.723 143.143
C 116.252 132.316 101.07 120.982 85.845 109.808
C 80.852 106.143 75.807 102.53 70.761 98.941
C 67.94 96.935 64.632 95.073 62.218 92.579
C 62.257 92.401 62.296 92.223 62.336 92.045 Z"
opacity="1" fill="rgb(0,1,1)" fill-rule="evenodd" />
<path d="
M 63.894 180.034
C 66.961 172.408 69 164.143 71.349 156.266
C 72.326 152.991 72.851 149.259 74.442 146.218
C 88.188 155.65 101.844 165.261 115.589 174.712
C 121.767 178.959 128.084 183.055 134.03 187.621
C 135.876 189.039 138.136 190.176 139.801 191.772
C 140.242 192.246 137.242 191.6 136.798 191.515
C 134.983 191.171 133.076 191.215 131.24 190.94
C 125.405 190.066 119.55 189.318 113.702 188.531
C 101.788 186.927 89.909 185.105 77.992 183.518
C 74.481 183.05 70.909 182.705 67.434 182.036
C 66.225 181.803 64.695 181.927 63.634 181.266
C 63.772 180.435 63.685 180.846 63.894 180.034 Z"
opacity="1" fill="rgb(227,68,72)" fill-rule="evenodd" />
<path d="
M 89.927 315.584
C 91.826 308.768 98.785 309.006 104.509 309.039
C 110.35 309.073 118.512 308.357 121.081 315.204
C 121.878 317.326 121.225 320.453 121.219 322.692
C 121.212 325.123 121.156 327.564 121.221 329.993
C 121.234 330.5 121.517 332.203 121.07 332.486
C 118.891 332.731 116.682 332.687 114.491 332.71
C 113.45 332.722 112.165 332.987 111.165 332.739
C 111.145 329.494 111.234 326.25 111.215 323.004
C 111.207 321.745 111.431 320.148 110.686 319.058
C 107.592 318.477 103.76 318.345 100.673 319.055
C 99.812 320.223 100.221 322.803 100.222 324.212
C 100.223 326.028 99.801 328.724 100.536 330.411
C 101.835 333.393 105.722 335.978 108.148 338.026
C 110.837 340.295 113.692 342.339 116.458 344.508
C 117.872 345.618 119.573 346.774 120.607 348.272
C 121.725 349.893 121.227 352.644 121.211 354.502
C 121.185 357.674 121.189 360.846 121.194 364.018
C 121.199 366.558 121.381 369.038 120.09 371.331
C 116.927 376.949 108.353 375.72 102.953 375.724
C 100.782 375.725 98.408 375.876 96.286 375.343
C 94.279 374.839 92.417 373.607 91.17 371.952
C 89.575 369.835 89.762 367.333 89.755 364.808
C 89.744 360.822 89.62 356.796 89.781 352.815
C 93.149 352.825 96.586 352.825 99.945 352.584
C 100.097 355.42 100.046 358.271 100.058 361.126
C 100.064 362.522 99.884 364.08 100.308 365.418
C 102.511 366.408 105.428 366.457 107.813 366.31
C 108.736 366.252 109.787 366.17 110.403 365.413
C 110.911 363.929 110.594 362.102 110.607 360.553
C 110.622 358.705 111.245 355.705 110.448 354.005
C 109.503 351.991 106.886 350.251 105.222 348.816
C 100.603 344.833 94.478 341.223 90.858 336.277
C 89.56 334.502 89.792 332.098 89.761 330.009
C 89.69 325.326 89.171 320.216 89.927 315.584 Z"
opacity="1" fill="rgb(0,0,1)" fill-rule="evenodd" />
<path d="
M 109.967 398.599
C 110.881 394.283 115.775 395.345 119.131 395.361
C 120.699 395.368 122.492 395.051 123.717 396.231
C 125.693 398.135 124.704 403.229 124.669 405.718
C 123.005 406.098 121.336 406.112 119.654 405.917
C 119.168 403.949 119.708 401.913 119.152 399.959
C 117.968 399.816 116.005 399.872 115.146 400.755
C 115.052 402.631 115.083 404.73 116.121 406.382
C 118.027 409.417 121.96 410.387 124.049 413.275
C 124.769 414.272 124.711 415.54 124.719 416.714
C 124.735 419.149 125.07 422.014 124.613 424.402
C 124.354 425.755 122.518 426.529 121.325 426.69
C 118.46 427.079 111.734 427.726 110.189 424.656
C 109.664 421.759 110.359 418.672 110.249 415.751
C 111.81 415.614 113.566 415.706 115.112 415.959
C 116.078 417.246 114.842 420.406 115.413 422.023
C 116.68 422.21 118.059 422.44 119.337 422.234
C 119.214 419.929 119.599 417.527 119.096 415.253
C 117.166 412.968 113.928 412.025 111.941 409.73
C 109.549 406.966 109.791 402.049 109.967 398.599 Z"
opacity="1" fill="rgb(231,77,74)" fill-rule="evenodd" />
<path d="
M 128.441 373.59
C 129.705 368.658 130.213 363.342 130.903 358.301
C 131.741 352.178 132.913 346.104 133.872 340
C 135.032 332.608 136.304 325.238 137.44 317.841
C 137.874 315.023 138.621 312.13 138.777 309.287
C 141.668 309.008 144.591 309.117 147.493 309.035
C 149.765 308.971 152.362 308.627 154.587 309.155
C 155.492 315.665 157.025 322.104 158.098 328.592
C 160.674 344.164 163.438 359.715 165.948 375.292
C 162.527 375.173 158.879 375.032 155.479 375.452
C 154.629 374.635 154.797 372.723 154.601 371.594
C 154.086 368.619 153.538 365.658 153.05 362.682
C 148.936 362.449 144.545 362.028 140.445 362.429
C 140.012 365.298 139.361 368.158 138.931 371.042
C 138.716 372.48 138.813 373.969 138.342 375.359
C 135.054 375.257 131.721 375.228 128.434 375.404
C 128.064 374.907 128.342 374.188 128.441 373.59 Z
M 141.952 351.096
C 141.862 351.816 141.818 352.524 141.692 353.242
C 144.799 353.974 148.482 353.013 151.662 353.254
C 150.206 345.007 148.945 336.692 147.751 328.392
C 147.467 326.42 146.984 324.496 146.846 322.5
C 146.798 321.8 146.965 320.512 146.354 320.085
C 146.14 325.132 145.015 330.255 144.284 335.261
C 143.52 340.481 143.122 345.957 141.952 351.096 Z"
opacity="1" fill="rgb(1,1,1)" fill-rule="evenodd" />
<path d="
M 136.959 395.332
C 138.67 395.332 140.385 395.304 142.1 395.309
C 142.738 401.419 142.209 407.843 142.312 413.996
C 142.378 417.96 143.069 422.715 142.326 426.607
C 140.492 426.615 138.622 426.453 136.794 426.559
C 136.83 416.165 137.139 405.723 136.959 395.332 Z"
opacity="1" fill="rgb(229,82,81)" fill-rule="evenodd" />
<path d="
M 156.431 396.615
C 156.561 395.987 156.532 396.356 156.4 395.507
C 157.808 395.165 161.647 394.651 162.835 395.446
C 165.011 401.815 165.467 408.874 167.061 415.407
C 167.537 415.565 167.45 413.986 167.444 413.703
C 167.407 411.968 167.352 410.233 167.336 408.498
C 167.295 404.193 167.936 399.533 167.358 395.277
C 168.976 395.315 170.598 395.16 172.216 395.302
C 172.151 405.605 171.824 416.11 172.295 426.4
C 170.356 426.673 167.939 426.816 166.012 426.501
C 164.436 421.378 163.726 415.944 162.631 410.705
C 162.374 409.476 161.984 408.31 161.686 407.101
C 161.61 406.792 161.541 406.154 161.112 406.322
C 160.9 409.822 161.236 413.476 161.297 416.99
C 161.353 420.143 161.082 423.36 161.297 426.503
C 161.288 426.661 160.263 426.592 160.171 426.592
C 158.843 426.591 157.511 426.622 156.185 426.545
C 156.908 416.637 155.337 406.501 156.431 396.615 Z"
opacity="1" fill="rgb(229,80,76)" fill-rule="evenodd" />
<path d="
M 166.476 163.403
C 170.917 160.647 175.656 158.386 180.202 155.809
C 197.187 146.184 214.611 137.351 231.619 127.77
C 237.262 124.592 243.049 121.69 248.755 118.628
C 250.514 117.685 253.369 115.482 255.444 115.832
C 255.106 120.148 252.681 124.316 251.066 128.271
C 247.757 136.371 244.072 144.506 241.264 152.791
C 236.201 165.328 231.654 178.071 226.452 190.551
C 225.217 193.516 224.141 196.566 222.994 199.566
C 222.782 200.122 222.404 202.098 221.772 202.248
C 209.041 192.859 195.793 183.888 182.571 175.202
C 177.091 171.603 171.126 168.073 166.05 163.943
C 166.192 163.763 166.334 163.583 166.476 163.403 Z
M 172.048 163.436
C 171.903 163.607 171.757 163.779 171.612 163.95
C 173.062 165.745 175.237 166.907 177.101 168.223
C 180.683 170.752 184.28 173.252 187.937 175.668
C 198.988 182.971 209.799 190.622 220.815 197.968
C 221.081 198.033 221.654 195.755 221.771 195.441
C 222.846 192.544 224.056 189.693 225.125 186.793
C 229.576 174.713 234.591 162.847 239.066 150.778
C 241.607 143.924 244.712 137.276 247.302 130.44
C 248.119 128.283 249.019 126.133 249.899 123.999
C 250.023 123.698 251.518 120.703 251.112 120.699
C 250.631 120.695 249.999 121.198 249.576 121.397
C 248.107 122.088 246.65 122.795 245.196 123.517
C 239.58 126.304 234.162 129.471 228.656 132.466
C 216.268 139.205 203.769 145.759 191.366 152.465
C 184.875 155.975 178.692 160.232 172.048 163.436 Z"
opacity="1" fill="rgb(9,10,7)" fill-rule="evenodd" />
<path d="
M 169.026 47.72
C 173.202 47.228 177.384 46.588 181.568 46.179
C 183.107 47.278 184.439 49.147 185.697 50.571
C 187.947 53.117 190.304 55.568 192.523 58.14
C 198.311 64.848 204.677 71.093 210.619 77.671
C 212.92 80.217 215.172 82.808 217.45 85.375
C 217.83 85.805 219.571 87.279 219.396 87.826
C 217.111 89.303 214.618 90.518 212.278 91.915
C 211.741 92.236 210.291 93.602 209.7 93.409
C 203.953 87.349 197.959 81.516 192.223 75.438
C 190.685 73.807 189.097 72.237 187.632 70.538
C 187.146 69.975 186.608 68.996 185.872 68.893
C 187.81 77.364 190.315 85.76 192.349 94.229
C 192.869 96.394 193.293 98.567 193.911 100.709
C 194.125 101.45 194.878 102.965 194.769 103.692
C 193.878 103.737 192.157 102.417 191.329 102.024
C 188.736 100.795 186.156 99.541 183.582 98.271
C 182.468 97.722 180.674 97.056 180.062 95.894
C 179.308 94.46 179.198 92.097 178.874 90.499
C 178.166 87.004 177.337 83.528 176.521 80.056
C 174.006 69.342 170.707 58.604 169.026 47.72 Z"
opacity="1" fill="rgb(0,0,1)" fill-rule="evenodd" />
<path d="
M 172.048 163.436
C 178.692 160.232 184.875 155.975 191.366 152.465
C 203.769 145.759 216.268 139.205 228.656 132.466
C 234.162 129.471 239.58 126.304 245.196 123.517
C 246.65 122.795 248.107 122.088 249.576 121.397
C 249.999 121.198 250.631 120.695 251.112 120.699
C 251.518 120.703 250.023 123.698 249.899 123.999
C 249.019 126.133 248.119 128.283 247.302 130.44
C 244.712 137.276 241.607 143.924 239.066 150.778
C 234.591 162.847 229.576 174.713 225.125 186.793
C 224.056 189.693 222.846 192.544 221.771 195.441
C 221.654 195.755 221.081 198.033 220.815 197.968
C 209.799 190.622 198.988 182.971 187.937 175.668
C 184.28 173.252 180.683 170.752 177.101 168.223
C 175.237 166.907 173.062 165.745 171.612 163.95
C 171.757 163.779 171.903 163.607 172.048 163.436 Z"
opacity="1" fill="rgb(229,69,71)" fill-rule="evenodd" />
<path d="
M 173.84 309.246
C 176.737 308.908 179.644 308.95 182.556 308.924
C 183.739 308.913 185.297 308.571 186.411 308.95
C 189.499 318.527 192.169 328.346 194.632 338.114
C 195.559 341.789 195.991 346.018 197.423 349.506
C 197.928 348.234 197.501 346.357 197.445 345.011
C 197.333 342.351 197.442 339.66 197.414 336.995
C 197.316 327.73 197.602 318.453 197.474 309.193
C 200.563 308.516 203.976 309.009 207.125 308.869
C 207.759 309.83 207.266 312.34 207.273 313.497
C 207.297 317.83 207.3 322.162 207.306 326.495
C 207.32 337.161 207.37 347.827 207.346 358.494
C 207.334 364.011 206.813 369.814 207.314 375.299
C 203.31 375.247 199.273 375.108 195.272 375.297
C 193.958 373.389 193.728 369.91 193.083 367.672
C 190.916 360.147 189.469 352.336 187.058 344.897
C 186.096 341.928 185.661 338.794 184.79 335.801
C 184.525 334.889 183.722 331.127 183.57 331.476
C 182.986 339.907 183.395 348.543 183.42 357.003
C 183.437 363.048 182.953 369.223 183.236 375.249
C 180.116 375.302 176.853 375.471 173.746 375.208
C 174.108 368.685 173.885 362.136 173.961 355.605
C 174.142 340.158 174.119 324.693 173.84 309.246 Z"
opacity="1" fill="rgb(0,0,1)" fill-rule="evenodd" />
<path d="
M 185.915 398.581
C 187.051 394.498 191.468 395.174 194.821 395.24
C 196.656 395.277 198.745 395.212 200.057 396.726
C 200.841 397.632 200.753 399.104 200.798 400.224
C 200.892 402.601 200.721 405.015 200.85 407.378
C 199.034 407.419 197.216 407.302 195.405 407.476
C 195.254 405.443 196.04 402.021 195.189 400.23
C 193.866 400.192 192.569 400.258 191.25 400.289
C 190.45 401.807 191.1 404.776 191.093 406.494
C 191.07 411.564 190.798 416.773 191.209 421.826
C 192.359 422.348 194.389 421.997 195.617 421.869
C 195.837 421.707 195.785 420.687 195.796 420.424
C 195.866 418.733 195.908 416.984 195.819 415.295
C 197.453 415.136 199.094 415.104 200.736 415.118
C 201.121 416.082 200.886 417.41 200.865 418.443
C 200.825 420.432 200.882 422.422 200.786 424.407
C 200.281 425.361 198.924 425.993 197.932 426.301
C 195.154 427.162 187.759 427.859 186.177 424.604
C 185.193 422.581 185.78 419.201 185.782 416.999
C 185.788 410.951 185.219 404.591 185.915 398.581 Z"
opacity="1" fill="rgb(227,76,76)" fill-rule="evenodd" />
<path d="
M 213.823 395.273
C 216.556 394.873 219.373 395.126 222.128 395.153
C 223.532 395.167 225.185 394.897 226.54 395.216
C 226.654 396.924 226.62 398.627 226.606 400.339
C 224.417 400.813 221.603 400.259 219.331 400.377
C 218.404 402.183 219.034 406.359 219.149 408.369
C 221.424 408.545 223.873 408.349 226.147 408.162
C 226.217 409.794 225.982 411.589 226.23 413.188
C 223.991 413.418 221.657 413.26 219.403 413.366
C 218.665 415.855 219.179 419.081 219.254 421.658
C 220.948 421.929 222.788 421.798 224.504 421.795
C 225.167 421.793 226.289 421.59 226.836 421.958
C 226.852 423.446 226.593 425.148 226.812 426.612
C 222.61 426.823 218.37 426.466 214.175 426.769
C 213.862 425.808 214.102 424.513 214.103 423.495
C 214.106 421.343 214.102 419.19 214.097 417.037
C 214.079 409.784 213.896 402.524 213.823 395.273 Z"
opacity="1" fill="rgb(225,80,75)" fill-rule="evenodd" />
<path d="
M 218.162 309.236
C 223.926 308.938 229.736 309.113 235.51 309.14
C 238.771 309.155 242.229 308.826 245.462 309.248
C 245.279 311.32 245.553 313.484 245.597 315.567
C 245.619 316.653 245.423 318.127 245.68 319.156
C 244.392 318.909 242.919 319.155 241.597 319.059
C 237.562 318.766 233.301 318.556 229.271 318.946
C 228.566 320.668 228.869 322.917 228.872 324.751
C 228.878 328.777 229.027 332.797 229.149 336.818
C 232.001 336.402 235.125 336.742 238.008 336.755
C 239.973 336.764 242.172 336.479 244.103 336.826
C 244.252 339.962 244.06 343.175 244.103 346.289
C 239.258 346.826 234.033 346.087 229.153 346.087
C 229.429 352.571 229.452 359.292 229.281 365.785
C 229.971 366.3 232.563 365.765 233.503 365.763
C 237.426 365.753 241.348 365.747 245.269 365.719
C 245.989 368.698 245.134 372.317 245.35 375.386
C 236.555 374.912 227.199 374.81 218.419 375.493
C 217.887 372.818 218.253 369.728 218.229 367.003
C 218.181 361.336 218.188 355.668 218.194 350
C 218.203 340.833 218.169 331.667 218.162 322.501
C 218.159 318.117 217.822 313.602 218.162 309.236 Z"
opacity="1" fill="rgb(0,1,1)" fill-rule="evenodd" />
<path d="
M 221.504 273.144
C 222.471 270.421 222.779 267.358 223.442 264.542
C 224.67 259.332 225.997 254.141 227.147 248.912
C 227.749 246.174 228.118 243.165 229.108 240.544
C 234.103 240.753 239.115 241.595 244.101 242.026
C 255.753 243.034 267.418 244.248 279.038 245.565
C 284.018 246.129 289.007 246.615 293.988 247.176
C 295.605 247.358 298.707 247.035 300.095 247.78
C 301.421 253.654 302.841 259.512 304.222 265.381
C 304.71 267.454 306.234 270.691 305.951 272.771
C 287.963 272.887 269.99 273.147 251.999 273.235
C 241.93 273.284 231.375 272.497 221.375 273.645
C 221.418 273.478 221.461 273.311 221.504 273.144 Z"
opacity="1" fill="rgb(0,0,0)" fill-rule="evenodd" />
<path d="
M 237.971 193.069
C 241.122 184.513 244.836 176.053 248.289 167.603
C 252.076 158.336 255.528 148.931 259.371 139.687
C 261.148 135.415 262.986 131.119 264.624 126.793
C 265.018 125.752 265.398 124.704 265.862 123.691
C 265.93 123.544 266.417 122.562 266.447 122.551
C 266.901 122.391 268.619 123.916 269.004 124.165
C 271.4 125.711 273.832 127.396 276.43 128.587
C 276.364 130.556 274.537 133.11 273.796 134.945
C 272.11 139.119 270.655 143.383 268.942 147.547
C 265.558 155.773 262.207 164.056 259.016 172.363
C 257.79 175.556 256.343 178.637 254.972 181.767
C 254.302 183.296 253.818 185.322 252.816 186.655
C 251.953 187.802 249.712 188.399 248.433 188.954
C 245.002 190.444 241.31 193.061 237.681 193.82
C 237.778 193.569 237.874 193.319 237.971 193.069 Z"
opacity="1" fill="rgb(0,0,1)" fill-rule="evenodd" />
<path d="
M 253.426 397.564
C 253.798 396.655 254.315 395.845 255.226 395.399
C 256.253 394.895 257.429 394.883 258.546 394.841
C 261.457 394.734 266.76 394.319 267.642 398.069
C 268.433 401.432 268.242 407.354 266.293 410.265
C 264.422 413.058 260.946 414.77 259.307 417.647
C 258.609 418.872 258.67 420.352 258.683 421.715
C 261.836 421.927 265.026 421.801 268.185 421.796
C 268.211 423.429 267.989 425.043 267.971 426.669
C 266.486 427.022 264.534 426.721 263.003 426.719
C 259.75 426.714 256.502 426.679 253.252 426.638
C 253.271 424.282 253.317 421.928 253.366 419.571
C 253.388 418.525 253.243 417.311 253.751 416.358
C 255.552 412.972 259.632 411.169 261.525 407.811
C 262.261 406.505 262.374 404.966 262.421 403.499
C 262.454 402.493 262.533 401.358 262.153 400.406
C 261.231 399.781 259.477 400.08 258.436 400.344
C 258.119 402.197 258.181 404.086 257.848 405.936
C 257.355 406.641 254.211 406.212 253.365 406.109
C 253.302 403.366 252.902 400.262 253.426 397.564 Z"
opacity="1" fill="rgb(229,78,78)" fill-rule="evenodd" />
<path d="
M 266.609 190.135
C 267.68 185.522 267.587 180.587 268.142 175.9
C 270.832 171.93 275.785 168.81 279.416 165.727
C 286.979 159.307 294.653 152.875 302.018 146.237
C 304.224 146.968 306.667 149.224 308.7 150.47
C 314.462 154.003 320.246 157.483 325.907 161.176
C 327.869 162.456 329.885 163.66 331.821 164.979
C 332.438 165.399 333.647 165.81 334.016 166.425
C 331.016 167.932 326.874 168.226 323.621 169.241
C 321.79 169.813 319.633 170.942 317.736 171.106
C 316.649 170.489 315.743 169.206 314.693 168.439
C 312.141 166.575 309.376 164.944 306.671 163.315
C 305.842 162.816 303.567 160.771 302.712 161.066
C 300.097 164.106 296.436 166.56 293.345 169.105
C 289.073 172.624 284.794 176.137 280.535 179.672
C 277.375 182.295 274.25 184.943 271.018 187.477
C 269.6 188.589 268.152 190.193 266.495 190.922
C 266.563 190.522 266.521 190.784 266.609 190.135 Z"
opacity="1" fill="rgb(0,1,1)" fill-rule="evenodd" />
<path d="
M 270.688 309.216
C 274.257 308.936 277.854 309.034 281.431 309
C 281.704 319.348 281.28 329.708 281.471 340.054
C 282.017 339.965 282.256 338.541 282.417 338.113
C 283.12 336.243 283.822 334.363 284.465 332.47
C 285.969 328.038 287.831 323.725 289.436 319.329
C 290.64 316.033 291.718 312.366 293.47 309.322
C 294.459 308.829 295.906 309.052 297.001 309.051
C 299.599 309.051 302.208 309.032 304.802 308.949
C 301.557 316.784 298.401 324.665 295.486 332.631
C 294.479 335.382 291.991 339.213 292.079 342.144
C 292.171 345.2 294.589 348.927 295.729 351.741
C 297.843 356.96 299.961 362.184 302.112 367.384
C 303.185 369.98 304.581 372.635 305.339 375.34
C 301.545 375.012 297.566 375.266 293.758 375.363
C 290.645 368.886 288.121 361.815 285.562 355.092
C 284.697 352.818 283.832 350.543 282.962 348.271
C 282.694 347.571 281.92 344.855 281.58 345.287
C 280.958 352.339 281.58 359.693 281.582 366.784
C 281.582 369.432 281.97 372.64 281.397 375.226
C 279.113 375.33 276.784 375.212 274.496 375.204
C 273.407 375.2 271.942 375.454 270.903 375.181
C 270.532 353.206 271.347 331.186 270.688 309.216 Z"
opacity="1" fill="rgb(0,0,1)" fill-rule="evenodd" />
<path d="
M 280.953 398.585
C 282.189 394.473 286.524 395.108 290.016 395.1
C 292.056 395.095 294.455 395.175 295.588 397.204
C 296.673 399.149 296.106 402.355 296.125 404.502
C 296.161 408.758 296.21 413.015 296.262 417.271
C 296.29 419.607 296.631 422.232 296.072 424.517
C 294.287 427.178 290.912 426.72 288.141 426.716
C 286.734 426.714 285.203 426.834 283.837 426.428
C 282.73 426.099 281.607 425.188 281.111 424.137
C 280.133 422.066 280.742 418.743 280.743 416.502
C 280.744 410.604 280.294 404.451 280.953 398.585 Z
M 285.984 403.615
C 285.812 407.161 285.888 410.725 285.826 414.275
C 285.786 416.595 285.517 419.181 286.074 421.452
C 287.082 422.403 289.519 422.539 290.673 421.717
C 291.161 419.461 290.869 416.897 290.88 414.597
C 290.903 409.752 290.86 404.905 290.846 400.065
C 289.361 399.79 287.906 399.815 286.409 399.969
C 285.803 400.786 286.117 402.604 285.984 403.615 Z"
opacity="1" fill="rgb(228,75,79)" fill-rule="evenodd" />
<path d="
M 297.556 214.343
C 298.931 214.185 300.317 213.291 301.583 212.736
C 304.175 211.599 306.827 210.595 309.444 209.519
C 316.851 206.473 324.389 203.707 331.883 200.884
C 334.586 199.866 338.095 197.62 340.992 197.441
C 341.772 197.392 342.509 198.083 343.143 198.466
C 344.982 199.577 346.818 200.699 348.697 201.74
C 355.788 205.671 362.936 209.541 370.089 213.359
C 375.134 216.052 380.029 218.977 385.017 221.76
C 386.18 222.408 387.346 223.034 388.58 223.535
C 388.896 223.664 389.717 223.906 389.768 224.313
C 388.083 224.669 385.815 223.873 384.089 223.671
C 379.601 223.147 375.118 222.619 370.617 222.224
C 353.844 220.752 337.089 218.681 320.369 216.706
C 314.924 216.063 309.456 215.571 304.009 214.932
C 302.657 214.774 301.267 214.507 299.908 214.541
C 299.119 214.561 298.256 214.801 297.556 214.343 Z
M 308.94 213.001
C 310.375 213.583 312.552 213.099 314.103 213.235
C 317.404 213.524 320.725 214.051 324.022 214.426
C 333.756 215.532 343.529 216.331 353.24 217.665
C 358.299 218.36 363.389 218.857 368.475 219.282
C 370.155 219.422 371.862 219.543 373.525 219.824
C 373.839 219.877 376.354 220.321 375.741 219.853
C 368.015 214.727 359.354 210.685 351.23 206.215
C 348.802 204.879 346.417 203.463 343.964 202.17
C 342.93 201.624 341.758 200.653 340.593 200.477
C 337.79 200.994 334.995 202.665 332.33 203.686
C 326.631 205.869 320.909 207.986 315.231 210.224
C 313.269 210.997 310.918 212.602 308.94 213.001 Z"
opacity="1" fill="rgb(13,9,8)" fill-rule="evenodd" />
<path d="
M 308.94 213.001
C 310.918 212.602 313.269 210.997 315.231 210.224
C 320.909 207.986 326.631 205.869 332.33 203.686
C 334.995 202.665 337.79 200.994 340.593 200.477
C 341.758 200.653 342.93 201.624 343.964 202.17
C 346.417 203.463 348.802 204.879 351.23 206.215
C 359.354 210.685 368.015 214.727 375.741 219.853
C 376.354 220.321 373.839 219.877 373.525 219.824
C 371.862 219.543 370.155 219.422 368.475 219.282
C 363.389 218.857 358.299 218.36 353.24 217.665
C 343.529 216.331 333.756 215.532 324.022 214.426
C 320.725 214.051 317.404 213.524 314.103 213.235
C 312.552 213.099 310.375 213.583 308.94 213.001 Z"
opacity="1" fill="rgb(230,66,68)" fill-rule="evenodd" />
<path d="
M 308.955 398.084
C 310.178 394.253 315.949 395.102 319.198 395.299
C 320.714 395.39 322.78 395.883 323.189 397.604
C 324.048 401.219 324.188 407.108 322.083 410.302
C 320.2 413.159 316.675 414.639 314.906 417.547
C 314.164 418.768 314.35 420.622 314.419 421.988
C 317.466 421.717 320.567 421.867 323.626 421.712
C 323.621 423.353 323.458 424.973 323.433 426.612
C 322.292 427.054 320.249 426.676 319.01 426.673
C 315.702 426.667 312.422 426.637 309.122 426.467
C 308.615 424.215 309.106 421.517 309.179 419.215
C 309.221 417.909 309.155 416.602 309.944 415.491
C 313.306 410.755 320.585 407.305 317.8 400.224
C 316.413 399.997 315.153 400.088 313.773 400.273
C 313.483 402.115 313.203 404.136 313.353 406
C 313.1 406.538 309.739 406.183 309.104 406.196
C 308.868 403.542 308.667 400.743 308.955 398.084 Z"
opacity="1" fill="rgb(226,77,78)" fill-rule="evenodd" />
<path d="
M 312.714 309.256
C 316.207 309.067 319.748 309.033 323.245 309.166
C 323.874 310.894 323.352 313.647 323.342 315.497
C 323.319 319.996 323.314 324.496 323.314 328.995
C 323.314 339.495 323.323 349.994 323.307 360.494
C 323.3 365.319 323.875 370.485 323.369 375.273
C 319.93 375.335 316.492 375.235 313.055 375.418
C 312.231 374.716 312.661 372.252 312.653 371.189
C 312.625 367.127 312.661 363.064 312.662 359.002
C 312.666 342.422 312.569 325.834 312.714 309.256 Z"
opacity="1" fill="rgb(0,0,0)" fill-rule="evenodd" />
<path d="
M 334.416 315.089
C 334.978 312.555 336.959 310.614 339.362 309.71
C 341.732 308.818 344.521 309.006 347.009 309.013
C 352.032 309.026 358.196 307.683 362.321 311.282
C 365.963 314.46 365.42 318.55 365.44 322.958
C 365.456 326.552 365.715 330.18 365.567 333.766
C 364.828 334.084 363.323 333.762 362.497 333.76
C 360.108 333.756 357.527 334.083 355.162 333.83
C 355.194 330.249 355.365 326.426 354.97 322.865
C 354.821 321.521 355.023 320.205 354.499 318.922
C 351.942 317.857 347.508 318.302 344.847 318.866
C 343.797 322.004 344.66 326.683 344.667 329.996
C 344.685 337.996 344.694 345.996 344.676 353.996
C 344.67 356.662 344.678 359.329 344.652 361.995
C 344.641 363.189 344.416 364.829 345.106 365.864
C 347.742 366.597 352.154 366.631 354.738 365.66
C 355.316 364.653 354.941 362.643 354.939 361.499
C 354.931 358.11 354.871 354.719 354.97 351.332
C 358.097 350.962 362.383 350.709 365.475 351.314
C 365.233 355.443 365.604 359.7 365.63 363.845
C 365.648 366.621 365.783 369.453 364.103 371.824
C 362.884 373.545 360.736 374.713 358.705 375.175
C 356.577 375.659 354.215 375.608 352.043 375.613
C 346.811 375.626 338.458 376.973 335.316 371.51
C 334.328 369.791 334.388 367.58 334.369 365.654
C 334.335 362.269 334.369 358.883 334.364 355.497
C 334.35 346.665 334.342 337.833 334.338 329
C 334.337 324.438 333.903 319.62 334.416 315.089 Z"
opacity="1" fill="rgb(0,0,0)" fill-rule="evenodd" />
<path d="
M 335.938 396.119
C 336.002 395.461 335.986 395.834 335.952 394.999
C 340.503 394.462 345.596 394.707 350.179 394.874
C 350.091 396.03 350.288 397.257 350.236 398.434
C 350.222 398.765 350.304 399.744 349.976 399.903
C 346.994 399.819 343.863 399.824 340.875 399.981
C 340.33 402.033 340.685 404.552 340.685 406.667
C 341.507 407.043 342.883 406.502 343.797 406.423
C 346.326 406.203 348.558 406.708 350.235 408.761
C 351.283 410.044 351.028 412.025 351.004 413.582
C 350.946 417.239 352.357 423.444 348.977 425.874
C 347.981 426.59 346.655 426.65 345.468 426.667
C 342.559 426.709 337.229 427.358 335.696 424.137
C 335.286 421.41 335.899 418.492 335.811 415.742
C 337.439 415.829 339.079 415.785 340.709 415.745
C 341.327 417.568 340.723 419.948 341.149 421.886
C 342.472 422.362 343.847 422.152 345.2 421.904
C 345.765 421.364 345.582 420.211 345.584 419.484
C 345.59 417.534 345.588 415.577 345.673 413.629
C 345.709 412.808 345.857 411.732 345.47 410.993
C 343.521 410.24 342.193 410.731 340.62 411.934
C 339.302 412.399 337.545 412.216 336.201 411.937
C 335.609 406.894 335.517 401.179 335.938 396.119 Z"
opacity="1" fill="rgb(229,77,73)" fill-rule="evenodd" />
<path d="
M 375.425 309.385
C 376.098 308.826 377.59 309.009 378.454 309.024
C 381.13 309.07 383.807 309.113 386.483 309.11
C 386.488 319.385 386.435 329.759 386.575 340.03
C 386.602 340.043 386.629 340.057 386.656 340.071
C 388.217 337.939 388.68 334.96 389.608 332.515
C 391.806 326.726 393.962 320.883 396.326 315.16
C 397.116 313.245 397.542 310.615 398.878 309.026
C 402.464 308.894 406.072 309.052 409.659 308.907
C 409.826 309.08 409.112 310.476 409.02 310.692
C 408.191 312.635 407.459 314.616 406.639 316.562
C 404.574 321.461 402.982 326.583 401.058 331.543
C 399.838 334.688 398.071 337.879 397.292 341.165
C 397.013 342.345 397.677 343.78 398.113 344.857
C 399.051 347.172 400.015 349.474 401.001 351.769
C 403.142 356.754 405.047 361.873 406.978 366.942
C 408.037 369.722 409.629 372.7 410.231 375.609
C 406.649 375.85 402.824 375.622 399.242 375.403
C 395.686 368.948 393.5 361.457 390.685 354.648
C 389.745 352.374 388.706 350.113 387.925 347.779
C 387.729 347.192 387.199 344.494 386.735 344.236
C 386.526 344.119 386.64 344.706 386.593 344.941
C 386.338 354.996 387.563 365.332 386.667 375.372
C 385.796 375.672 384.437 375.439 383.505 375.436
C 380.986 375.428 378.447 375.301 375.932 375.466
C 375.243 374.635 375.732 372.101 375.726 371.004
C 375.702 366.837 375.665 362.67 375.657 358.504
C 375.63 342.152 376.116 325.724 375.425 309.385 Z"
opacity="1" fill="rgb(1,1,1)" fill-rule="evenodd" />
<path d="
M 416.42 315.591
C 418.208 307.529 428.439 309.098 434.606 309.106
C 438.491 309.111 442.167 308.941 445.185 311.785
C 450.413 316.711 447.777 325.797 448.155 332.256
C 447.3 332.517 446.088 332.303 445.194 332.334
C 442.78 332.418 440.363 332.364 437.952 332.453
C 437.463 329.414 437.81 326.086 437.787 323.009
C 437.779 321.801 438.051 320.1 437.311 319.069
C 434.817 318.466 429.617 317.936 427.214 319.055
C 426.644 320.764 426.813 322.568 426.855 324.348
C 426.902 326.294 426.601 329.205 427.367 331.011
C 428.17 332.902 430.748 334.478 432.299 335.718
C 435.602 338.357 439.001 340.868 442.33 343.478
C 443.951 344.748 446.011 346.053 447.268 347.705
C 448.353 349.132 447.864 351.805 447.865 353.502
C 447.866 357.017 447.854 360.533 447.852 364.049
C 447.851 365.874 448.128 367.959 447.603 369.73
C 446.826 372.351 444.778 374.2 442.242 375.112
C 439.81 375.986 437.046 375.758 434.51 375.748
C 429.234 375.727 423.26 376.565 418.864 373.053
C 414.839 369.837 416.122 363.089 416.122 358.505
C 416.122 356.678 415.797 354.522 416.221 352.754
C 419.573 352.803 422.936 352.59 426.292 352.61
C 426.769 355.685 426.592 359.027 426.624 362.139
C 426.635 363.262 426.377 364.941 427.088 365.872
C 429.243 366.442 431.716 366.303 433.937 366.276
C 434.936 366.264 436.188 366.3 436.991 365.63
C 437.771 364.185 437.327 361.84 437.343 360.236
C 437.364 358.107 437.854 355.064 436.92 353.085
C 435.984 351.104 433.499 349.806 431.854 348.481
C 427.12 344.67 420.866 341.173 417.243 336.233
C 415.94 334.456 416.351 332.096 416.325 330.005
C 416.267 325.31 415.79 320.246 416.42 315.591 Z"
opacity="1" fill="rgb(0,0,1)" fill-rule="evenodd" />

</svg>