<svg xmlns="http://www.w3.org/2000/svg"
shape-rendering="geometricPrecision"
width="4000" height="4000" viewBox="0 0 1024 1024">
  <metadata>null</metadata>

<path d="
M 57.752 473.452
C 57.581 476.844 56.666 480.189 56.074 483.52
C 54.475 492.516 52.753 501.519 51.161 510.519
C 52.089 511.177 53.605 509.832 54.488 509.345
C 57.736 507.558 61.171 505.967 64.544 504.43
C 74.603 499.846 84.63 495.065 94.525 490.122
C 97.331 488.721 100.181 487.412 102.995 486.029
C 104.312 485.383 106.013 484.049 107.502 484.099
C 110.351 487.848 113.827 491.323 116.942 494.872
C 122.167 500.827 127.265 506.907 132.459 512.891
C 146.459 529.022 160.076 545.472 173.883 561.766
C 183.215 572.778 193.042 583.521 201.875 594.934
C 202.441 595.027 202.923 595.056 203.49 594.967
C 203.209 595.198 203.068 595.647 202.76 595.832
C 202.088 596.235 201.236 595.663 200.544 595.621
C 198.495 595.499 196.401 595.442 194.348 595.405
C 186.231 595.258 178.114 595.317 169.996 595.339
C 148.668 595.396 127.335 595.555 106.002 595.711
C 99.168 595.761 92.333 595.73 85.499 595.752
C 82.264 595.762 78.756 595.393 75.554 595.829
C 74.328 594.467 73.968 591.366 73.331 589.628
C 71.389 584.325 69.511 578.988 67.647 573.655
C 62.754 559.648 57.65 545.713 53.017 531.621
C 51.627 527.393 50.103 523.207 48.781 518.958
C 48.207 517.116 47.364 515.097 47.254 513.162
C 47.399 512.439 47.899 511.962 48.095 511.282
C 48.959 508.287 49.483 505.226 50.421 502.231
C 51.301 499.417 51.532 496.353 52.423 493.552
C 52.853 492.201 53.862 490.78 54.011 489.374
C 54.273 486.904 54.407 484.397 55.132 482.004
C 55.364 481.235 56.352 480.634 56.486 479.92
C 56.583 479.399 56.179 478.899 56.173 478.383
C 56.162 477.517 56.97 477.074 57.214 476.316
C 57.511 475.395 57.114 474.17 57.752 473.452 Z"
opacity="1" fill="rgb(254,254,255)" fill-rule="evenodd" />
<path d="
M 57.752 473.452
C 58.336 464.785 60.791 456.144 61.738 447.503
C 61.96 445.477 62.194 443.446 62.539 441.439
C 62.712 440.432 62.354 439.604 63.53 439.323
C 71.993 439.853 80.479 441.751 88.871 442.953
C 106.817 445.524 124.726 448.304 142.678 450.841
C 190.796 457.64 238.922 464.417 287.053 471.144
C 311.42 474.549 335.751 478.183 360.127 481.503
C 368.261 482.611 376.385 483.885 384.531 484.891
C 387.353 485.24 390.149 485.794 392.965 486.164
C 393.758 486.268 394.572 486.351 395.356 486.506
C 395.548 486.543 396.865 486.719 396.838 486.668
C 389.659 479.877 382.823 472.661 375.658 465.829
C 373.369 463.646 371.082 461.481 368.698 459.403
C 367.825 458.642 366.989 457.512 365.934 457.006
C 364.147 456.148 361.043 456.399 359.054 456.145
C 354.133 455.517 349.162 454.856 344.265 454.068
C 325.308 451.015 306.179 448.806 287.165 446.162
C 240.404 439.66 193.723 432.631 146.959 426.113
C 134.319 424.352 121.731 422.042 109.043 420.636
C 104.685 420.153 100.376 419.129 95.999 418.854
C 95.649 418.578 96.332 416.952 96.481 416.534
C 97.215 414.475 97.851 412.365 98.496 410.275
C 101.302 401.191 104.306 392.097 106.727 382.903
C 113.485 357.25 121.727 331.832 130.065 306.659
C 134.417 293.518 137.829 280.086 141.969 266.887
C 142.878 266.272 145.674 269.016 146.524 269.64
C 150.837 272.806 155.148 276.075 159.636 278.989
C 178.802 291.433 197.155 305.124 215.916 318.157
C 235.787 331.96 255.154 346.475 275.114 360.151
C 292.317 371.939 310.34 382.609 327.345 394.681
C 369.166 424.37 411.779 453.048 454.185 481.9
C 460.327 486.079 466.344 490.443 472.53 494.556
C 475.053 496.233 477.858 499.029 480.738 500.001
C 481.819 500.366 483.132 500.068 484.243 500.054
C 486.232 500.03 488.249 500.162 490.232 500.312
C 497.607 500.867 505.03 501.626 512.379 502.465
C 538.509 505.449 564.775 507.288 590.886 510.456
C 621.503 514.17 652.294 516.905 682.983 519.982
C 714.192 523.112 745.328 526.964 776.536 530.074
C 801.407 532.553 826.257 535.248 851.106 537.965
C 859.514 538.885 868.154 539.152 876.482 540.626
C 878.609 535.036 879.588 528.903 881.445 523.205
C 881.912 521.772 883.385 518.215 882.7 516.788
C 879.849 516.021 876.678 515.992 873.749 515.606
C 868.123 514.864 862.492 514.101 856.855 513.447
C 836.934 511.134 816.973 509.328 797.046 507.127
C 769.204 504.052 741.381 500.794 713.522 497.912
C 697.21 496.225 680.816 495.081 664.535 493.148
C 650.172 491.442 635.668 489.704 621.248 488.556
C 599.29 486.806 577.342 484.253 555.437 481.891
C 550.153 481.321 544.848 481.068 539.572 480.498
C 538.4 480.371 535.225 480.564 534.692 479.473
C 539.084 476.592 545.312 475.676 550.204 473.754
C 562.744 468.826 575.658 464.809 588.308 460.173
C 622.618 447.597 656.965 435.177 691.158 422.283
C 704.206 417.363 717.376 412.704 730.57 408.19
C 733.842 407.07 737.072 405.83 740.35 404.727
C 741.593 404.309 743.28 403.291 744.61 403.7
C 746.009 404.129 747.344 405.269 748.653 405.94
C 752.401 407.86 756.115 409.845 759.845 411.799
C 769.716 416.972 779.734 421.873 789.685 426.891
C 824.442 444.421 859.296 461.777 893.942 479.524
C 905.939 485.67 918.032 491.617 930.096 497.634
C 933.749 499.456 937.407 501.269 941.041 503.13
C 943.079 504.173 945.198 505.819 947.361 506.522
C 946.309 510.911 944.744 515.208 943.435 519.532
C 940.334 529.777 937.235 540.024 934.105 550.254
C 932.948 554.036 931.901 557.883 930.641 561.636
C 930.359 562.477 930.216 564.91 929.536 565.398
C 917.847 565.02 906.097 563.247 894.473 562.003
C 880.669 560.525 866.81 559.482 853.004 557.958
C 816.566 553.937 779.895 551.402 743.537 546.635
C 730.575 544.936 717.509 544.21 704.534 542.627
C 695.589 541.536 686.234 540.005 677.223 539.863
C 676.844 540.882 677.877 542.633 678.202 543.67
C 679.073 546.45 679.835 549.319 680.647 552.123
C 683.359 561.488 686.054 570.849 688.754 580.219
C 689.705 583.52 690.092 589.154 692.476 591.555
C 692.073 591.619 691.802 591.706 691.444 591.904
C 690.884 590.608 686.7 591.331 685.501 591.322
C 679.18 591.276 672.81 591.161 666.493 591.33
C 665.813 591.358 665.137 591.382 664.458 591.438
C 663.636 590.57 663.461 588.264 663.145 587.091
C 662.171 583.478 661.282 579.852 660.383 576.22
C 658.499 568.612 656.444 561.04 654.65 553.41
C 653.364 547.944 652.376 542.346 650.891 536.937
C 649.883 536.456 648.298 536.703 647.176 536.592
C 644.542 536.33 641.901 536.109 639.274 535.789
C 628.717 534.504 618.083 533.869 607.532 532.616
C 582.421 529.634 557.143 528.116 532.038 525.116
C 525.238 524.303 518.373 523.991 511.579 523.089
C 506.864 522.463 501.721 521.222 496.97 521.306
C 493.205 539.163 489.109 557.041 484.682 574.748
C 483.575 579.174 482.738 583.664 481.676 588.101
C 481.413 589.199 480.28 592.228 480.965 593.195
C 480.143 593.275 479.325 593.256 478.499 593.263
C 470.327 593.348 462.157 593.317 454.001 593.546
C 453.315 593.56 453.659 593.56 452.969 593.546
C 453.068 591.075 454.062 588.554 454.641 586.158
C 455.77 581.494 456.884 576.828 458.022 572.166
C 460.932 560.254 463.846 548.343 466.806 536.443
C 468.342 530.267 470.241 524.095 471.455 517.851
C 469.672 516.9 466.76 517.133 464.761 516.836
C 459.042 515.985 453.29 515.32 447.546 514.626
C 428.701 512.351 409.843 509.783 391.048 507.155
C 354.106 501.989 317.064 497.273 280.048 492.626
C 255.585 489.555 231.247 485.294 206.748 482.57
C 186.628 480.332 166.393 477.754 146.388 474.706
C 141.594 473.976 136.815 473.155 132.023 472.408
C 131.13 472.269 127.728 471.405 127.466 471.754
C 131.877 477.907 137.641 483.347 142.614 489.063
C 151.001 498.702 159.326 508.407 167.532 518.203
C 183.338 537.07 199.425 555.689 215.46 574.358
C 221.161 580.996 226.581 588.087 232.663 594.367
C 233.313 594.792 233.796 594.909 234.512 595.143
C 233.671 595.11 232.874 595.278 232.031 595.211
C 229.776 594.549 227.323 594.933 225.02 594.98
C 218.007 594.395 210.514 594.539 203.49 594.967
C 202.923 595.056 202.441 595.027 201.875 594.934
C 193.042 583.521 183.215 572.778 173.883 561.766
C 160.076 545.472 146.459 529.022 132.459 512.891
C 127.265 506.907 122.167 500.827 116.942 494.872
C 113.827 491.323 110.351 487.848 107.502 484.099
C 106.013 484.049 104.312 485.383 102.995 486.029
C 100.181 487.412 97.331 488.721 94.525 490.122
C 84.63 495.065 74.603 499.846 64.544 504.43
C 61.171 505.967 57.736 507.558 54.488 509.345
C 53.605 509.832 52.089 511.177 51.161 510.519
C 52.753 501.519 54.475 492.516 56.074 483.52
C 56.666 480.189 57.581 476.844 57.752 473.452 Z
M 130.472 397.59
C 130.39 398.124 130.33 398.497 130.445 399.025
C 144.178 401.48 158.152 403.241 171.992 404.991
C 193.707 407.736 215.421 410.777 237.078 413.95
C 252.979 416.28 269.042 417.816 284.891 420.489
C 297.279 422.578 309.765 423.965 322.143 426.17
C 325.02 426.682 327.831 427.255 330.617 428.111
C 330.942 428.212 333.318 429.21 333.495 428.979
C 332.097 426.978 329.561 425.417 327.553 424.107
C 324.952 422.41 322.371 420.677 319.791 418.949
C 310.706 412.864 301.743 406.608 292.68 400.49
C 261.081 379.16 229.93 357.077 198.669 335.252
C 188.401 328.083 178.137 320.768 167.645 313.935
C 165.474 312.521 163.003 311.143 161.073 309.415
C 159.993 308.449 159.112 307.084 157.463 307.867
C 154.785 314.946 153.339 322.548 151.014 329.759
C 143.767 352.232 137.388 375.029 130.472 397.59 Z
M 644.298 464.677
C 649.849 465.552 655.607 465.872 661.212 466.546
C 669.639 467.559 678.054 468.641 686.508 469.44
C 705.732 471.259 724.887 473.945 744.085 475.987
C 761.161 477.803 778.238 479.532 795.306 481.414
C 807.879 482.8 820.503 483.892 833.099 485.065
C 836.029 485.337 839.09 485.412 841.987 485.898
C 842.785 486.032 844.877 486.719 845.565 486.128
C 832.935 478.498 819.675 471.615 806.698 464.532
C 794.388 457.814 782.162 450.916 769.734 444.419
C 762.98 440.888 756.327 437.147 749.675 433.427
C 747.509 432.215 745.345 430.998 743.18 429.787
C 742.19 429.233 741.169 428.426 740.029 428.216
C 737.729 427.794 734.29 429.959 732.192 430.817
C 725.949 433.371 719.617 435.735 713.324 438.168
C 696.85 444.539 680.348 450.953 663.81 457.152
C 657.408 459.551 650.345 461.552 644.298 464.677 Z"
opacity="1" fill="rgb(0,0,1)" fill-rule="evenodd" />
<path d="
M 52.485 670.344
C 54.693 669.85 57.241 670.175 59.5 670.129
C 65.065 670.014 70.642 670.249 76.202 670.094
C 76.673 674.14 76.297 678.424 76.3 682.501
C 76.308 690.834 76.278 699.167 76.281 707.501
C 76.291 732.501 76.307 757.501 76.307 782.501
C 76.307 789.501 76.287 796.501 76.261 803.502
C 76.248 806.979 75.868 810.733 76.307 814.182
C 68.308 814.348 60.276 813.876 52.281 814.149
C 52.413 781.773 52.274 749.384 52.305 717.004
C 52.32 701.462 52.073 685.878 52.485 670.344 Z"
opacity="1" fill="rgb(232,119,38)" fill-rule="evenodd" />
<path d="
M 128.563 226.349
C 130.418 227.025 132.086 228.475 133.712 229.578
C 136.67 231.584 139.645 233.565 142.61 235.559
C 151.647 241.636 160.498 247.979 169.514 254.081
C 197.923 273.306 225.603 293.592 253.958 312.893
C 262.253 318.539 270.238 324.63 278.441 330.407
C 281.32 332.435 283.992 335.081 287.09 336.761
C 288.427 336.659 290.257 334.852 291.451 334.198
C 295.276 332.103 299.032 329.876 302.879 327.822
C 316.971 320.298 330.969 312.545 344.942 304.802
C 382.414 284.034 419.935 263.377 457.76 243.265
C 468.97 237.304 479.985 230.956 491.236 225.079
C 496.238 222.466 501.285 218.98 506.631 217.141
C 508.898 217.921 511.29 220.146 513.292 221.494
C 517.083 224.046 520.98 226.457 524.802 228.967
C 526.572 230.13 528.416 231.471 530.291 232.446
C 530.885 232.755 531.505 232.768 531.986 233.283
C 530.486 234.539 528.138 235.251 526.373 236.113
C 522.854 237.832 519.413 239.723 515.924 241.503
C 503.83 247.673 491.839 254.06 479.88 260.493
C 440.257 281.809 400.773 303.363 361.285 324.935
C 349.723 331.252 338.226 337.685 326.67 344.014
C 323.364 345.825 320.09 347.693 316.753 349.446
C 314.874 350.434 312.468 351.283 310.967 352.803
C 314.635 356.57 320.084 359.42 324.448 362.355
C 334.409 369.054 344.427 375.67 354.447 382.279
C 381.268 399.969 407.499 418.562 433.872 436.898
C 446.063 445.373 458.234 453.883 470.452 462.319
C 473.792 464.625 477.109 466.979 480.396 469.359
C 481.825 470.393 483.427 472.131 485.158 472.582
C 486.618 472.6 488.617 471.312 489.968 470.765
C 493.272 469.427 496.695 468.094 500.068 466.942
C 512.975 462.533 525.657 457.414 538.492 452.787
C 562.311 444.202 585.801 434.731 609.323 425.358
C 618.402 421.739 627.645 418.524 636.82 415.163
C 652.327 409.482 667.716 403.479 683.325 398.093
C 699.053 392.665 714.645 386.813 730.351 381.311
C 734.348 379.911 738.272 378.3 742.325 377.057
C 744.567 376.369 746.231 375.567 748.506 376.378
C 749.922 377.903 752.516 378.786 754.354 379.739
C 758.692 381.99 763.04 384.221 767.386 386.455
C 782.311 394.131 797.365 401.593 812.383 409.082
C 849.1 427.39 885.494 446.381 922.138 464.843
C 935.276 471.462 948.57 477.776 961.667 484.476
C 965.289 486.329 968.942 488.127 972.618 489.871
C 974.696 490.857 977.085 491.718 978.971 493.032
C 978.591 495.924 977.285 498.982 976.467 501.792
C 974.502 508.54 972.473 515.269 970.451 522.001
C 963.762 544.27 956.683 566.427 950.445 588.825
C 949.257 589.479 946.102 589.02 944.666 589.025
C 939.935 589.04 935.204 589.034 930.473 589.061
C 913.094 589.158 895.719 589.466 878.345 589.568
C 836.896 589.814 795.443 590.204 754.003 590.71
C 739.997 590.881 726.005 590.998 712 591.221
C 705.503 591.324 698.956 591.164 692.476 591.555
C 690.092 589.154 689.705 583.52 688.754 580.219
C 686.054 570.849 683.359 561.488 680.647 552.123
C 679.835 549.319 679.073 546.45 678.202 543.67
C 677.877 542.633 676.844 540.882 677.223 539.863
C 686.234 540.005 695.589 541.536 704.534 542.627
C 717.509 544.21 730.575 544.936 743.537 546.635
C 779.895 551.402 816.566 553.937 853.004 557.958
C 866.81 559.482 880.669 560.525 894.473 562.003
C 906.097 563.247 917.847 565.02 929.536 565.398
C 930.216 564.91 930.359 562.477 930.641 561.636
C 931.901 557.883 932.948 554.036 934.105 550.254
C 937.235 540.024 940.334 529.777 943.435 519.532
C 944.744 515.208 946.309 510.911 947.361 506.522
C 945.198 505.819 943.079 504.173 941.041 503.13
C 937.407 501.269 933.749 499.456 930.096 497.634
C 918.032 491.617 905.939 485.67 893.942 479.524
C 859.296 461.777 824.442 444.421 789.685 426.891
C 779.734 421.873 769.716 416.972 759.845 411.799
C 756.115 409.845 752.401 407.86 748.653 405.94
C 747.344 405.269 746.009 404.129 744.61 403.7
C 743.28 403.291 741.593 404.309 740.35 404.727
C 737.072 405.83 733.842 407.07 730.57 408.19
C 717.376 412.704 704.206 417.363 691.158 422.283
C 656.965 435.177 622.618 447.597 588.308 460.173
C 575.658 464.809 562.744 468.826 550.204 473.754
C 545.312 475.676 539.084 476.592 534.692 479.473
C 535.225 480.564 538.4 480.371 539.572 480.498
C 544.848 481.068 550.153 481.321 555.437 481.891
C 577.342 484.253 599.29 486.806 621.248 488.556
C 635.668 489.704 650.172 491.442 664.535 493.148
C 680.816 495.081 697.21 496.225 713.522 497.912
C 741.381 500.794 769.204 504.052 797.046 507.127
C 816.973 509.328 836.934 511.134 856.855 513.447
C 862.492 514.101 868.123 514.864 873.749 515.606
C 876.678 515.992 879.849 516.021 882.7 516.788
C 883.385 518.215 881.912 521.772 881.445 523.205
C 879.588 528.903 878.609 535.036 876.482 540.626
C 868.154 539.152 859.514 538.885 851.106 537.965
C 826.257 535.248 801.407 532.553 776.536 530.074
C 745.328 526.964 714.192 523.112 682.983 519.982
C 652.294 516.905 621.503 514.17 590.886 510.456
C 564.775 507.288 538.509 505.449 512.379 502.465
C 505.03 501.626 497.607 500.867 490.232 500.312
C 488.249 500.162 486.232 500.03 484.243 500.054
C 483.132 500.068 481.819 500.366 480.738 500.001
C 477.858 499.029 475.053 496.233 472.53 494.556
C 466.344 490.443 460.327 486.079 454.185 481.9
C 411.779 453.048 369.166 424.37 327.345 394.681
C 310.34 382.609 292.317 371.939 275.114 360.151
C 255.154 346.475 235.787 331.96 215.916 318.157
C 197.155 305.124 178.802 291.433 159.636 278.989
C 155.148 276.075 150.837 272.806 146.524 269.64
C 145.674 269.016 142.878 266.272 141.969 266.887
C 137.829 280.086 134.417 293.518 130.065 306.659
C 121.727 331.832 113.485 357.25 106.727 382.903
C 104.306 392.097 101.302 401.191 98.496 410.275
C 97.851 412.365 97.215 414.475 96.481 416.534
C 96.332 416.952 95.649 418.578 95.999 418.854
C 100.376 419.129 104.685 420.153 109.043 420.636
C 121.731 422.042 134.319 424.352 146.959 426.113
C 193.723 432.631 240.404 439.66 287.165 446.162
C 306.179 448.806 325.308 451.015 344.265 454.068
C 349.162 454.856 354.133 455.517 359.054 456.145
C 361.043 456.399 364.147 456.148 365.934 457.006
C 366.989 457.512 367.825 458.642 368.698 459.403
C 371.082 461.481 373.369 463.646 375.658 465.829
C 382.823 472.661 389.659 479.877 396.838 486.668
C 396.865 486.719 395.548 486.543 395.356 486.506
C 394.572 486.351 393.758 486.268 392.965 486.164
C 390.149 485.794 387.353 485.24 384.531 484.891
C 376.385 483.885 368.261 482.611 360.127 481.503
C 335.751 478.183 311.42 474.549 287.053 471.144
C 238.922 464.417 190.796 457.64 142.678 450.841
C 124.726 448.304 106.817 445.524 88.871 442.953
C 80.479 441.751 71.993 439.853 63.53 439.323
C 61.887 438.369 64.006 433.652 64.476 432.176
C 66.803 424.869 68.853 417.473 71.112 410.144
C 80.739 378.921 89.773 347.498 99.291 316.24
C 106.33 293.123 114.271 270.211 120.807 246.949
C 122.331 241.527 124.081 236.152 125.746 230.772
C 126.132 229.527 126.758 225.521 128.563 226.349 Z"
opacity="1" fill="rgb(255,254,255)" fill-rule="evenodd" />
<path d="
M 100.426 670.474
C 100.517 670.359 100.608 670.244 100.7 670.129
C 106.139 669.339 112.009 669.84 117.505 669.832
C 120.646 669.827 124.376 669.306 127.444 669.977
C 129.876 675.718 131.438 681.942 133.063 687.984
C 134.816 694.504 136.726 700.983 138.448 707.513
C 142.833 724.143 147.986 740.743 151.514 757.561
C 152.193 754.986 151.788 751.653 151.764 748.999
C 151.714 743.576 151.346 738.169 151.395 732.748
C 151.517 719.176 151.673 705.592 151.66 692.007
C 151.653 684.896 151.226 677.643 151.555 670.551
C 152.789 669.337 155.85 669.974 157.509 669.961
C 162.628 669.921 167.766 670.025 172.871 669.975
C 173.32 674.436 173.091 679.013 173.094 683.499
C 173.1 690.999 173.085 698.499 173.089 705.999
C 173.101 729.668 172.992 753.335 172.934 777
C 172.914 785.332 172.901 793.665 172.862 801.998
C 172.844 805.85 172.142 810.465 172.826 814.236
C 167.27 814.573 161.569 814.253 155.998 814.253
C 153.167 814.253 149.599 814.808 146.858 814.081
C 144.248 807.879 142.985 800.748 141.285 794.241
C 137.512 779.794 134.094 765.098 129.809 750.801
C 127.729 743.862 126.285 736.743 124.249 729.795
C 123.584 727.526 123.007 725.256 122.467 722.955
C 122.314 722.305 121.928 718.895 121.504 720.458
C 121.062 726.814 121.592 733.389 121.622 739.767
C 121.676 751.18 121.506 762.589 121.458 774
C 121.42 782.833 121.396 791.667 121.322 800.499
C 121.285 804.859 120.79 809.582 121.295 813.901
C 114.491 814.481 107.261 814.258 100.439 813.945
C 99.898 806.017 100.325 797.945 100.322 790.001
C 100.317 775.001 100.295 760 100.33 744.999
C 100.365 729.832 100.405 714.666 100.338 699.499
C 100.296 689.86 99.933 680.1 100.426 670.474 Z"
opacity="1" fill="rgb(232,119,37)" fill-rule="evenodd" />
<path d="
M 136.008 201.93
C 138.526 203.056 140.98 205.473 143.198 207.125
C 147.133 210.057 151.107 212.954 155.087 215.823
C 167.345 224.659 179.54 233.576 191.791 242.425
C 212.513 257.392 233.256 272.319 253.848 287.466
C 260.223 292.155 266.624 296.885 273.105 301.427
C 277.436 304.462 282.119 307.399 285.977 311.023
C 288.784 310.548 291.935 307.985 294.43 306.607
C 300.977 302.989 307.404 299.156 313.932 295.503
C 335.215 283.592 356.575 271.863 378.015 260.236
C 385.17 256.355 392.283 252.396 399.458 248.554
C 401.169 247.637 402.846 246.653 404.56 245.743
C 405.098 245.457 406.367 245.112 406.519 244.507
C 396.91 240.131 387.069 236.185 377.526 231.657
C 378.076 229.532 380.197 228.255 381.489 226.572
C 384.541 222.598 388.306 217.751 389.724 212.89
C 390.01 211.734 390.316 210.168 391.504 209.702
C 399.591 212.843 407.191 217.625 415.088 221.262
C 417.091 222.184 419.046 223.26 421.002 224.276
C 421.711 224.644 422.42 225.227 423.233 225.319
C 418.772 208.469 414.752 191.494 410.44 174.599
C 409.003 168.965 407.708 163.224 405.958 157.679
C 405.244 155.414 404.454 153.149 403.821 150.862
C 403.747 150.598 403.157 148.909 403.838 148.974
C 403.874 148.977 404.492 149.735 404.634 149.878
C 405.443 150.694 406.217 151.539 406.993 152.387
C 410.212 155.905 413.414 159.439 416.71 162.885
C 429.506 176.259 442.396 189.555 455.163 202.948
C 456.503 202.48 457.816 201.314 459.058 200.602
C 462.919 198.386 466.78 196.169 470.649 193.963
C 472.514 192.9 474.401 191.434 476.457 190.783
C 478.272 191.532 480.192 193.781 481.852 194.989
C 486.503 198.373 491.12 201.804 495.734 205.237
C 502.992 210.636 510.335 215.916 517.689 221.187
C 522.514 224.645 527.469 227.993 531.841 232.028
C 535.561 234.396 539.035 237.31 542.613 239.901
C 550.559 245.654 558.497 251.379 566.566 256.96
C 569.278 258.836 571.972 260.746 574.725 262.561
C 575.637 263.162 577.569 263.736 577.572 264.958
C 575.458 271.829 572.185 278.444 569.47 285.098
C 564.775 296.606 560.209 308.163 555.673 319.734
C 546.806 342.352 537.992 364.997 528.752 387.469
C 524.212 398.511 520.107 409.734 515.327 420.672
C 515.926 420.942 517.387 419.913 517.963 419.646
C 520.44 418.497 522.914 417.316 525.405 416.191
C 530.911 413.703 536.38 411.115 541.926 408.71
C 543.759 407.915 547.352 407.034 548.598 405.434
C 550.127 403.471 550.927 400.155 551.865 397.847
C 562.799 370.958 574.234 344.284 584.758 317.222
C 588.211 308.342 591.571 299.42 595.316 290.653
C 596.667 287.49 597.633 282.949 599.923 280.349
C 612.098 288.148 623.957 296.488 636.084 304.376
C 640.66 307.353 645.29 310.281 649.798 313.357
C 651.634 314.61 654.015 315.578 655.502 317.201
C 653.717 317.198 651.538 320.05 650.201 321.154
C 645.404 325.119 640.647 329.142 635.996 333.276
C 622.976 344.847 609.665 356.103 596.611 367.639
C 591.668 372.007 586.32 376.116 581.785 380.916
C 581.239 382.351 581.421 384.138 581.341 385.662
C 581.218 387.996 580.924 390.299 580.754 392.631
C 580.219 399.941 579.647 407.553 578.259 414.751
C 578.529 415.009 579.08 414.274 579.241 414.098
C 580.227 413.026 581.539 412.117 582.714 411.264
C 587.589 407.724 592.252 403.708 596.906 399.879
C 611.507 387.865 626.221 375.983 640.542 363.633
C 644.682 360.063 648.774 356.377 653.079 353.005
C 654.359 352.002 655.913 349.802 657.542 349.581
C 662.58 352.294 667.3 355.9 672.146 358.961
C 677.903 362.598 683.915 366.17 688.688 371.091
C 689.48 371.364 690.461 370.881 691.227 370.632
C 693.145 370.009 695.09 369.471 697.03 368.92
C 704.26 366.869 711.504 364.898 718.808 363.132
C 721.539 362.471 725.025 360.87 727.565 362.395
C 732.278 365.297 736.962 368.254 741.666 371.173
C 743.373 372.233 746.526 373.389 747.763 374.958
C 748.117 375.407 748.123 375.964 748.506 376.378
C 746.231 375.567 744.567 376.369 742.325 377.057
C 738.272 378.3 734.348 379.911 730.351 381.311
C 714.645 386.813 699.053 392.665 683.325 398.093
C 667.716 403.479 652.327 409.482 636.82 415.163
C 627.645 418.524 618.402 421.739 609.323 425.358
C 585.801 434.731 562.311 444.202 538.492 452.787
C 525.657 457.414 512.975 462.533 500.068 466.942
C 496.695 468.094 493.272 469.427 489.968 470.765
C 488.617 471.312 486.618 472.6 485.158 472.582
C 483.427 472.131 481.825 470.393 480.396 469.359
C 477.109 466.979 473.792 464.625 470.452 462.319
C 458.234 453.883 446.063 445.373 433.872 436.898
C 407.499 418.562 381.268 399.969 354.447 382.279
C 344.427 375.67 334.409 369.054 324.448 362.355
C 320.084 359.42 314.635 356.57 310.967 352.803
C 312.468 351.283 314.874 350.434 316.753 349.446
C 320.09 347.693 323.364 345.825 326.67 344.014
C 338.226 337.685 349.723 331.252 361.285 324.935
C 400.773 303.363 440.257 281.809 479.88 260.493
C 491.839 254.06 503.83 247.673 515.924 241.503
C 519.413 239.723 522.854 237.832 526.373 236.113
C 528.138 235.251 530.486 234.539 531.986 233.283
C 531.505 232.768 530.885 232.755 530.291 232.446
C 528.416 231.471 526.572 230.13 524.802 228.967
C 520.98 226.457 517.083 224.046 513.292 221.494
C 511.29 220.146 508.898 217.921 506.631 217.141
C 501.285 218.98 496.238 222.466 491.236 225.079
C 479.985 230.956 468.97 237.304 457.76 243.265
C 419.935 263.377 382.414 284.034 344.942 304.802
C 330.969 312.545 316.971 320.298 302.879 327.822
C 299.032 329.876 295.276 332.103 291.451 334.198
C 290.257 334.852 288.427 336.659 287.09 336.761
C 283.992 335.081 281.32 332.435 278.441 330.407
C 270.238 324.63 262.253 318.539 253.958 312.893
C 225.603 293.592 197.923 273.306 169.514 254.081
C 160.498 247.979 151.647 241.636 142.61 235.559
C 139.645 233.565 136.67 231.584 133.712 229.578
C 132.086 228.475 130.418 227.025 128.563 226.349
C 126.946 225.192 128.334 222.886 128.831 221.36
C 130.368 216.646 131.847 211.908 133.565 207.26
C 134.001 206.079 134.501 201.73 136.008 201.93 Z
M 360.132 355.48
C 364.296 359.772 370.447 362.766 375.413 366.066
C 383.552 371.476 391.557 377.101 399.62 382.625
C 426.995 401.38 454.267 420.278 481.619 439.053
C 496.081 403.656 509.305 367.74 523.29 332.147
C 527.691 320.948 531.836 309.588 536.628 298.549
C 541.638 287.01 546.452 275.213 550.778 263.397
C 551.704 260.867 552.703 258.364 553.654 255.843
C 554.058 254.773 554.77 253.342 554.518 252.162
C 554.354 251.396 553.764 250.972 553.372 250.323
C 552.114 250.194 550.476 251.462 549.413 252.065
C 546.611 253.654 543.694 255.094 540.801 256.512
C 528.292 262.643 516.16 269.589 503.85 276.103
C 472.34 292.777 440.778 309.573 409.759 327.146
C 399.638 332.88 389.389 338.393 379.256 344.103
C 372.867 347.702 365.888 350.913 360.132 355.48 Z"
opacity="1" fill="rgb(0,0,0)" fill-rule="evenodd" />
<path d="
M 452.969 593.546
C 447.675 593.939 442.307 593.699 437.002 593.723
C 427.246 593.768 417.491 593.804 407.735 593.802
C 385.421 593.798 363.086 594.293 340.763 594.324
C 317.298 594.357 293.807 594.68 270.338 594.88
C 258.441 594.981 246.403 595.639 234.512 595.143
C 233.796 594.909 233.313 594.792 232.663 594.367
C 226.581 588.087 221.161 580.996 215.46 574.358
C 199.425 555.689 183.338 537.07 167.532 518.203
C 159.326 508.407 151.001 498.702 142.614 489.063
C 137.641 483.347 131.877 477.907 127.466 471.754
C 127.728 471.405 131.13 472.269 132.023 472.408
C 136.815 473.155 141.594 473.976 146.388 474.706
C 166.393 477.754 186.628 480.332 206.748 482.57
C 231.247 485.294 255.585 489.555 280.048 492.626
C 317.064 497.273 354.106 501.989 391.048 507.155
C 409.843 509.783 428.701 512.351 447.546 514.626
C 453.29 515.32 459.042 515.985 464.761 516.836
C 466.76 517.133 469.672 516.9 471.455 517.851
C 470.241 524.095 468.342 530.267 466.806 536.443
C 463.846 548.343 460.932 560.254 458.022 572.166
C 456.884 576.828 455.77 581.494 454.641 586.158
C 454.062 588.554 453.068 591.075 452.969 593.546 Z"
opacity="1" fill="rgb(254,254,255)" fill-rule="evenodd" />
<path d="
M 130.472 397.59
C 137.388 375.029 143.767 352.232 151.014 329.759
C 153.339 322.548 154.785 314.946 157.463 307.867
C 159.112 307.084 159.993 308.449 161.073 309.415
C 163.003 311.143 165.474 312.521 167.645 313.935
C 178.137 320.768 188.401 328.083 198.669 335.252
C 229.93 357.077 261.081 379.16 292.68 400.49
C 301.743 406.608 310.706 412.864 319.791 418.949
C 322.371 420.677 324.952 422.41 327.553 424.107
C 329.561 425.417 332.097 426.978 333.495 428.979
C 333.318 429.21 330.942 428.212 330.617 428.111
C 327.831 427.255 325.02 426.682 322.143 426.17
C 309.765 423.965 297.279 422.578 284.891 420.489
C 269.042 417.816 252.979 416.28 237.078 413.95
C 215.421 410.777 193.707 407.736 171.992 404.991
C 158.152 403.241 144.178 401.48 130.445 399.025
C 130.33 398.497 130.39 398.124 130.472 397.59 Z
M 138.331 392.511
C 138.173 393.244 138.238 392.855 138.147 393.68
C 143.01 394.729 148.071 395.134 152.994 395.831
C 160.153 396.845 167.281 398.041 174.442 399.031
C 198.626 402.377 222.856 405.403 247.016 408.876
C 259.59 410.684 272.191 412.305 284.787 413.98
C 288.895 414.526 293.002 415.05 297.1 415.663
C 298.701 415.902 300.356 416.061 301.923 416.467
C 302.242 416.55 303.502 417.025 303.558 416.589
C 299.995 412.749 294.802 409.738 290.513 406.766
C 282.2 401.007 273.983 395.122 265.619 389.431
C 243.216 374.188 221.154 358.439 198.729 343.22
C 189.518 336.969 180.373 330.623 171.154 324.382
C 168.868 322.834 166.621 321.235 164.381 319.621
C 163.655 319.097 162.267 317.779 161.343 317.766
C 160.651 317.756 159.977 321.315 159.797 321.968
C 158.552 326.466 156.839 330.85 155.735 335.385
C 153.125 346.109 149.424 356.695 146.12 367.225
C 143.489 375.614 141.379 384.265 138.331 392.511 Z"
opacity="1" fill="rgb(254,253,254)" fill-rule="evenodd" />
<path d="
M 389.724 212.89
C 388.306 217.751 384.541 222.598 381.489 226.572
C 380.197 228.255 378.076 229.532 377.526 231.657
C 387.069 236.185 396.91 240.131 406.519 244.507
C 406.367 245.112 405.098 245.457 404.56 245.743
C 402.846 246.653 401.169 247.637 399.458 248.554
C 392.283 252.396 385.17 256.355 378.015 260.236
C 356.575 271.863 335.215 283.592 313.932 295.503
C 307.404 299.156 300.977 302.989 294.43 306.607
C 291.935 307.985 288.784 310.548 285.977 311.023
C 282.119 307.399 277.436 304.462 273.105 301.427
C 266.624 296.885 260.223 292.155 253.848 287.466
C 233.256 272.319 212.513 257.392 191.791 242.425
C 179.54 233.576 167.345 224.659 155.087 215.823
C 151.107 212.954 147.133 210.057 143.198 207.125
C 140.98 205.473 138.526 203.056 136.008 201.93
C 134.436 200.715 136.35 196.995 136.841 195.424
C 137.895 192.051 139.095 188.705 140.071 185.309
C 141.027 181.98 141.782 178.284 143.265 175.147
C 144.531 175.713 145.495 176.717 146.64 177.489
C 149.869 179.665 152.921 182.124 156.108 184.365
C 165.391 190.892 174.444 197.752 183.64 204.4
C 208.121 222.099 232.732 239.635 257.334 257.169
C 264.29 262.126 271.17 267.225 277.967 272.397
C 281.132 274.806 284.274 277.589 287.629 279.707
C 289.437 279.527 292.198 277.241 293.834 276.359
C 299.251 273.435 304.649 270.431 310.009 267.403
C 326.17 258.273 342.848 250.053 358.995 240.891
C 364.236 237.918 369.653 235.148 374.571 231.648
C 375.801 230.773 377.938 230.523 378.831 229.367
C 379.54 228.45 378.28 227.487 378.828 226.435
C 381.491 222.849 383.604 218.687 386.433 215.257
C 387.383 214.105 388.086 211.689 389.724 212.89 Z"
opacity="1" fill="rgb(255,255,255)" fill-rule="evenodd" />
<path d="
M 138.331 392.511
C 141.379 384.265 143.489 375.614 146.12 367.225
C 149.424 356.695 153.125 346.109 155.735 335.385
C 156.839 330.85 158.552 326.466 159.797 321.968
C 159.977 321.315 160.651 317.756 161.343 317.766
C 162.267 317.779 163.655 319.097 164.381 319.621
C 166.621 321.235 168.868 322.834 171.154 324.382
C 180.373 330.623 189.518 336.969 198.729 343.22
C 221.154 358.439 243.216 374.188 265.619 389.431
C 273.983 395.122 282.2 401.007 290.513 406.766
C 294.802 409.738 299.995 412.749 303.558 416.589
C 303.502 417.025 302.242 416.55 301.923 416.467
C 300.356 416.061 298.701 415.902 297.1 415.663
C 293.002 415.05 288.895 414.526 284.787 413.98
C 272.191 412.305 259.59 410.684 247.016 408.876
C 222.856 405.403 198.626 402.377 174.442 399.031
C 167.281 398.041 160.153 396.845 152.994 395.831
C 148.071 395.134 143.01 394.729 138.147 393.68
C 138.238 392.855 138.173 393.244 138.331 392.511 Z"
opacity="1" fill="rgb(226,71,72)" fill-rule="evenodd" />
<path d="
M 194.893 685.6
C 195.359 683.451 195.876 681.695 196.999 679.766
C 203.696 668.257 217.119 670.162 228.508 670.162
C 235.72 670.162 244.429 668.995 251.182 672.001
C 254.47 673.465 257.313 675.923 259.641 678.638
C 260.999 680.222 262.465 682.13 263.051 684.164
C 263.898 687.107 263.266 690.953 263.27 694.001
C 263.278 700.167 263.27 706.334 263.259 712.501
C 263.254 715.408 262.798 718.729 263.243 721.594
C 258.352 721.849 253.398 721.715 248.499 721.738
C 246.276 721.748 243.294 722.296 241.17 721.676
C 241.265 714.456 241.101 707.224 241.124 700.002
C 241.131 697.862 242.025 693.671 240.246 692.068
C 239.337 691.249 237.979 691.424 236.84 691.4
C 234.061 691.34 231.28 691.3 228.501 691.29
C 225.573 691.278 220.307 690.235 218.084 692.495
C 217.516 693.516 217.633 694.718 217.632 695.856
C 217.631 698.144 217.633 700.432 217.637 702.72
C 217.642 705.723 217.65 708.727 217.651 711.731
C 217.652 713.207 217.413 715.022 218 716.419
C 219.097 719.027 221.822 721.134 223.789 723.078
C 228.525 727.758 233.576 732.091 238.811 736.202
C 244.068 740.331 249.357 744.438 254.567 748.627
C 257.273 750.803 260.704 753.298 262.496 756.319
C 263.298 757.672 263.198 759.171 263.214 760.686
C 263.24 763.291 263.237 765.897 263.238 768.502
C 263.242 776.129 263.195 783.756 263.142 791.383
C 263.11 795.908 263.482 800.63 261.251 804.727
C 254.248 817.592 236.341 815.164 224.01 815.128
C 218.997 815.113 213.71 815.434 208.803 814.202
C 204.362 813.088 200.166 810.11 197.608 806.325
C 194.508 801.738 194.678 796.176 194.671 790.858
C 194.66 782.355 195.15 773.651 194.581 765.173
C 200.11 764.451 205.936 764.831 211.511 764.831
C 212.796 764.831 214.08 764.814 215.364 764.808
C 215.698 764.807 216.681 764.658 216.875 764.94
C 216.781 771.669 216.927 778.424 216.948 785.156
C 216.955 787.301 216.379 790.998 217.637 792.839
C 219.275 793.862 221.02 793.791 222.874 794.008
C 226.644 794.449 230.579 794.942 234.379 794.742
C 236.048 794.654 238.318 794.094 239.327 792.613
C 240.325 791.149 239.745 788.195 239.739 786.509
C 239.726 782.177 239.731 777.844 239.705 773.512
C 239.695 771.779 240.084 769.405 239.503 767.768
C 239.025 766.424 237.48 765.196 236.511 764.181
C 234.018 761.57 231.339 759.185 228.64 756.793
C 222.243 751.124 215.477 745.689 208.809 740.338
C 204.756 737.086 200.289 733.793 197.326 729.453
C 194.296 725.016 194.83 719.64 194.814 714.504
C 194.785 704.965 194.048 695.103 194.893 685.6 Z"
opacity="1" fill="rgb(232,118,37)" fill-rule="evenodd" />
<path d="
M 238.926 863.069
C 241.637 856.449 248.018 857.746 254.006 857.739
C 256.84 857.736 259.675 857.728 262.509 857.752
C 264.11 857.765 265.888 857.648 267.32 858.485
C 272.122 861.291 270.754 869.119 270.765 873.875
C 270.77 875.601 271.214 878.094 270.377 879.662
C 269.591 880.423 268.224 880.419 267.18 880.518
C 264.729 880.751 262.068 880.817 259.683 880.139
C 258.567 877.826 259.175 874.011 259.221 871.498
C 259.242 870.385 259.395 868.781 258.546 867.924
C 256.88 867.005 251.641 867.428 250.195 868.658
C 249.261 870.266 249.476 872.554 249.65 874.341
C 250.394 881.981 255.533 885.254 261.218 889.451
C 264.418 891.813 268.933 894.403 270.504 898.25
C 271.048 899.582 270.793 901.381 270.797 902.793
C 270.805 905.716 270.764 908.638 270.747 911.56
C 270.728 914.697 271.539 918.998 269.862 921.801
C 268.759 923.646 266.87 924.861 264.76 925.176
C 261.764 925.622 258.604 925.323 255.584 925.313
C 252.365 925.301 249.066 925.593 245.86 925.267
C 243.52 925.029 241.21 924.029 239.89 921.995
C 238.611 920.025 238.804 917.483 238.799 915.239
C 238.789 910.821 239.091 906.369 238.946 901.958
C 241.009 900.966 245.149 901.635 247.382 902.021
C 248.119 902.148 249.296 902.078 249.825 902.597
C 250.417 906.529 248.934 911.404 250.332 915.175
C 252.31 916.028 257.213 916.365 259.155 915.245
C 259.373 913.203 258.983 911.141 258.928 909.101
C 258.853 906.31 259.086 903.445 258.756 900.674
C 257.19 898.931 254.943 897.674 253.029 896.349
C 249.364 893.814 245.321 891.105 242.289 887.819
C 238.266 883.458 238.856 876.123 238.684 870.603
C 238.606 868.133 238.297 865.488 238.926 863.069 Z"
opacity="1" fill="rgb(227,74,73)" fill-rule="evenodd" />
<path d="
M 278.423 811.587
C 279.822 806.625 280.01 801.266 280.914 796.197
C 283.147 783.67 284.85 771.057 286.96 758.512
C 290.396 738.079 293.842 717.665 296.863 697.184
C 298.185 688.22 299.867 679.28 300.951 670.284
C 312.243 669.78 323.831 669.66 335.12 670.232
C 336.619 673.271 336.709 677.438 337.399 680.748
C 339.131 689.05 340.447 697.45 341.903 705.804
C 346.455 731.937 350.314 758.229 355.326 784.278
C 356.721 791.53 357.422 798.994 359.07 806.184
C 359.642 808.679 359.467 811.847 360.693 814.137
C 356.168 813.85 351.541 814.085 347.008 814.122
C 343.591 814.151 340.074 813.892 336.671 814.139
C 335.805 811.46 335.645 808.448 335.163 805.676
C 334.055 799.315 333.068 792.935 332.131 786.55
C 330.37 785.844 327.394 786.391 325.498 786.383
C 320.833 786.363 316.169 786.281 311.505 786.201
C 309.733 786.17 306.053 785.312 304.622 786.48
C 303.413 792.593 302.586 798.912 301.812 805.095
C 301.484 807.712 301.603 811.606 300.539 814.016
C 293.084 814.145 285.574 813.84 278.129 814.217
C 278.201 813.331 278.264 812.463 278.423 811.587 Z
M 307.977 763.098
C 307.84 764.027 307.525 765.182 307.717 766.092
C 314.711 766.093 321.716 766.088 328.713 766.119
C 325.976 748.566 323.591 730.885 320.689 713.334
C 319.897 708.544 319.299 703.719 318.517 698.925
C 318.22 697.105 318.329 695.334 317.821 693.542
C 315.529 709.903 313.132 726.295 310.846 742.681
C 309.916 749.349 309.662 756.589 307.977 763.098 Z"
opacity="1" fill="rgb(231,118,37)" fill-rule="evenodd" />
<path d="
M 296.955 871.624
C 297.675 867.391 297.446 861.84 296.999 857.577
C 297.911 857.16 299.129 857.335 300.119 857.349
C 302.528 857.381 306.263 856.785 308.465 857.78
C 309.213 863.54 308.696 869.688 308.703 875.5
C 308.717 886.165 308.786 896.831 308.794 907.497
C 308.798 913.237 308.035 919.602 309.133 925.226
C 305.084 925 300.942 924.971 296.891 924.918
C 296.486 922.819 296.757 920.401 296.775 918.266
C 296.81 914.178 296.808 910.09 296.813 906.002
C 296.827 894.586 296.362 883.024 296.955 871.624 Z"
opacity="1" fill="rgb(226,75,77)" fill-rule="evenodd" />
<path d="
M 338.975 886.126
C 339.505 882.895 339.1 879.284 339.158 876.007
C 339.265 869.953 339.571 863.811 339.28 857.763
C 343.904 857.191 348.508 857.667 353.14 857.643
C 354.494 860.615 354.809 864.259 355.518 867.433
C 357.087 874.451 358.429 881.535 359.746 888.604
C 360.506 892.686 361.218 897.166 362.855 901.004
C 363.065 901.143 363.143 900.068 363.149 899.992
C 363.254 898.718 363.328 897.445 363.472 896.173
C 363.83 893 363.668 889.696 363.642 886.507
C 363.564 876.773 363.367 867.072 363.428 857.352
C 364.162 856.982 365.487 857.181 366.318 857.202
C 368.823 857.266 371.588 856.946 374.05 857.373
C 374.441 858.967 374.168 860.863 374.187 862.505
C 374.228 866.004 374.223 869.504 374.231 873.004
C 374.256 884.502 374.322 896.002 374.291 907.501
C 374.281 911.168 374.27 914.835 374.248 918.502
C 374.236 920.588 373.985 922.961 374.377 925.012
C 374.082 925.447 371.57 925.117 371.011 925.115
C 367.538 925.098 364.034 925.221 360.576 924.888
C 359.825 923.925 359.733 922.355 359.47 921.187
C 358.825 918.316 358.168 915.45 357.542 912.575
C 356.402 907.332 355.216 902.125 354.197 896.856
C 353.17 891.551 352.338 885.995 350.245 880.98
C 349.716 883.757 349.835 886.668 349.775 889.489
C 349.635 896.026 350.024 902.583 350.141 909.119
C 350.205 912.747 350.162 916.374 350.201 920.001
C 350.219 921.619 349.967 923.524 350.302 925.105
C 346.564 925.353 342.571 925.315 338.831 925.11
C 339.294 912.146 338.161 899.073 338.975 886.126 Z"
opacity="1" fill="rgb(226,75,75)" fill-rule="evenodd" />
<path d="
M 360.132 355.48
C 365.888 350.913 372.867 347.702 379.256 344.103
C 389.389 338.393 399.638 332.88 409.759 327.146
C 440.778 309.573 472.34 292.777 503.85 276.103
C 516.16 269.589 528.292 262.643 540.801 256.512
C 543.694 255.094 546.611 253.654 549.413 252.065
C 550.476 251.462 552.114 250.194 553.372 250.323
C 553.764 250.972 554.354 251.396 554.518 252.162
C 554.77 253.342 554.058 254.773 553.654 255.843
C 552.703 258.364 551.704 260.867 550.778 263.397
C 546.452 275.213 541.638 287.01 536.628 298.549
C 531.836 309.588 527.691 320.948 523.29 332.147
C 509.305 367.74 496.081 403.656 481.619 439.053
C 454.267 420.278 426.995 401.38 399.62 382.625
C 391.557 377.101 383.552 371.476 375.413 366.066
C 370.447 362.766 364.296 359.772 360.132 355.48 Z
M 371.713 355.48
C 371.708 355.576 371.704 355.672 371.699 355.768
C 398.755 375.018 426.459 393.407 453.819 412.233
C 460.381 416.748 466.797 421.506 473.477 425.849
C 474.893 426.77 476.268 427.776 477.614 428.794
C 477.935 429.038 478.87 430.041 479.213 429.765
C 480.865 423.563 483.531 417.493 485.834 411.509
C 489.076 403.089 492.215 394.626 495.537 386.239
C 506.958 357.405 518.242 328.468 529.412 299.537
C 533.047 290.123 537.056 280.833 540.757 271.441
C 542.096 268.041 543.923 264.722 544.973 261.228
C 540.248 264.359 534.584 266.627 529.484 269.155
C 524.746 271.503 520.157 274.157 515.503 276.666
C 492.959 288.823 470.58 301.271 447.891 313.161
C 428.55 323.296 409.558 334.131 390.448 344.692
C 384.227 348.13 378.221 352.648 371.713 355.48 Z"
opacity="1" fill="rgb(254,254,254)" fill-rule="evenodd" />
<path d="
M 476.457 190.783
C 474.401 191.434 472.514 192.9 470.649 193.963
C 466.78 196.169 462.919 198.386 459.058 200.602
C 457.816 201.314 456.503 202.48 455.163 202.948
C 442.396 189.555 429.506 176.259 416.71 162.885
C 413.414 159.439 410.212 155.905 406.993 152.387
C 406.217 151.539 405.443 150.694 404.634 149.878
C 404.492 149.735 403.874 148.977 403.838 148.974
C 403.157 148.909 403.747 150.598 403.821 150.862
C 404.454 153.149 405.244 155.414 405.958 157.679
C 407.708 163.224 409.003 168.965 410.44 174.599
C 414.752 191.494 418.772 208.469 423.233 225.319
C 422.42 225.227 421.711 224.644 421.002 224.276
C 419.046 223.26 417.091 222.184 415.088 221.262
C 407.191 217.625 399.591 212.843 391.504 209.702
C 389.456 208.444 389.903 204.84 389.503 202.603
C 388.301 195.879 386.566 189.235 385.037 182.582
C 381.188 165.835 376.919 149.185 373.086 132.432
C 371.675 126.269 370.19 120.124 368.806 113.955
C 368.053 110.599 367.522 107.052 366.497 103.778
C 366.993 103.154 367.782 103.247 368.535 103.169
C 370.334 102.983 372.128 102.743 373.932 102.58
C 380.756 101.96 387.68 100.335 394.521 100.161
C 397.207 101.901 399.423 105.153 401.639 107.477
C 406.997 113.094 412.276 118.851 417.395 124.686
C 423.898 132.098 430.812 139.175 437.552 146.366
C 444.436 153.711 450.934 161.417 457.891 168.697
C 462.925 173.966 467.775 179.574 472.483 185.142
C 473.556 186.411 474.828 187.579 475.768 188.951
C 476.069 189.389 476.653 190.276 476.457 190.783 Z"
opacity="1" fill="rgb(255,254,255)" fill-rule="evenodd" />
<path d="
M 371.713 355.48
C 378.221 352.648 384.227 348.13 390.448 344.692
C 409.558 334.131 428.55 323.296 447.891 313.161
C 470.58 301.271 492.959 288.823 515.503 276.666
C 520.157 274.157 524.746 271.503 529.484 269.155
C 534.584 266.627 540.248 264.359 544.973 261.228
C 543.923 264.722 542.096 268.041 540.757 271.441
C 537.056 280.833 533.047 290.123 529.412 299.537
C 518.242 328.468 506.958 357.405 495.537 386.239
C 492.215 394.626 489.076 403.089 485.834 411.509
C 483.531 417.493 480.865 423.563 479.213 429.765
C 478.87 430.041 477.935 429.038 477.614 428.794
C 476.268 427.776 474.893 426.77 473.477 425.849
C 466.797 421.506 460.381 416.748 453.819 412.233
C 426.459 393.407 398.755 375.018 371.699 355.768
C 371.704 355.672 371.708 355.576 371.713 355.48 Z"
opacity="1" fill="rgb(225,69,71)" fill-rule="evenodd" />
<path d="
M 377.41 670.335
C 382.93 670.034 388.47 670.096 394.003 670.041
C 397.533 670.005 401.182 669.714 404.698 670.001
C 406.187 671.798 406.607 675.122 407.267 677.329
C 408.965 683.002 410.436 688.737 412.069 694.427
C 415.89 707.742 419.997 721.12 423.132 734.615
C 424.381 739.991 425.666 745.356 426.98 750.716
C 427.478 752.746 427.575 755.012 428.413 756.927
C 428.593 757.181 428.62 756.124 428.622 756.089
C 428.668 755.289 428.664 754.485 428.695 753.685
C 428.773 751.625 428.763 749.566 428.761 747.504
C 428.754 741.077 428.6 734.648 428.57 728.22
C 428.509 715.157 428.359 702.075 428.315 689.003
C 428.295 682.777 428.595 676.505 428.38 670.286
C 433.488 670.078 438.627 670.019 443.745 670.061
C 445.481 670.076 448.386 669.584 449.955 670.323
C 449.657 705.353 450.252 740.455 450.304 775.499
C 450.317 784.832 450.293 794.166 450.285 803.499
C 450.282 806.101 450.254 808.705 450.282 811.306
C 450.289 811.962 450.527 813.392 450.162 813.955
C 447.7 814.224 445.089 813.914 442.602 813.928
C 436.245 813.966 429.832 813.817 423.482 813.995
C 422.003 809.335 421.029 804.504 419.751 799.785
C 415.263 783.204 411.343 766.461 406.704 749.924
C 404.743 742.935 403.173 735.846 401.235 728.851
C 400.508 726.228 400.113 723.534 399.423 720.91
C 399.298 720.434 399.171 718.775 398.839 718.551
C 398.618 718.402 398.742 719.076 398.694 719.338
C 398.38 722.588 398.721 726.157 398.716 729.492
C 398.704 737.329 398.721 745.166 398.708 753.003
C 398.673 773.286 398.228 793.599 398.34 813.873
C 391.541 813.926 384.719 813.673 377.922 813.9
C 377.233 813.316 377.552 812.226 377.583 811.378
C 377.661 809.254 377.687 807.129 377.703 805.003
C 377.77 796.17 377.771 787.337 377.774 778.504
C 377.788 742.466 378.275 706.352 377.41 670.335 Z"
opacity="1" fill="rgb(231,118,36)" fill-rule="evenodd" />
<path d="
M 403.409 866.105
C 403.726 864.554 403.842 863.153 404.662 861.751
C 408.169 855.748 416.773 857.408 422.698 857.447
C 426.731 857.473 431.705 857.3 434.464 860.828
C 435.806 862.545 435.71 864.822 435.997 866.863
C 436.77 872.368 435.384 878.207 436.286 883.694
C 432.259 883.861 428.222 883.632 424.194 883.766
C 424.398 880.686 423.888 877.446 423.915 874.331
C 423.93 872.503 424.31 870.11 423.683 868.375
C 421.726 867.818 416.781 867.551 415.001 868.607
C 414.075 872.257 414.747 876.746 414.782 880.498
C 414.849 887.831 414.759 895.165 414.808 902.498
C 414.826 905.147 414.851 907.796 414.845 910.445
C 414.843 911.84 414.724 913.674 415.364 914.947
C 417.497 915.315 419.636 915.387 421.805 915.336
C 422.547 915.318 423.687 915.326 424.312 914.852
C 425.288 914.112 425.06 912.055 424.98 910.988
C 424.727 907.618 425.011 904.072 425.108 900.699
C 428.718 900.426 432.514 900.23 436.135 900.352
C 436.549 901.856 436.223 903.651 436.212 905.196
C 436.186 908.547 436.158 911.89 436.216 915.243
C 436.243 916.806 436.734 919.231 435.861 920.62
C 431.636 927.342 421.113 925.353 414.496 925.331
C 411.243 925.321 407.416 925.02 405.147 922.336
C 402.004 918.621 403.32 911.521 403.314 907.002
C 403.304 898.335 403.325 889.668 403.314 881.001
C 403.308 876.059 403.049 871.035 403.409 866.105 Z"
opacity="1" fill="rgb(226,75,76)" fill-rule="evenodd" />
<path d="
M 464.37 856.913
C 473.324 856.644 482.327 857 491.281 857.023
C 491.667 857.618 491.425 859.483 491.442 860.261
C 491.497 862.945 491.654 865.619 491.624 868.303
C 487.876 869.005 483.322 868.254 479.496 868.263
C 478.432 868.266 475.885 867.943 475.316 868.918
C 475.165 874.536 475.259 880.144 475.315 885.763
C 476.297 886.259 478.38 885.817 479.505 885.812
C 482.006 885.801 484.506 885.81 487.007 885.782
C 488.144 885.769 489.448 885.513 490.55 885.762
C 490.84 888.394 490.656 891.127 490.671 893.775
C 490.674 894.317 490.886 895.929 490.497 896.323
C 485.689 895.915 480.1 895.88 475.344 896.702
C 474.66 902.642 475.579 908.703 475.689 914.637
C 476.799 915.286 479.198 914.789 480.508 914.795
C 484.263 914.811 488.171 914.564 491.901 915.003
C 492.363 918.448 491.91 921.911 492.218 925.349
C 486.432 925.855 480.32 925.249 474.495 925.31
C 471.457 925.342 467.499 926.037 464.573 925.295
C 464.149 918.764 464.403 912.047 464.403 905.497
C 464.402 895.166 464.316 884.835 464.288 874.504
C 464.273 868.794 464.579 862.958 464.083 857.268
C 464.179 857.149 464.275 857.031 464.37 856.913 Z"
opacity="1" fill="rgb(226,76,75)" fill-rule="evenodd" />
<path d="
M 473.366 670.46
C 482.638 669.675 492.202 670.36 501.507 670.366
C 511.763 670.372 522.212 669.761 532.444 670.506
C 532.638 675.373 532.7 680.246 532.708 685.125
C 532.711 687.244 532.242 690.08 532.768 692.112
C 524.411 692.487 515.877 691.763 507.501 691.741
C 504.161 691.732 500.207 691.175 496.953 691.955
C 496.56 704.619 496.159 717.603 497.002 730.257
C 499.173 730.883 502.228 730.355 504.504 730.346
C 510.006 730.323 515.506 730.311 521.007 730.329
C 523.005 730.336 525.003 730.361 527.001 730.368
C 527.676 730.37 528.736 730.156 529.316 730.502
C 529.718 737.306 529.207 744.15 529.398 750.953
C 521.78 751.13 514.122 750.845 506.5 750.792
C 504.499 750.777 502.498 750.8 500.497 750.8
C 499.458 750.8 498.066 750.639 497.14 751.142
C 497.267 760.922 497.252 770.716 497.261 780.499
C 497.264 783.498 497.261 786.497 497.286 789.496
C 497.296 790.683 496.991 792.344 497.38 793.444
C 503.554 793.101 509.817 793.419 516.003 793.384
C 521.31 793.354 526.825 792.915 532.108 793.408
C 532.771 794.901 532.25 797.368 532.256 798.998
C 532.268 802.332 532.264 805.666 532.265 809
C 532.266 810.645 532.012 812.599 532.325 814.2
C 528.3 814.564 524.054 814.185 520.007 814.186
C 511.673 814.188 503.339 814.204 495.005 814.198
C 490.171 814.194 485.336 814.219 480.502 814.207
C 478.372 814.202 475.777 814.629 473.707 814.208
C 473.911 802.004 473.386 789.717 473.334 777.5
C 473.182 741.945 472.856 706.348 473.167 670.798
C 473.233 670.685 473.3 670.573 473.366 670.46 Z"
opacity="1" fill="rgb(231,118,36)" fill-rule="evenodd" />
<path d="
M 664.458 591.438
C 664.466 591.526 664.474 591.614 664.482 591.702
C 603.322 592.267 542.133 593.252 480.965 593.195
C 480.28 592.228 481.413 589.199 481.676 588.101
C 482.738 583.664 483.575 579.174 484.682 574.748
C 489.109 557.041 493.205 539.163 496.97 521.306
C 501.721 521.222 506.864 522.463 511.579 523.089
C 518.373 523.991 525.238 524.303 532.038 525.116
C 557.143 528.116 582.421 529.634 607.532 532.616
C 618.083 533.869 628.717 534.504 639.274 535.789
C 641.901 536.109 644.542 536.33 647.176 536.592
C 648.298 536.703 649.883 536.456 650.891 536.937
C 652.376 542.346 653.364 547.944 654.65 553.41
C 656.444 561.04 658.499 568.612 660.383 576.22
C 661.282 579.852 662.171 583.478 663.145 587.091
C 663.461 588.264 663.636 590.57 664.458 591.438 Z"
opacity="1" fill="rgb(254,254,255)" fill-rule="evenodd" />
<path d="
M 577.572 264.958
C 577.956 264.578 578.893 265.193 579.284 265.425
C 580.677 266.257 581.872 267.407 583.157 268.387
C 588.464 272.43 595.368 275.482 599.923 280.349
C 597.633 282.949 596.667 287.49 595.316 290.653
C 591.571 299.42 588.211 308.342 584.758 317.222
C 574.234 344.284 562.799 370.958 551.865 397.847
C 550.927 400.155 550.127 403.471 548.598 405.434
C 547.352 407.034 543.759 407.915 541.926 408.71
C 536.38 411.115 530.911 413.703 525.405 416.191
C 522.914 417.316 520.44 418.497 517.963 419.646
C 517.387 419.913 515.926 420.942 515.327 420.672
C 520.107 409.734 524.212 398.511 528.752 387.469
C 537.992 364.997 546.806 342.352 555.673 319.734
C 560.209 308.163 564.775 296.606 569.47 285.098
C 572.185 278.444 575.458 271.829 577.572 264.958 Z"
opacity="1" fill="rgb(255,255,255)" fill-rule="evenodd" />
<path d="
M 549.404 864.101
C 549.667 862.892 549.889 861.822 550.531 860.741
C 554.014 854.884 563.235 856.635 569.015 856.697
C 573.6 856.746 580.006 858.442 580.67 864.043
C 581.036 867.126 580.756 870.379 580.754 873.479
C 580.752 878.394 581.195 883.769 578.71 888.197
C 575.91 893.183 571.22 897.017 567.106 900.866
C 565.129 902.717 562.397 904.949 561.406 907.551
C 560.632 909.582 561.21 912.547 561.137 914.695
C 562.467 915.199 564.567 914.851 566.007 914.855
C 569.675 914.867 573.342 914.89 577.01 914.904
C 578.286 914.908 580.687 914.431 581.797 915.02
C 581.775 918.456 581.171 922.025 581.39 925.45
C 570.843 924.959 560.088 925.108 549.536 925.392
C 549.088 924.703 549.305 923.504 549.323 922.694
C 549.365 920.669 549.358 918.642 549.367 916.617
C 549.38 913.816 549.553 911.036 549.601 908.244
C 549.623 906.958 549.31 905.216 549.864 904.016
C 550.777 902.037 552.725 900.22 554.212 898.663
C 557.512 895.207 561.062 892.007 564.229 888.424
C 565.766 886.686 567.556 884.911 568.314 882.664
C 569.343 879.612 569.202 875.7 569.252 872.505
C 569.275 871.061 569.161 869.381 567.955 868.378
C 566.942 867.537 565.005 867.844 563.787 867.97
C 562.68 868.085 561.55 868.081 560.598 868.712
C 558.643 872.192 561.073 877.026 559.051 880.427
C 558.417 880.91 557.272 880.796 556.494 880.835
C 554.086 880.955 551.841 880.681 549.461 880.467
C 549.043 878.787 549.344 876.735 549.331 875.001
C 549.304 871.391 549.107 867.7 549.404 864.101 Z"
opacity="1" fill="rgb(227,75,77)" fill-rule="evenodd" />
<path d="
M 655.502 317.201
C 659.844 319.635 663.908 322.617 668.18 325.19
C 687.596 336.886 706.583 349.318 726.12 360.789
C 726.671 361.237 727.094 361.859 727.565 362.395
C 725.025 360.87 721.539 362.471 718.808 363.132
C 711.504 364.898 704.26 366.869 697.03 368.92
C 695.09 369.471 693.145 370.009 691.227 370.632
C 690.461 370.881 689.48 371.364 688.688 371.091
C 683.915 366.17 677.903 362.598 672.146 358.961
C 667.3 355.9 662.58 352.294 657.542 349.581
C 655.913 349.802 654.359 352.002 653.079 353.005
C 648.774 356.377 644.682 360.063 640.542 363.633
C 626.221 375.983 611.507 387.865 596.906 399.879
C 592.252 403.708 587.589 407.724 582.714 411.264
C 581.539 412.117 580.227 413.026 579.241 414.098
C 579.08 414.274 578.529 415.009 578.259 414.751
C 579.647 407.553 580.219 399.941 580.754 392.631
C 580.924 390.299 581.218 387.996 581.341 385.662
C 581.421 384.138 581.239 382.351 581.785 380.916
C 586.32 376.116 591.668 372.007 596.611 367.639
C 609.665 356.103 622.976 344.847 635.996 333.276
C 640.647 329.142 645.404 325.119 650.201 321.154
C 651.538 320.05 653.717 317.198 655.502 317.201 Z"
opacity="1" fill="rgb(255,255,255)" fill-rule="evenodd" />
<path d="
M 587.058 671.112
C 587.056 670.944 587.055 670.776 587.054 670.608
C 589.135 669.724 592.256 670.276 594.506 670.267
C 599.883 670.245 605.265 670.161 610.642 670.267
C 611.187 671.601 610.782 673.562 610.8 674.997
C 610.849 678.998 610.846 682.999 610.829 687
C 610.783 698 610.836 709 610.769 720
C 610.737 725.196 609.739 731.541 611.026 736.597
C 612.117 735.405 612.311 732.987 612.911 731.483
C 614.487 727.53 615.856 723.502 617.401 719.537
C 621.546 708.896 625.517 698.184 629.63 687.529
C 631.803 681.9 633.488 675.624 636.498 670.382
C 637.877 669.657 640.454 670.09 642.005 670.081
C 646.34 670.055 650.672 670.137 655.007 670.161
C 656.627 670.169 659.558 669.597 660.965 670.398
C 658.193 678.164 655.056 685.906 651.928 693.545
C 648.256 702.512 645.214 711.737 641.541 720.708
C 639.504 725.684 637.411 730.742 635.69 735.834
C 634.99 737.905 633.315 740.252 633.498 742.515
C 633.645 744.325 634.764 745.918 635.36 747.593
C 636.671 751.273 638.429 754.802 639.863 758.437
C 644.888 771.17 650.211 783.798 655.411 796.461
C 656.96 800.234 658.469 804.022 660.019 807.794
C 660.849 809.814 661.928 811.89 662.218 814.07
C 653.988 814.52 645.413 813.112 637.239 814.153
C 636.068 812.424 635.405 810.021 634.631 808.078
C 633.239 804.583 631.812 801.108 630.43 797.611
C 626.144 786.762 621.716 775.955 617.297 765.159
C 615.794 761.487 614.427 757.748 612.97 754.059
C 612.357 752.508 611.999 750.049 610.831 748.868
C 610.267 761.869 610.835 774.983 610.808 787.999
C 610.791 796.472 609.93 805.344 610.707 813.777
C 603.046 814.2 595.09 812.822 587.465 813.777
C 586.557 809.839 587.303 804.897 587.302 800.859
C 587.301 791.574 587.303 782.288 587.296 773.002
C 587.28 750.338 587.279 727.674 587.219 705.009
C 587.188 693.773 587.807 682.32 587.058 671.112 Z"
opacity="1" fill="rgb(231,118,38)" fill-rule="evenodd" />
<path d="
M 608.967 870.622
C 609.04 866.515 608.969 862.18 612.316 859.249
C 614.538 857.304 617.332 857.309 620.14 857.198
C 626.347 856.952 636.572 855.124 640.734 861.061
C 641.739 862.494 641.841 864.318 641.99 866.003
C 642.314 869.658 642.268 873.331 642.291 876.998
C 642.349 886.267 642.383 895.537 642.427 904.806
C 642.448 909.217 642.978 913.9 642.54 918.283
C 642.259 921.094 639.944 923.617 637.358 924.666
C 635.068 925.594 632.249 925.292 629.832 925.287
C 623.916 925.276 614.039 926.993 610.315 920.956
C 607.753 916.802 608.918 910.151 608.927 905.495
C 608.948 893.873 608.761 882.242 608.967 870.622 Z
M 620.483 872.12
C 619.977 882.869 620.314 893.699 620.221 904.459
C 620.197 907.271 618.947 913.479 621.812 915.158
C 622.689 915.672 623.81 915.496 624.779 915.457
C 626.704 915.381 629.921 916.013 630.718 913.644
C 631.106 912.489 630.93 911.189 630.942 909.993
C 630.967 907.595 631.085 905.197 631.082 902.794
C 631.071 895.073 631.045 887.351 631.076 879.631
C 631.087 876.979 631.01 874.337 631.106 871.694
C 631.145 870.639 631.421 869.156 630.869 868.211
C 628.596 866.783 623.365 866.89 620.915 867.876
C 620.464 869.255 620.698 870.702 620.483 872.12 Z"
opacity="1" fill="rgb(227,74,76)" fill-rule="evenodd" />
<path d="
M 644.298 464.677
C 650.345 461.552 657.408 459.551 663.81 457.152
C 680.348 450.953 696.85 444.539 713.324 438.168
C 719.617 435.735 725.949 433.371 732.192 430.817
C 734.29 429.959 737.729 427.794 740.029 428.216
C 741.169 428.426 742.19 429.233 743.18 429.787
C 745.345 430.998 747.509 432.215 749.675 433.427
C 756.327 437.147 762.98 440.888 769.734 444.419
C 782.162 450.916 794.388 457.814 806.698 464.532
C 819.675 471.615 832.935 478.498 845.565 486.128
C 844.877 486.719 842.785 486.032 841.987 485.898
C 839.09 485.412 836.029 485.337 833.099 485.065
C 820.503 483.892 807.879 482.8 795.306 481.414
C 778.238 479.532 761.161 477.803 744.085 475.987
C 724.887 473.945 705.732 471.259 686.508 469.44
C 678.054 468.641 669.639 467.559 661.212 466.546
C 655.607 465.872 649.849 465.552 644.298 464.677 Z
M 670.526 460.966
C 670.454 461.148 670.382 461.331 670.31 461.514
C 674.161 462.297 678.276 462.399 682.191 462.842
C 688.174 463.518 694.146 464.291 700.144 464.811
C 715.61 466.153 731.119 467.994 746.533 469.838
C 762.47 471.746 778.42 473.498 794.405 475.001
C 799.166 475.449 803.925 475.873 808.679 476.364
C 811.001 476.604 813.507 477.262 815.83 477.157
C 816.002 477.144 814.655 476.207 814.417 476.091
C 813.194 475.495 811.945 474.893 810.76 474.225
C 807.1 472.161 803.367 470.204 799.752 468.06
C 789 461.685 777.673 456.306 766.836 450.074
C 760.605 446.491 754.214 443.146 747.873 439.76
C 745.214 438.34 742.054 435.81 739.061 435.256
C 737.26 434.922 734.938 436.389 733.274 436.971
C 728.616 438.599 724.087 440.503 719.482 442.273
C 703.178 448.537 686.861 454.799 670.526 460.966 Z"
opacity="1" fill="rgb(254,253,254)" fill-rule="evenodd" />
<path d="
M 669.898 864.098
C 670.39 861.841 671.189 859.823 673.295 858.596
C 675.609 857.248 678.929 857.749 681.503 857.702
C 687.94 857.585 700.445 855.305 701.466 864.429
C 701.858 867.926 701.755 871.487 701.756 875.001
C 701.757 879.878 701.886 884.877 699.266 889.202
C 695.015 896.22 685.929 899.567 682.371 907.015
C 681.238 909.387 681.814 912.626 681.637 915.183
C 686.474 914.948 691.368 914.911 696.211 914.945
C 697.906 914.957 700.363 914.395 701.953 914.867
C 702.21 915.642 701.839 916.592 701.82 917.402
C 701.764 919.888 701.321 922.84 701.776 925.275
C 691.344 925.332 680.691 925.753 670.279 925.138
C 670.395 919.969 670.528 914.78 670.611 909.61
C 670.646 907.388 670.256 904.502 671.379 902.499
C 675.823 894.569 686.276 890.563 689.244 881.677
C 690.195 878.827 690.07 875.459 690.088 872.481
C 690.095 871.291 689.991 869.687 689.273 868.689
C 687.814 866.661 682.478 867.532 680.446 868.393
C 679.685 869.866 679.796 871.936 679.784 873.558
C 679.768 875.893 679.618 878.175 679.496 880.492
C 679.053 880.949 677.628 880.725 676.994 880.746
C 674.75 880.819 672.506 880.658 670.278 880.696
C 669.707 879.045 670.122 876.812 670.094 875.066
C 670.035 871.421 669.554 867.738 669.898 864.098 Z"
opacity="1" fill="rgb(226,76,76)" fill-rule="evenodd" />
<path d="
M 670.526 460.966
C 686.861 454.799 703.178 448.537 719.482 442.273
C 724.087 440.503 728.616 438.599 733.274 436.971
C 734.938 436.389 737.26 434.922 739.061 435.256
C 742.054 435.81 745.214 438.34 747.873 439.76
C 754.214 443.146 760.605 446.491 766.836 450.074
C 777.673 456.306 789 461.685 799.752 468.06
C 803.367 470.204 807.1 472.161 810.76 474.225
C 811.945 474.893 813.194 475.495 814.417 476.091
C 814.655 476.207 816.002 477.144 815.83 477.157
C 813.507 477.262 811.001 476.604 808.679 476.364
C 803.925 475.873 799.166 475.449 794.405 475.001
C 778.42 473.498 762.47 471.746 746.533 469.838
C 731.119 467.994 715.61 466.153 700.144 464.811
C 694.146 464.291 688.174 463.518 682.191 462.842
C 678.276 462.399 674.161 462.297 670.31 461.514
C 670.382 461.331 670.454 461.148 670.526 460.966 Z"
opacity="1" fill="rgb(228,71,72)" fill-rule="evenodd" />
<path d="
M 677.953 671.096
C 677.953 670.879 677.953 670.662 677.954 670.445
C 682.367 669.857 687.057 670.255 691.506 670.255
C 694.706 670.255 698.315 669.821 701.464 670.374
C 701.858 671.6 701.572 673.543 701.581 674.854
C 701.603 677.845 701.601 680.835 701.599 683.825
C 701.591 694.385 701.458 704.937 701.41 715.499
C 701.309 737.498 701.357 759.499 701.4 781.499
C 701.421 792.306 701.952 803.277 701.449 814.066
C 699.922 814.775 696.724 814.161 695.006 814.177
C 689.417 814.232 683.54 813.68 677.988 814.232
C 677.655 813.911 677.811 812.617 677.813 812.139
C 677.824 809.886 677.807 807.631 677.802 805.378
C 677.784 796.586 677.78 787.793 677.781 779
C 677.784 754.5 677.738 730 677.825 705.499
C 677.851 697.997 677.881 690.495 677.888 682.993
C 677.891 679.068 677.556 675.002 677.953 671.096 Z"
opacity="1" fill="rgb(232,119,38)" fill-rule="evenodd" />
<path d="
M 725.435 683.087
C 727.003 678.085 730.419 673.876 735.333 671.804
C 740.583 669.59 746.371 670.103 751.934 670.025
C 756.401 669.962 760.868 669.962 765.336 669.926
C 769.21 669.895 773.201 669.63 777.026 670.371
C 782.109 671.356 786.57 674.56 789.643 678.676
C 793.253 683.512 793.035 689.061 793.08 694.82
C 793.127 700.879 793.196 706.939 793.107 712.999
C 793.054 716.591 792.632 720.661 793.184 724.208
C 788.472 724.067 783.72 724.2 779.003 724.2
C 776.24 724.2 773.273 723.919 770.535 724.286
C 770.244 723.84 770.377 722.937 770.366 722.401
C 770.33 720.768 770.328 719.134 770.321 717.501
C 770.293 711.502 770.269 705.503 770.244 699.504
C 770.235 697.183 771.015 693.163 768.958 691.496
C 768.035 690.748 766.588 690.916 765.481 690.896
C 763.154 690.852 760.826 690.839 758.499 690.823
C 755.866 690.804 749.9 689.654 748.202 692.06
C 747.195 694.453 747.834 697.929 747.855 700.498
C 747.902 706.331 747.841 712.167 747.849 718
C 747.872 735.166 747.83 752.333 747.817 769.499
C 747.813 774.665 747.807 779.831 747.82 784.998
C 747.826 787.243 747.368 790.136 748.126 792.283
C 748.867 794.378 751.188 794.277 753.007 794.293
C 756.866 794.327 760.752 794.475 764.606 794.249
C 766.238 794.154 768.44 794.06 769.647 792.836
C 770.52 790.476 770.074 787.47 770.078 784.992
C 770.088 779.992 770.099 774.993 770.087 769.994
C 770.082 768.162 770.107 766.327 770.055 764.496
C 770.029 763.58 769.837 762.597 770.398 761.873
C 776.021 761.381 781.866 761.817 787.51 761.853
C 788.812 761.861 790.115 761.878 791.418 761.88
C 791.932 761.881 792.867 761.681 793.282 762.029
C 793.528 764.963 793.228 768.05 793.253 771.005
C 793.309 777.778 793.359 784.554 793.3 791.327
C 793.255 796.41 793.566 801.752 790.447 806.084
C 787.77 809.801 783.404 812.373 779.039 813.603
C 774.05 815.01 768.631 814.749 763.499 814.769
C 751.9 814.814 735.393 817.448 727.876 806.256
C 725.218 802.299 725.288 797.532 725.266 792.943
C 725.234 786.13 725.238 779.317 725.241 772.504
C 725.251 752.503 725.202 732.503 725.226 712.503
C 725.234 706.337 725.228 700.171 725.213 694.005
C 725.204 690.403 724.887 686.66 725.435 683.087 Z"
opacity="1" fill="rgb(232,119,38)" fill-rule="evenodd" />
<path d="
M 728.523 902.602
C 728.512 902.462 728.501 902.322 728.489 902.181
C 729.092 901.56 730.638 901.794 731.505 901.817
C 734.226 901.89 736.945 902.008 739.665 902.039
C 739.751 904.853 739.627 907.685 739.668 910.505
C 739.69 912.015 739.534 913.753 740.31 915.107
C 741.01 915.565 741.92 915.488 742.729 915.471
C 744.754 915.426 747.579 915.766 749.414 914.773
C 750.413 913.579 749.814 910.837 749.808 909.381
C 749.791 905.42 749.806 901.456 749.861 897.495
C 749.885 895.811 750.422 893.767 749.809 892.165
C 746.327 889.305 741.429 890.293 738.991 893.919
C 738.436 894.254 737.239 893.918 736.558 893.953
C 734.2 894.075 731.479 894.239 729.156 893.724
C 729.27 886.652 728.878 879.575 728.847 872.499
C 728.824 867.317 729.235 861.93 728.773 856.775
C 736.356 857.445 744.371 856.601 752.008 856.649
C 754.448 856.665 757.325 856.228 759.704 856.72
C 759.902 860.22 759.41 863.841 759.735 867.311
C 758.251 867.774 756.082 867.426 754.514 867.423
C 751.176 867.417 747.828 867.517 744.501 867.519
C 742.774 867.52 741.008 867.341 739.301 867.75
C 739.26 871.422 739.139 875.093 739.154 878.767
C 739.158 879.734 738.828 881.771 739.516 882.431
C 747.205 880.747 757.968 880.115 761.267 889.3
C 761.92 891.119 761.693 893.266 761.707 895.17
C 761.735 898.613 761.711 902.058 761.711 905.502
C 761.711 911.542 763.283 918.932 757.986 923.239
C 754.415 926.142 749.168 925.189 744.894 925.154
C 741.438 925.126 737.788 925.499 734.425 924.548
C 732.062 923.881 729.187 922.299 728.44 919.769
C 727.967 918.169 728.268 916.154 728.3 914.502
C 728.376 910.568 728.725 906.52 728.523 902.602 Z"
opacity="1" fill="rgb(226,75,74)" fill-rule="evenodd" />
<path d="
M 814.698 670.295
C 822.521 669.879 830.855 669.521 838.664 670.216
C 839.096 672.392 838.829 674.783 838.854 676.997
C 838.903 681.331 838.959 685.663 838.968 689.998
C 839 705.59 838.226 721.398 839.347 736.93
C 839.349 737.106 839.517 736.619 839.58 736.455
C 839.804 735.869 840.031 735.279 840.239 734.688
C 840.802 733.086 841.455 731.513 842.041 729.914
C 843.85 724.975 845.61 719.957 847.618 715.096
C 852.02 704.438 855.624 693.417 859.819 682.671
C 861.376 678.682 862.326 673.599 864.703 670.029
C 872.504 668.921 880.847 669.988 888.72 669.838
C 888.409 671.273 887.482 672.682 886.942 674.056
C 885.194 678.504 883.743 683.079 881.982 687.524
C 877.284 699.384 873.201 711.501 868.716 723.445
C 867.126 727.68 865.312 731.833 863.791 736.093
C 863.186 737.786 862.045 739.738 861.861 741.525
C 861.656 743.52 863.136 745.815 863.805 747.634
C 865.76 752.954 868.133 758.122 870.312 763.353
C 874.184 772.65 877.922 782.027 881.469 791.451
C 884.311 798.999 887.979 806.616 889.887 814.464
C 889.719 814.696 888.533 814.462 888.286 814.448
C 886.858 814.367 885.428 814.396 883.999 814.391
C 879.998 814.378 875.996 814.344 871.995 814.308
C 870.106 814.292 867.972 814.004 866.112 814.295
C 865.199 813.511 864.776 811.412 864.292 810.297
C 862.901 807.091 861.59 803.842 860.327 800.585
C 856.106 789.696 851.697 778.872 847.261 768.068
C 845.362 763.442 843.385 758.846 841.516 754.207
C 840.91 752.705 840.3 751.094 839.892 749.528
C 839.791 749.142 839.437 747.011 839.081 747.545
C 838.699 752.969 839.19 758.558 839.201 764.002
C 839.225 776.123 839.26 788.246 839.182 800.367
C 839.152 805.015 839.524 809.797 839.088 814.425
C 837.388 814.729 835.245 814.377 833.498 814.369
C 829.664 814.35 825.83 814.369 821.995 814.349
C 820.06 814.339 816.86 814.979 815.139 814.148
C 814.08 779.829 814.87 745.35 814.811 711.002
C 814.795 701.837 814.75 692.673 814.723 683.509
C 814.71 679.135 815.015 674.652 814.698 670.295 Z"
opacity="1" fill="rgb(233,120,39)" fill-rule="evenodd" />
<path d="
M 902.859 764.942
C 910.111 764.612 917.487 764.691 924.748 764.784
C 925.784 771.054 925.297 777.819 925.436 784.159
C 925.491 786.666 924.998 790.252 925.856 792.593
C 927.083 794.336 929.14 794.317 931.067 794.349
C 935.051 794.417 939.024 794.599 943.006 794.427
C 944.634 794.356 947.152 794.318 948.104 792.704
C 949.029 791.134 948.412 787.768 948.411 785.993
C 948.408 781.663 948.361 777.332 948.32 773.002
C 948.299 770.848 948.639 768.157 947.888 766.099
C 947.333 764.577 945.676 763.257 944.528 762.186
C 941.595 759.449 938.372 756.879 935.134 754.516
C 928.762 749.865 922.707 744.713 916.482 739.862
C 912.044 736.404 906.939 732.786 904.03 727.851
C 902.583 725.396 903.17 721.749 903.153 719.009
C 903.112 712.339 903.104 705.668 903.087 698.997
C 903.072 692.608 901.63 684.579 905.382 679.001
C 913.277 667.264 929.843 670.252 942 670.244
C 947.462 670.241 953.278 669.729 958.531 671.495
C 962.769 672.919 966.441 675.88 969.012 679.509
C 972.72 684.742 972.254 690.379 972.258 696.5
C 972.263 704.608 972.494 712.766 972.181 720.865
C 970.598 721.492 967.554 720.877 965.821 720.893
C 962.509 720.924 959.191 721.061 955.872 721.113
C 953.978 721.142 951.938 721.392 950.087 720.897
C 949.087 719.215 949.619 716.395 949.597 714.499
C 949.541 709.492 949.47 704.485 949.417 699.48
C 949.395 697.449 950.196 693.438 948.252 692.091
C 947.193 691.358 945.52 691.593 944.297 691.583
C 941.612 691.563 938.939 691.355 936.25 691.365
C 933.602 691.374 928.755 690.49 926.75 692.475
C 925.396 695.585 926.276 700.368 926.336 703.711
C 926.396 707.018 926.338 710.344 926.57 713.644
C 926.668 715.049 926.59 716.561 927.225 717.855
C 929.679 722.851 935.538 726.417 939.819 729.696
C 945.75 734.238 951.647 738.835 957.625 743.319
C 961.881 746.511 966.449 749.683 969.983 753.692
C 972.84 756.936 971.785 762.461 971.779 766.498
C 971.769 774.438 971.752 782.379 971.798 790.319
C 971.828 795.37 972.357 800.586 969.766 805.155
C 962.69 817.631 945.845 815.21 933.726 815.084
C 928.51 815.03 922.89 815.366 917.832 813.908
C 913.226 812.581 908.498 809.982 905.638 806.025
C 902.858 802.178 902.799 796.799 902.705 792.232
C 902.521 783.282 903.224 774.237 902.673 765.304
C 902.735 765.183 902.797 765.063 902.859 764.942 Z"
opacity="1" fill="rgb(233,120,38)" fill-rule="evenodd" />

</svg>