<svg xmlns="http://www.w3.org/2000/svg"
shape-rendering="geometricPrecision"
width="4000" height="4000" viewBox="0 0 1024 1024">
  <metadata>null</metadata>

<path d="
M 392.941 293.596
C 394.372 286.817 400.526 287.596 406.007 287.594
C 418.84 287.587 431.673 287.58 444.507 287.586
C 490.34 287.608 536.173 287.61 582.006 287.587
C 593.34 287.582 604.674 287.555 616.008 287.589
C 620.128 287.601 625.961 286.515 629.03 289.79
C 631.352 292.268 630.971 294.994 630.911 298.165
C 630.83 302.441 630.869 306.721 630.879 310.997
C 630.887 314.165 630.889 317.333 630.927 320.501
C 630.948 322.202 631.256 324.185 630.685 325.821
C 630.016 327.74 628.003 329.409 626.615 330.812
C 623.749 333.71 620.856 336.579 618.018 339.505
C 607.453 350.395 596.855 361.249 586.273 372.125
C 583.417 375.061 580.606 378.052 577.665 380.903
C 576.043 382.474 573.826 384.099 572.862 386.177
C 576.485 386.739 580.792 386.033 584.507 386.036
C 593.674 386.045 602.842 386.005 612.008 386.041
C 615.342 386.054 618.677 386.041 622.009 386.09
C 623.571 386.113 625.438 385.951 626.899 386.598
C 631.005 388.419 630.962 392.182 630.939 396.002
C 630.9 402.544 630.906 409.094 630.964 415.636
C 630.989 418.472 631.953 422.568 630.342 425.072
C 628.34 428.183 625.283 430.791 622.687 433.401
C 618.719 437.389 614.829 441.453 610.865 445.444
C 598.157 458.235 585.717 471.293 573.035 484.113
C 568.755 488.439 564.492 492.781 560.218 497.113
C 558.293 499.064 555.33 501.118 554.045 503.541
C 571.823 504.062 589.707 503.548 607.507 503.592
C 612.175 503.603 616.843 503.583 621.511 503.674
C 623.529 503.713 626.014 503.403 627.773 504.571
C 631.263 506.889 631.1 509.976 631.117 513.726
C 631.146 520.317 631.128 526.908 631.17 533.5
C 631.196 537.661 631.798 541.003 628.999 544.353
C 621.479 553.351 612.585 561.446 604.373 569.814
C 587.799 586.703 570.956 603.359 554.624 620.48
C 549.169 626.198 542.887 631.41 537.874 637.52
C 537.367 639.131 537.748 641.305 537.746 642.999
C 537.741 647.166 537.741 651.333 537.741 655.5
C 537.741 669.166 537.773 682.833 537.815 696.5
C 537.826 700.333 537.867 704.166 537.899 708
C 537.914 709.796 538.236 711.898 537.634 713.624
C 536.191 717.768 531.47 718.583 527.926 720.263
C 518.5 724.733 508.574 728.96 498.809 732.631
C 494.714 734.17 489.401 736.801 486.767 731.382
C 485.686 729.158 486.2 725.92 486.187 723.511
C 486.155 717.511 486.188 711.51 486.17 705.51
C 486.126 690.341 486.093 675.171 486.097 660.002
C 486.098 655.168 486.094 650.335 486.104 645.501
C 486.109 642.985 486.448 640.245 486.055 637.764
C 484.328 635.343 481.957 633.313 479.869 631.21
C 475.338 626.648 470.659 622.161 466.313 617.425
C 447.689 597.132 427.399 578.37 408.482 558.353
C 404.195 553.817 399.366 549.743 395.271 545.028
C 394.454 544.087 393.542 543.068 393.049 541.908
C 392.073 539.606 392.754 535.97 392.761 533.505
C 392.78 527.225 392.786 520.944 392.791 514.664
C 392.794 510.793 392.357 507.134 395.932 504.633
C 397.68 503.41 400.049 503.624 402.084 503.61
C 406.225 503.582 410.366 503.613 414.507 503.61
C 427.507 503.6 440.507 503.695 453.507 503.647
C 457.173 503.634 460.838 503.632 464.504 503.616
C 466.01 503.61 468.125 504.002 469.53 503.483
C 467.561 500.928 465.05 498.704 462.808 496.388
C 458.53 491.967 454.205 487.589 449.883 483.21
C 438.075 471.245 426.392 459.157 414.53 447.246
C 409.562 442.257 404.484 437.362 399.69 432.207
C 397.643 430.006 395.219 427.943 393.618 425.378
C 392.033 422.841 392.81 418.86 392.831 416
C 392.879 409.73 392.885 403.461 392.903 397.191
C 392.914 393.01 392.652 389.299 396.714 386.821
C 398.137 385.953 400.099 386.136 401.701 386.122
C 405.136 386.094 408.57 386.087 412.005 386.068
C 421.339 386.018 430.673 386.119 440.007 386.104
C 443.765 386.097 447.646 386.432 451.388 386.17
C 438.56 373.588 426.438 360.278 413.576 347.719
C 409.042 343.293 404.733 338.642 400.281 334.133
C 398.045 331.869 394.851 329.369 393.477 326.446
C 392.217 323.765 392.923 319.384 392.924 316.494
C 392.926 308.944 392.299 301.115 392.941 293.596 Z
M 406.343 301.425
C 406.216 306.497 406.351 311.584 406.32 316.658
C 411.383 315.898 416.88 316.694 422.005 316.531
C 433.65 316.161 445.353 316.444 457.007 316.445
C 493.01 316.449 529.003 316.48 565.006 316.467
C 576.689 316.462 588.371 316.537 600.053 316.554
C 605.745 316.563 611.793 317.09 617.447 316.484
C 618.04 315.66 617.579 313.505 617.571 312.495
C 617.541 308.84 618.137 304.596 617.441 301.01
C 616.49 300.456 614.828 300.766 613.741 300.761
C 610.828 300.746 607.914 300.757 605 300.75
C 594.333 300.724 583.666 300.753 572.999 300.761
C 533.499 300.79 493.998 300.75 454.498 300.789
C 442.498 300.801 430.498 300.815 418.498 300.847
C 415.666 300.855 412.833 300.891 410 300.877
C 408.85 300.871 407.191 300.575 406.343 301.425 Z
M 406.392 399.469
C 405.868 400.519 406.205 402.319 406.197 403.493
C 406.178 406.163 406.184 408.83 406.197 411.501
C 406.202 412.627 405.972 414.05 406.309 415.123
C 410.55 414.581 415.218 415.109 419.506 415.101
C 429.827 415.081 440.189 415.329 450.506 415.035
C 464.65 414.631 478.854 414.951 493.008 414.954
C 518.508 414.959 544.008 414.933 569.508 414.955
C 580.008 414.964 590.508 414.94 601.008 414.941
C 606.478 414.941 612.094 415.335 617.547 414.919
C 618.072 414.639 617.72 411.655 617.714 411.005
C 617.678 407.142 617.48 403.205 617.643 399.351
C 606.306 398.819 594.848 399.324 583.498 399.335
C 561.665 399.356 539.831 399.372 517.998 399.334
C 493.832 399.293 469.666 399.358 445.5 399.367
C 432.498 399.372 419.378 398.841 406.392 399.469 Z
M 406.227 516.837
C 406.145 521.987 405.855 527.345 406.242 532.478
C 453.476 532.422 500.757 532.417 548.009 532.451
C 563.342 532.462 578.674 532.419 594.007 532.433
C 599.174 532.437 604.34 532.429 609.506 532.4
C 612.164 532.385 615.054 532.681 617.682 532.268
C 617.471 528.874 617.676 525.406 617.677 522.004
C 617.678 520.374 617.332 518.322 617.679 516.754
C 573.788 516.643 529.893 516.825 486 516.75
C 459.452 516.704 432.755 515.942 406.227 516.837 Z
M 414.729 545.873
C 421.334 553.73 429.199 560.827 436.393 568.156
C 449.371 581.377 462.378 594.567 475.288 607.855
C 481.903 614.662 488.817 621.236 495.225 628.235
C 496.169 628.606 497.311 628.34 498.298 628.326
C 500.534 628.293 502.773 628.307 505.009 628.309
C 510.176 628.313 515.342 628.284 520.509 628.291
C 522.967 628.294 525.506 628.564 527.95 628.316
C 528.933 627.839 529.755 626.697 530.526 625.932
C 532.23 624.241 533.943 622.558 535.618 620.837
C 540.908 615.404 546.318 610.088 551.662 604.708
C 564.826 591.454 577.969 578.172 591.009 564.796
C 595.23 560.467 599.458 556.147 603.671 551.811
C 605.476 549.954 607.929 548.043 609.332 545.887
C 608.636 545.283 606.883 545.581 606 545.587
C 602.835 545.609 599.668 545.563 596.503 545.551
C 584.331 545.506 572.174 545.532 560.003 545.541
C 528.17 545.564 496.337 545.548 464.504 545.571
C 454.005 545.579 443.506 545.631 433.007 545.662
C 426.952 545.68 420.759 545.359 414.729 545.873 Z
M 415.318 329.895
C 415.246 330.057 415.175 330.219 415.103 330.38
C 419.952 334.813 424.385 339.84 428.987 344.539
C 437.251 352.979 445.567 361.366 453.83 369.807
C 457.704 373.764 461.54 377.789 465.554 381.606
C 467.043 383.021 468.797 385.367 470.651 386.231
C 475.414 386.811 480.691 386.135 485.507 386.12
C 495.84 386.087 506.173 386.06 516.507 386.048
C 524.674 386.038 532.84 386.043 541.007 386.057
C 545.038 386.064 549.561 386.654 553.531 386.002
C 555.126 385.223 556.525 383.339 557.777 382.093
C 560.639 379.246 563.48 376.377 566.326 373.513
C 576.125 363.654 585.857 353.736 595.535 343.759
C 598.721 340.474 601.92 337.198 605.153 333.961
C 606.377 332.735 608.747 331.104 609.328 329.447
C 607.715 329.975 605.686 329.595 604.004 329.598
C 600.171 329.604 596.337 329.582 592.503 329.598
C 579.338 329.653 566.174 329.646 553.009 329.656
C 523.174 329.677 493.339 329.69 463.505 329.69
C 447.515 329.69 431.276 328.982 415.318 329.895 Z
M 415.43 428.382
C 415.284 428.526 415.139 428.671 414.993 428.816
C 431.862 445.655 448.355 462.91 465.025 479.962
C 469.986 485.037 474.961 490.1 479.917 495.18
C 482.589 497.919 485.218 501.276 488.318 503.525
C 491.285 504.364 495.412 503.601 498.507 503.604
C 506.172 503.611 513.838 503.559 521.503 503.557
C 524.624 503.556 527.744 503.565 530.864 503.56
C 532.369 503.558 534.166 503.863 535.616 503.422
C 541.761 497.518 547.441 491.071 553.41 484.989
C 564.131 474.065 574.896 463.182 585.631 452.272
C 591.007 446.809 596.364 441.324 601.77 435.891
C 604.018 433.632 607.488 431.187 609.035 428.406
C 607.403 427.814 605.225 428.195 603.503 428.205
C 599.504 428.228 595.504 428.198 591.505 428.194
C 577.837 428.181 564.17 428.214 550.502 428.214
C 520.667 428.214 490.833 428.222 460.998 428.251
C 450.832 428.261 440.665 428.263 430.499 428.293
C 425.504 428.308 420.407 428.012 415.43 428.382 Z
M 499.162 641.711
C 499.86 653.716 499.203 665.969 499.218 678
C 499.234 691.328 499.878 704.807 499.279 718.119
C 499.569 718.515 500.462 717.924 500.885 717.721
C 502.354 717.015 503.879 716.365 505.397 715.77
C 511.757 713.275 518.653 710.964 524.632 707.649
C 525.097 705.878 524.621 703.348 524.611 701.501
C 524.587 696.833 524.594 692.164 524.589 687.496
C 524.574 672.242 524.248 656.945 524.607 641.698
C 516.196 641.614 507.552 641.109 499.162 641.711 Z"
opacity="1" fill="rgb(227,111,35)" fill-rule="evenodd" />

</svg>